<svg xmlns="http://www.w3.org/2000/svg" width="512" height="512"><path fill="currentColor" d="M255 134c3.9 1.69 7.07 4.25 10.38 6.88.91.72.91.72 1.85 1.46 5.61 4.47 11.05 9.14 16.48 13.83 3.7 3.2 7.48 6.29 11.27 9.37 3.73 3.04 7.44 6.09 11.14 9.15 1.48 1.21 2.95 2.42 4.42 3.63.74.61 1.48 1.22 2.24 1.85L323.5 189l4.25 3.5c1.05.87 1.05.87 2.13 1.75 2.12 1.75 4.25 3.5 6.37 5.25.7.58 1.4 1.16 2.13 1.75 1.41 1.16 2.82 2.33 4.24 3.49 3.59 2.96 7.18 5.91 10.77 8.87 6.55 5.38 13.09 10.77 19.55 16.27 4.35 3.69 8.76 7.3 13.23 10.85 5.91 4.74 11.73 9.59 17.57 14.41 2.23 1.83 4.45 3.66 6.68 5.49 7.23 5.94 14.45 11.9 21.56 18 2.28 1.94 4.52 3.7 7.02 5.37.38 2.75.38 2.75.39 6.34.01.65.02 1.31.02 1.99.02 2.21.01 4.43.01 6.64l.03 4.75c.02 4.31.02 8.62.02 12.93 0 3.6.01 7.2.02 10.8.01 8.49.02 16.98.01 25.48-.01 8.75.02 17.51.05 26.26.04 7.52.05 15.04.04 22.56 0 4.48.01 8.97.03 13.46.02 4.23.02 8.46 0 12.68 0 1.55 0 3.1.02 4.65.13 15.46.13 15.46-5.64 21.46-4.8 4.18-8.86 6.13-15.22 6.12h-3.28c-1.18 0-2.37 0-3.59-.01h-3.79c-3.42 0-6.85 0-10.27-.01-3.58 0-7.16-.01-10.74-.01-6.78 0-13.56-.01-20.34-.02-9.15-.01-18.31-.02-27.47-.02-14.44-.01-28.87-.03-43.3-.05V338h-80v122c-31.78.16-31.78.16-45.11.2-9.2.02-18.4.05-27.6.1-6.7.04-13.4.07-20.1.08-3.55 0-7.09.01-10.64.04-3.96.04-7.93.04-11.89.03-1.75.03-1.75.03-3.54.05-7.26-.04-13.16-.81-18.64-5.91-4.51-5.07-5.72-9.57-5.81-16.23l-.03-1.98c-.03-2.18-.05-4.37-.07-6.55-.02-1.57-.05-3.14-.07-4.71-.07-5.15-.11-10.29-.15-15.44l-.02-2.66c-.07-8.28-.13-16.56-.17-24.84-.05-10.57-.14-21.14-.29-31.7-.1-7.45-.16-14.89-.17-22.33-.02-4.44-.05-8.88-.14-13.32-.08-4.19-.09-8.36-.07-12.55 0-1.52-.02-3.05-.07-4.58-.32-11.19-.32-11.19 2.87-15.4 3.52-3.64 7.53-6.47 11.71-9.3a224 224 0 0 0 3.84-3.06c1.02-.78 2.04-1.57 3.1-2.38 5.48-4.25 10.77-8.68 16.01-13.21 5.27-4.56 10.64-8.97 16.05-13.35 5.9-4.8 11.77-9.63 17.56-14.56a517 517 0 0 1 13.61-11.17c5.92-4.74 11.74-9.6 17.59-14.42 2.88-2.38 5.75-4.74 8.63-7.11 1.41-1.16 2.82-2.32 4.22-3.48 3.59-2.96 7.19-5.91 10.78-8.87 6.55-5.38 13.09-10.77 19.55-16.27 4.33-3.68 8.72-7.28 13.18-10.81 4.67-3.75 9.29-7.57 13.9-11.39 3.64-3 7.29-5.99 10.98-8.92"/><path fill="currentColor" d="M277.59 57.59c7.02 4.87 13.37 10.61 19.78 16.24 3.88 3.41 7.87 6.68 11.89 9.93 3.11 2.54 6.18 5.14 9.24 7.74 3.95 3.35 7.92 6.67 11.94 9.94 4.94 4.02 9.79 8.15 14.61 12.31l1.69 1.45c.48.42.97.84 1.47 1.27 2.58 2.2 5.18 4.36 7.79 6.53.01-.76.01-1.53.02-2.31.06-7.21.13-14.42.22-21.63.04-3.71.08-7.41.11-11.12.02-3.58.06-7.16.11-10.74.02-1.36.03-2.72.04-4.08.01-1.92.04-3.83.07-5.75l.03-3.29c.47-3.59 1.52-6 3.4-9.08 3.63-2.42 5.36-2.26 9.69-2.29.67-.01 1.35-.01 2.04-.02 2.24-.02 4.47-.02 6.7-.03 1.55 0 3.11-.01 4.66-.02 3.26-.01 6.51-.01 9.77-.01 4.17 0 8.34-.03 12.5-.06q4.815-.03 9.63-.03c1.54 0 3.07-.01 4.61-.02 2.15-.02 4.3-.02 6.45-.01h3.71c3.85.58 5.49 1.79 8.24 4.49 1.29 2.58 1.12 4.43 1.12 7.33v3.42c0 1.25 0 2.49-.01 3.78v3.96c0 3.59 0 7.18-.01 10.77 0 3.75-.01 7.5-.01 11.25 0 7.11-.01 14.21-.02 21.32-.01 8.08-.01 16.17-.02 24.26-.01 16.63-.03 33.27-.05 49.91.6.28 1.19.56 1.81.84 3.31 1.75 5.96 4.26 8.75 6.72 1.26 1.1 2.52 2.19 3.78 3.28.63.54 1.25 1.08 1.89 1.64 2.41 2.07 4.86 4.08 7.33 6.08 4.05 3.29 8.04 6.63 12 10 3.77 3.21 7.56 6.37 11.44 9.44 5.09 4.04 10.05 8.23 15 12.44 1.77 1.52 3.56 3.03 5.35 4.53 5.41 4.54 5.41 4.54 5.96 7.91.32 5.56-.63 8.52-4.2 12.75-.69.78-1.39 1.56-2.11 2.37-.97 1.13-1.93 2.27-2.89 3.4-2.54 2.99-5.11 5.97-7.68 8.93-.95 1.11-1.88 2.24-2.79 3.38-3.25 4.08-5.38 5.55-10.64 6.29-4.57-1.14-7.51-2.9-11.06-5.94-.95-.8-1.9-1.6-2.88-2.43-1.02-.88-2.04-1.75-3.06-2.63-1.62-1.37-3.23-2.74-4.85-4.11-1.11-.93-2.21-1.87-3.31-2.8-3.42-2.9-6.86-5.76-10.34-8.59-4.6-3.75-9.14-7.57-13.66-11.41-3.42-2.9-6.86-5.76-10.34-8.59-4.6-3.75-9.14-7.57-13.66-11.41-3.42-2.9-6.86-5.76-10.34-8.59-4.6-3.75-9.14-7.57-13.66-11.41-3.42-2.9-6.86-5.76-10.34-8.59-4.6-3.75-9.14-7.57-13.66-11.41-3.42-2.9-6.86-5.76-10.34-8.59-4.6-3.75-9.14-7.57-13.66-11.41-3.42-2.9-6.86-5.76-10.34-8.59-4.6-3.75-9.14-7.57-13.66-11.41-3.42-2.9-6.86-5.76-10.34-8.59-4.6-3.75-9.14-7.57-13.66-11.41-4.29-3.64-8.64-7.21-13-10.75-2.11-1.73-4.18-3.49-6.24-5.27-.58-.5-1.15-1-1.75-1.52-1.12-.96-2.24-1.94-3.35-2.92-3.01-2.6-5.7-4.4-9.5-5.63-.81.69-1.62 1.38-2.46 2.09-5.31 4.51-10.63 9.01-16.04 13.41-4.04 3.29-8.03 6.63-12 10-4.85 4.12-9.75 8.17-14.69 12.19-3.13 2.57-6.22 5.19-9.31 7.81-4.85 4.12-9.75 8.17-14.69 12.19-3.13 2.57-6.22 5.19-9.31 7.81-4.85 4.12-9.75 8.17-14.69 12.19-3.13 2.57-6.22 5.19-9.31 7.81-4.85 4.12-9.75 8.17-14.69 12.19-3.13 2.57-6.22 5.19-9.31 7.81-4.85 4.12-9.75 8.17-14.69 12.19-3.13 2.57-6.22 5.19-9.31 7.81-4.85 4.12-9.75 8.17-14.69 12.19-3.13 2.57-6.22 5.19-9.31 7.81-4.85 4.12-9.75 8.17-14.69 12.19-3.13 2.57-6.22 5.19-9.31 7.81-4.15 3.52-8.31 7.03-12.5 10.5-.85.7-1.69 1.4-2.56 2.13-4.31 3.31-7.91 5.64-13.44 5.87-5.63-2.12-8.65-5.56-12.37-10.06-.57-.67-1.13-1.34-1.71-2.02-1.65-1.96-3.29-3.94-4.92-5.92-.67-.81-.67-.81-1.36-1.65-8.17-9.94-8.17-9.94-8.03-16.99 1.18-7.12 9.07-11.71 14.33-15.91 3.24-2.59 6.4-5.26 9.56-7.95 4.85-4.12 9.75-8.17 14.69-12.19 3.13-2.57 6.22-5.19 9.31-7.81 4.85-4.12 9.75-8.17 14.69-12.19 3.13-2.57 6.22-5.19 9.31-7.81 4.85-4.12 9.75-8.17 14.69-12.19 3.13-2.57 6.22-5.19 9.31-7.81 4.85-4.12 9.75-8.17 14.69-12.19 3.13-2.57 6.22-5.19 9.31-7.81 4.85-4.12 9.75-8.17 14.69-12.19 3.13-2.57 6.22-5.19 9.31-7.81 4.85-4.12 9.75-8.17 14.69-12.19 3.13-2.57 6.22-5.19 9.31-7.81 4.85-4.12 9.76-8.18 14.7-12.2 3.07-2.52 6.09-5.09 9.11-7.67 5-4.27 10.12-8.34 15.31-12.35 4.51-3.53 8.83-7.25 13.13-11.03 16.91-14.78 36.47-24.78 57.84-11.66"/></svg>