<svg xmlns="http://www.w3.org/2000/svg" width="512" height="512"><path fill="currentColor" d="M255.875 132.5c1.17-.05 1.17-.05 2.37-.09 7.41 1.59 13.02 7.42 18.19 12.64.7.7 1.4 1.4 2.13 2.12 2.34 2.33 4.67 4.66 6.99 7 1.68 1.68 3.36 3.35 5.05 5.03 4.55 4.54 9.09 9.09 13.64 13.64l8.52 8.52 1.43 1.43 2.88 2.88c8.99 8.99 17.98 17.98 26.96 26.97 7.7 7.72 15.41 15.42 23.12 23.12 8.97 8.95 17.93 17.91 26.88 26.87.96.96 1.91 1.92 2.87 2.87.47.47.94.94 1.42 1.43 3.31 3.31 6.62 6.61 9.93 9.92 4.46 4.45 8.91 8.91 13.36 13.37 1.63 1.64 3.27 3.27 4.9 4.9 2.24 2.23 4.46 4.46 6.69 6.7.65.64 1.3 1.29 1.97 1.95 4.62 4.69 8.23 9.24 8.32 16.11-.16 5.3-1.87 9.24-5.5 13.12-3.69 2.72-6.37 3.43-10.93 3.44l-3.03.06c-6.63-1.09-11.2-6.38-15.75-10.98-.66-.65-1.31-1.3-1.98-1.96-2.17-2.17-4.33-4.34-6.49-6.52l-4.67-4.67c-4.23-4.22-8.44-8.45-12.66-12.68-4.41-4.42-8.82-8.84-13.23-13.25-7.41-7.41-14.81-14.83-22.21-22.25-7.62-7.64-15.24-15.27-22.87-22.9-.47-.48-.94-.95-1.43-1.43-2.35-2.36-4.71-4.73-7.07-7.09-19.57-19.58-39.12-39.17-58.68-58.77-2.76 1.26-4.8 2.56-6.94 4.71-.56.55-1.12 1.1-1.69 1.67-.9.92-.9.92-1.82 1.85-.97.96-.97.96-1.95 1.95-2.17 2.17-4.33 4.34-6.49 6.52-1.55 1.55-3.1 3.11-4.65 4.66l-10.02 10.05c-5.27 5.3-10.55 10.59-15.83 15.88-7.4 7.42-14.8 14.83-22.19 22.26-.71.7-.71.7-1.42 1.42-3.33 3.35-6.66 6.69-10 10.03-3.8 3.82-7.6 7.64-11.41 11.45-.47.47-.94.94-1.42 1.43-7.81 7.84-15.63 15.67-23.44 23.51-5.26 5.26-10.5 10.52-15.75 15.8l-9.78 9.81c-1.52 1.52-3.03 3.04-4.55 4.56-2.06 2.08-4.12 4.15-6.19 6.21l-1.82 1.85-1.69 1.67c-.47.48-.95.96-1.44 1.45-4.48 3.74-8.88 3.74-14.52 3.64-4.41-.56-7.02-2.12-9.99-5.38-3.1-4.3-3.37-8.2-3.49-13.34 1.33-7.16 6.49-12.09 11.47-17.01.7-.71 1.4-1.41 2.12-2.14 2.34-2.36 4.7-4.7 7.05-7.05 1.69-1.69 3.37-3.38 5.06-5.07 4.1-4.11 8.2-8.21 12.31-12.31 3.34-3.33 6.67-6.67 10.01-10 .47-.48.95-.95 1.44-1.44.96-.97 1.93-1.94 2.89-2.9 9.04-9.05 18.1-18.1 27.15-27.13 7.77-7.76 15.52-15.52 23.28-23.28 9-9.03 18.02-18.05 27.04-27.06.96-.96 1.92-1.92 2.89-2.88.47-.48.94-.95 1.43-1.44l9.99-9.99c4.48-4.49 8.97-8.97 13.46-13.45 1.65-1.64 3.29-3.29 4.94-4.94 2.24-2.25 4.49-4.49 6.74-6.73.65-.65 1.3-1.31 1.97-1.98 4.69-4.64 9.24-8.27 16.13-8.36"/></svg>
