<svg xmlns="http://www.w3.org/2000/svg" width="512" height="512"><path fill="currentColor" d="m24.688-.437 3.45-.12c9.8 1.42 16.43 7.41 23.15 14.25.88.87 1.76 1.74 2.66 2.64 2.42 2.41 4.82 4.83 7.22 7.26 2.6 2.61 5.21 5.22 7.82 7.83 4.51 4.51 9.02 9.03 13.52 13.55 6.5 6.55 13.02 13.08 19.54 19.6 10.58 10.6 21.15 21.2 31.71 31.81 10.26 10.3 20.52 20.6 30.79 30.89l1.92 1.92c3.18 3.19 6.36 6.37 9.54 9.56 26.34 26.4 52.67 52.82 78.99 79.25 3.18-1.41 5.32-3.07 7.76-5.53.74-.74 1.48-1.47 2.23-2.23.81-.81 1.61-1.62 2.44-2.46.85-.86 1.71-1.72 2.6-2.61 2.38-2.38 4.75-4.78 7.13-7.17 2.56-2.58 5.13-5.16 7.7-7.73 4.45-4.47 8.89-8.94 13.34-13.41 7.02-7.07 14.06-14.13 21.1-21.19 2.41-2.41 4.82-4.83 7.23-7.24.6-.61 1.2-1.21 1.82-1.83 6.85-6.88 13.7-13.75 20.55-20.63.63-.63 1.26-1.25 1.9-1.9 10.14-10.18 20.28-20.37 30.41-30.56 10.41-10.46 20.82-20.91 31.25-31.36 6.43-6.44 12.84-12.89 19.25-19.34 4.4-4.43 8.81-8.85 13.22-13.27 2.54-2.54 5.08-5.09 7.61-7.65 2.74-2.78 5.51-5.54 8.28-8.29.79-.81 1.57-1.61 2.39-2.44 5.93-5.87 12.14-10.32 20.48-11.83 7.76.1 14.01.85 20.31 5.67 5.62 5.8 8.29 11.58 8.44 19.68l.12 3.45c-1.42 9.8-7.41 16.44-14.25 23.16-1.31 1.31-1.31 1.31-2.64 2.66-2.41 2.41-4.83 4.82-7.26 7.22-2.61 2.59-5.22 5.21-7.83 7.82-4.51 4.51-9.03 9.01-13.55 13.51a9034 9034 0 0 0-19.6 19.54c-10.6 10.58-21.2 21.15-31.81 31.72-10.3 10.25-20.6 20.51-30.89 30.78-.63.64-1.27 1.27-1.92 1.92-3.19 3.18-6.37 6.36-9.56 9.54-26.4 26.35-52.82 52.68-79.25 79 1.41 3.18 3.07 5.31 5.53 7.76.74.73 1.47 1.47 2.23 2.23l2.46 2.43c.86.86 1.72 1.72 2.61 2.6 2.38 2.38 4.78 4.76 7.17 7.13 2.58 2.57 5.16 5.13 7.73 7.7 4.47 4.45 8.94 8.9 13.41 13.34 7.07 7.03 14.13 14.07 21.19 21.11 2.41 2.4 4.83 4.81 7.24 7.22.61.6 1.21 1.21 1.83 1.83 6.88 6.85 13.75 13.7 20.63 20.55l1.9 1.9c10.18 10.14 20.37 20.27 30.56 30.4 10.46 10.41 20.91 20.83 31.36 31.25 6.44 6.43 12.89 12.85 19.34 19.26 4.43 4.39 8.85 8.8 13.27 13.21 2.54 2.55 5.09 5.08 7.65 7.61 2.78 2.75 5.54 5.51 8.29 8.28.81.79 1.61 1.58 2.44 2.39 5.87 5.94 10.32 12.14 11.83 20.48-.1 7.77-.85 14.02-5.67 20.32-5.8 5.61-11.58 8.28-19.69 8.44-1.13.03-2.27.07-3.44.12-9.8-1.42-16.44-7.41-23.16-14.25-.87-.87-1.75-1.75-2.66-2.65-2.41-2.41-4.82-4.83-7.22-7.25-2.59-2.62-5.21-5.22-7.82-7.83-4.51-4.51-9.01-9.03-13.51-13.56-6.51-6.54-13.02-13.07-19.54-19.6a31714 31714 0 0 1-31.72-31.8c-10.25-10.31-20.51-20.6-30.78-30.89-.64-.64-1.27-1.27-1.92-1.93-3.18-3.18-6.36-6.37-9.54-9.55-26.35-26.4-52.68-52.82-79-79.25-3.18 1.4-5.31 3.06-7.76 5.52-.73.74-1.47 1.48-2.23 2.23-1.2 1.22-1.2 1.22-2.43 2.46-.86.86-1.72 1.72-2.6 2.61-2.38 2.39-4.76 4.78-7.13 7.17-2.57 2.59-5.13 5.16-7.7 7.74-4.45 4.46-8.9 8.93-13.34 13.4a21087 21087 0 0 1-21.11 21.19c-2.4 2.42-4.81 4.83-7.22 7.25l-1.83 1.83c-6.85 6.87-13.7 13.75-20.55 20.62-.63.63-1.25 1.26-1.9 1.91-10.14 10.18-20.27 20.36-30.4 30.55-10.41 10.46-20.83 20.92-31.25 31.36a8784 8784 0 0 0-19.26 19.35c-4.39 4.43-8.8 8.85-13.21 13.26-2.55 2.54-5.08 5.09-7.61 7.65-2.75 2.78-5.51 5.54-8.28 8.3-.79.8-1.58 1.61-2.39 2.44-5.94 5.87-12.14 10.32-20.49 11.82-7.76-.09-14.01-.85-20.31-5.66-5.61-5.8-8.28-11.58-8.43-19.69-.04-1.14-.08-2.28-.13-3.45 1.42-9.8 7.41-16.43 14.25-23.15.87-.88 1.75-1.76 2.65-2.66 2.41-2.42 4.83-4.82 7.25-7.22 2.62-2.6 5.22-5.21 7.83-7.82 4.51-4.51 9.03-9.02 13.56-13.52 6.54-6.5 13.07-13.02 19.6-19.54q15.885-15.87 31.8-31.71c10.31-10.26 20.6-20.52 30.89-30.79.64-.63 1.27-1.27 1.93-1.92 3.18-3.18 6.37-6.36 9.55-9.54 26.4-26.34 52.82-52.67 79.25-78.99-1.4-3.18-3.06-5.32-5.52-7.76l-2.23-2.23c-.82-.81-1.63-1.61-2.46-2.44-.86-.85-1.72-1.71-2.61-2.6-2.39-2.38-4.78-4.75-7.17-7.13-2.59-2.56-5.16-5.13-7.74-7.7-4.46-4.45-8.93-8.89-13.4-13.34-7.07-7.02-14.13-14.06-21.19-21.1-2.42-2.41-4.83-4.82-7.25-7.23-.6-.6-1.21-1.2-1.83-1.82-6.87-6.85-13.75-13.7-20.62-20.55-.63-.63-1.26-1.26-1.91-1.9-10.18-10.14-20.36-20.28-30.55-30.41-10.46-10.41-20.92-20.82-31.36-31.25-6.44-6.43-12.89-12.84-19.35-19.25-4.43-4.4-8.85-8.81-13.26-13.22-2.54-2.54-5.09-5.08-7.65-7.61-2.78-2.74-5.54-5.51-8.3-8.28-1.21-1.18-1.21-1.18-2.44-2.39-5.87-5.93-10.32-12.14-11.82-20.48.09-7.76.85-14.01 5.66-20.31 5.8-5.62 11.58-8.29 19.69-8.44"/></svg>
