<svg xmlns="http://www.w3.org/2000/svg" width="512" height="512"><path fill="currentColor" d="M255.688-.312c1.45 0 1.45 0 2.93.01 14.33.04 28.28.55 42.38 3.3 1.35.24 1.35.24 2.72.49 59.81 10.82 117.32 44.88 154.28 93.51.42.54.84 1.08 1.27 1.64 7.68 9.99 14.42 20.45 20.73 31.36.4.68.79 1.36 1.2 2.05 13.18 22.92 21.79 48.5 27.11 74.33.15.71.3 1.42.45 2.15 2.99 15.64 3.62 31.28 3.55 47.16v2.93c-.05 14.33-.55 28.28-3.31 42.38-.16.9-.32 1.8-.49 2.72-10.82 59.81-44.88 117.32-93.51 154.28-.54.42-1.08.84-1.63 1.27-10 7.68-20.46 14.42-31.37 20.73-.67.4-1.35.79-2.05 1.2-22.92 13.18-48.49 21.79-74.32 27.11-.71.15-1.42.3-2.16.45-15.64 2.99-31.27 3.62-47.16 3.55h-2.93c-14.33-.05-28.28-.55-42.38-3.31-.89-.16-1.79-.32-2.72-.49-59.81-10.82-117.32-44.88-154.28-93.51-.41-.54-.83-1.08-1.26-1.63-7.68-10-14.43-20.46-20.74-31.37-.39-.67-.79-1.35-1.19-2.05-13.18-22.92-21.79-48.49-27.12-74.32-.15-.71-.29-1.42-.45-2.16-2.98-15.64-3.61-31.27-3.55-47.16 0-.96 0-1.93.01-2.93.04-14.33.55-28.28 3.3-42.38.24-1.34.24-1.34.49-2.72 10.82-59.81 44.88-117.32 93.51-154.28.54-.41 1.08-.83 1.64-1.26 9.99-7.68 20.45-14.43 31.36-20.74.68-.39 1.36-.79 2.05-1.19 22.92-13.18 48.5-21.79 74.33-27.12.71-.15 1.42-.29 2.15-.45 15.64-2.98 31.28-3.61 47.16-3.55m-122.93 204.33-2.77 2.79c-.48.49-.97.98-1.47 1.48-1.55 1.57-3.1 3.14-4.64 4.71l-3.15 3.18c-2.58 2.6-5.16 5.21-7.73 7.82 3.79 4.53 7.7 8.85 11.89 13.01l1.7 1.7a538755493551711.44 538755493551711.44 0 0 0 9.6 9.59c3.63 3.63 7.25 7.25 10.88 10.87 3.8 3.8 7.6 7.59 11.39 11.38 7.18 7.18 14.36 14.36 21.55 21.53 8.18 8.17 16.36 16.34 24.53 24.51 16.82 16.81 33.64 33.61 50.46 50.41 4.06-1.62 6.78-4.5 9.8-7.55.57-.58 1.15-1.15 1.74-1.74 1.93-1.92 3.85-3.86 5.77-5.79 1.38-1.38 2.76-2.76 4.14-4.13 3.75-3.75 7.49-7.51 11.23-11.26 3.91-3.92 7.82-7.84 11.74-11.76 7.41-7.41 14.82-14.84 22.22-22.27 8.44-8.45 16.87-16.9 25.31-25.34 17.36-17.38 34.71-34.77 52.05-52.16-.95-1.12-1.91-2.24-2.86-3.36-.54-.62-1.07-1.24-1.62-1.89-1.79-2.06-3.66-4.01-5.6-5.93-.71-.7-1.41-1.4-2.13-2.12-.72-.7-1.43-1.41-2.16-2.13-.74-.74-1.47-1.47-2.23-2.22-1.8-1.79-3.6-3.57-5.4-5.35-3.7 1.56-6.06 3.82-8.88 6.65-.48.47-.96.95-1.45 1.44-1.59 1.59-3.18 3.19-4.77 4.79-1.14 1.14-2.29 2.28-3.43 3.43-3.1 3.1-6.2 6.21-9.3 9.32-3.23 3.25-6.48 6.49-9.72 9.74-6.14 6.14-12.27 12.29-18.4 18.44-6.98 7-13.97 14-20.95 21-14.37 14.39-28.74 28.79-43.1 43.19-3.7-1.55-6.05-3.81-8.87-6.64-.47-.48-.95-.95-1.44-1.44-1.59-1.59-3.17-3.19-4.76-4.79-1.14-1.15-2.28-2.29-3.42-3.43-2.45-2.46-4.9-4.93-7.35-7.39-3.87-3.9-7.75-7.78-11.62-11.67-8.23-8.25-16.45-16.51-24.66-24.76-8.88-8.92-17.76-17.84-26.64-26.75-3.86-3.87-7.71-7.74-11.56-11.62-2.39-2.4-4.79-4.8-7.18-7.2-1.12-1.12-2.23-2.24-3.34-3.36-1.51-1.52-3.02-3.04-4.54-4.56-1.27-1.28-1.27-1.28-2.57-2.58-2.92-2.58-3.4-2.39-6.29.21"/></svg>
