<svg xmlns="http://www.w3.org/2000/svg" width="512" height="512"><path fill="currentColor" d="M269.5 1.938c7.42 4.44 12.23 10.27 14.87 18.44 1.13 4.69 1.05 9.34 1.03 14.14.01 1.14.01 2.27.02 3.43.02 3.77.01 7.55.01 11.32l.03 8.13c.03 5.83.04 11.66.04 17.48.01 8.43.03 16.85.06 25.28q.06 20.505.09 41.01c.02 13.28.05 26.56.09 39.83v2.49c.02 4.11.03 8.21.04 12.32.09 34.07.16 68.13.22 102.19l2.41-2.43c7.5-7.59 15.02-15.17 22.55-22.73 3.87-3.89 7.73-7.79 11.59-11.69 3.73-3.77 7.46-7.53 11.2-11.28 1.43-1.43 2.85-2.86 4.26-4.3q2.985-3.03 6-6.03c.58-.59 1.15-1.18 1.75-1.79 6.87-6.81 14.21-10.81 23.99-11 9.49.19 15.22 3.3 22.08 9.84 5.55 6.16 7.57 12.93 7.37 21.18-.61 6.82-2.43 11.77-7.12 16.83-.81.87-1.62 1.75-2.45 2.65-4.6 4.82-9.28 9.57-13.99 14.29-1.11 1.12-2.22 2.24-3.33 3.35-3.61 3.63-7.23 7.26-10.85 10.89-1.25 1.25-2.5 2.51-3.75 3.76-5.88 5.9-11.76 11.79-17.64 17.68-6.76 6.78-13.52 13.56-20.28 20.36a5851 5851 0 0 1-15.73 15.78c-3.13 3.13-6.26 6.27-9.38 9.41-2.93 2.96-5.86 5.9-8.81 8.83-1.08 1.08-2.15 2.16-3.22 3.24-8.01 8.11-14.66 13.63-26.4 14.41-10-.15-17.56-5.32-24.46-12.19-.49-.49-.98-.97-1.48-1.47-1.62-1.61-3.24-3.22-4.85-4.84-1.17-1.16-2.33-2.32-3.5-3.48-3.16-3.14-6.31-6.29-9.47-9.44l-5.91-5.91c-6.89-6.87-13.78-13.74-20.66-20.62a8698 8698 0 0 0-19.23-19.19c-5.52-5.49-11.04-11-16.54-16.5-3.29-3.29-6.58-6.57-9.87-9.85-3.1-3.08-6.19-6.17-9.28-9.26-1.13-1.14-2.26-2.26-3.4-3.39-8.23-8.16-14.04-14.84-14.85-26.79.23-9.3 3.41-15.51 9.84-22.18 6.33-5.6 13.33-7.55 21.63-7.4 16.14 1.54 26.69 16.03 37.44 26.83 1.29 1.29 2.58 2.57 3.86 3.86l10.05 10.08c3.43 3.44 6.87 6.88 10.3 10.31 6.71 6.73 13.42 13.45 20.13 20.18v-1.75c.04-34.28.09-68.56.18-102.84l.03-12.35v-2.49c.03-13.26.05-26.53.06-39.79.02-13.62.04-27.24.08-40.85.03-8.4.04-16.8.04-25.2 0-5.76.02-11.53.04-17.29.02-3.32.02-6.64.02-9.97-.01-3.61.01-7.22.03-10.82-.01-1.05-.01-2.09-.02-3.16.11-9.6 2.77-17.72 9.52-24.73 9.15-7.98 22.33-9.77 33.52-4.82"/><path fill="currentColor" d="M41.941 343.684c7.32 4.68 12.41 9.89 15.06 18.32.88 6.21.7 12.54.69 18.81.07 21.63 1.49 40.81 17.06 57.37 13.51 12.93 30.54 16.14 48.62 16.07 1.19 0 2.37.01 3.59.01 3.26.01 6.52 0 9.77 0 3.53-.01 7.05 0 10.58.01h20.68c5.6-.01 11.21-.01 16.81-.01h2.43c1.62.01 3.25.01 4.87.01 15.22 0 30.43 0 45.64-.01 13.04-.01 26.08-.01 39.11 0 15.16.01 30.33.01 45.49.01 1.62 0 3.24-.01 4.85-.01h2.42c5.59 0 11.19 0 16.78.01 6.82 0 13.65 0 20.47-.01h10.43c3.78.01 7.56 0 11.34-.01 1.62.01 1.62.01 3.29.01 17.69-.09 33.2-4.74 46.27-17.01 12.36-12.94 15.86-29.12 16.05-46.48.01-.81.01-1.62.02-2.45.03-3.35.05-6.7.04-10.05-.01-11.32.35-19.83 7.87-28.89 8.02-6.82 13.96-9.03 24.58-8.72 8.19.85 13.69 4.11 19.46 9.85 5.27 7.33 6.38 14.07 6.28 22.96.01 1.08.01 2.16.01 3.28q0 3.42-.03 6.84c-.03 3.43-.03 6.87-.01 10.31-.02 15.51-.97 30.03-6.59 44.66l-.91 2.4c-10.66 27.04-32.54 50.29-59.17 62.01-2.38.99-4.76 1.92-7.17 2.84-.71.28-1.43.55-2.17.84-16.86 6.08-33.95 5.79-51.62 5.74-3.81-.01-7.62 0-11.43.01q-11.16.015-22.32 0c-6.06 0-12.11-.01-18.16 0h-7.89c-16.44.01-32.88 0-49.32-.02-14.08-.01-28.15-.01-42.23.01-16.38.01-32.77.02-49.15.01h-7.86c-6.04-.01-12.08 0-18.12.01-7.37 0-14.74 0-22.1-.01-3.76-.01-7.51-.02-11.26-.01-17.81.05-34.7-.04-51.55-6.52-.8-.3-1.59-.6-2.4-.91-27-10.65-50.37-32.54-62.02-59.19-.98-2.39-1.92-4.79-2.83-7.21-.28-.73-.56-1.45-.85-2.2-5.35-14.91-5.87-29.48-5.84-45.16 0-3.53-.04-7.05-.09-10.57 0-2.27-.01-4.54-.01-6.81-.01-1.04-.03-2.08-.04-3.15.08-8.99 2.9-15.78 8.83-22.55 9.06-8.24 22.83-10.19 33.75-4.44"/></svg>