<svg xmlns="http://www.w3.org/2000/svg" width="512" height="512"><path fill="currentColor" d="M301.543 89.008c1.22.99 1.22.99 2.46 1.99.72.56 1.43 1.11 2.17 1.68 13.67 11.1 22.55 28.98 24.83 46.32 1.83 20.58-2.08 39.81-14.94 56.38-4.53 5.34-9.21 10.72-15.06 14.62.53.28 1.06.55 1.61.84 11.68 6.09 22.53 12.38 32.39 21.16l1.57 1.39c15.69 14.12 26.6 32.6 32.8 52.67.24.77.48 1.54.73 2.33 3.87 13.41 4.21 27.05 4.2 40.9 0 1.72.01 3.44.01 5.16.01 3.57.01 7.15 0 10.72 0 4.55.01 9.09.04 13.64.01 3.54.01 7.08.01 10.62 0 1.68.01 3.35.02 5.03.09 18.68-3.04 34.6-16.38 48.54-10.74 9.79-23.34 15.1-37.95 15.14-1.17.01-2.34.01-3.54.02h-3.84c-1.36.01-2.72.01-4.08.02-3.68.01-7.36.02-11.04.02-2.31.01-4.62.01-6.92.01q-10.845.03-21.69.03c-8.32.01-16.64.02-24.96.05-6.44.02-12.89.03-19.34.04-3.84 0-7.68 0-11.52.02-3.63.02-7.25.02-10.87.01q-2.91 0-5.82.03c-16.55-.08-31.09-4.34-43.18-15.99-10.49-11.19-15.39-24.75-15.41-40.03-.01-.74-.01-1.48-.02-2.24l-.03-7.33v-2.55q-.03-6.705-.03-13.41c-.01-4.56-.03-9.12-.06-13.69-.02-3.55-.03-7.1-.03-10.66 0-1.67-.01-3.35-.02-5.03-.26-34.99 10.48-66.57 35.22-91.83 11.15-10.92 24.44-18.34 38.13-25.63l-1.58-1.31c-15.28-12.83-25.5-28.76-28.42-48.69-1.53-23.05 3.18-43.82 18.65-61.54 26.07-28.27 71.34-33.16 101.89-9.45m-83.54 22.99c-10.49 12.65-16.44 26.42-15 43 2.41 15.28 9.86 27.64 21.87 37.31 11.84 8.33 24.91 11.1 39.13 9.69 14.8-2.96 26.74-10.65 35.81-22.75 8.37-12.67 11.04-26.82 8.12-41.62-3.87-15.34-12.66-26.44-25.93-34.63-20.91-10.21-47.23-8.82-64 9m-26 137-2.65 2.44c-20.37 19.55-28.58 44.45-29.47 72.11-.16 8.21-.17 16.41-.14 24.63.01 3.62 0 7.24-.01 10.87-.01 2.84-.01 5.67 0 8.51 0 1.97 0 3.95-.01 5.93.06 11.69.76 22.11 8.28 31.51 10.65 10.45 22.14 11.15 36.37 11.15 1.23 0 2.46 0 3.73.01 3.36.01 6.73.01 10.09.01h6.32c7.37.01 14.73.02 22.1.02 6.84 0 13.68.01 20.52.02 5.89.02 11.79.02 17.68.02 3.51 0 7.02 0 10.53.01 3.93.02 7.85.01 11.77.01 1.15 0 2.29.01 3.47.01 11.3-.04 21.36-1.02 30.42-8.26 10.91-11.11 11.15-23.2 11.16-38.01.01-1.38.01-2.76.02-4.14v-8.68c0-2.92.01-5.85.02-8.78.16-33.98-.77-66.1-25.2-92.39l-2.44-2.64c-18.48-19.26-41.5-27.43-67.56-29.36-24.1 0-47.33 8.58-65 25M453 117c13.92 10.85 23.43 24.52 27 42 .4 3.78.48 7.51.44 11.31-.01 1.51-.01 1.51-.03 3.04-.44 20.15-9.45 33.79-23.41 47.65.92.51 1.84 1.02 2.79 1.55C484.56 236.63 502.3 257.34 510 285c2.2 8.36 2.33 16.58 2.34 25.18 0 1.45.01 2.91.02 4.37.01 3.04.01 6.08.01 9.12 0 3.86.03 7.71.06 11.57.02 3.01.03 6.01.03 9.02 0 1.42.01 2.84.02 4.26.17 17.02-4.46 30.03-15.92 42.67-4.15 3.97-8.48 6.72-13.56 9.31-.64.33-1.28.65-1.94.99-9.83 4.66-19.93 4.82-30.64 4.81-1.39 0-2.77.01-4.16.01-2.89.01-5.77.01-8.66.01-3.69-.01-7.38.01-11.06.03-2.86.01-5.71.02-8.57.01-1.36 0-2.72.01-4.08.02-1.9.01-3.8 0-5.7-.01h-3.26c-4.12-.52-6.7-2.27-9.74-4.99-1.86-3.73-1.87-7.31-1.19-11.38 1.79-2.87 2.98-4.49 6-6 1.83-.11 3.66-.16 5.48-.17l3.49-.04 3.78-.04c1.96-.02 3.92-.05 5.88-.07 4.84-.06 9.68-.11 14.52-.16q4.065-.03 8.13-.09c2.55-.03 5.09-.06 7.64-.08 11.87-.16 22.83-1.21 31.83-9.6 5.79-6.14 8.34-12.91 8.43-21.27l.04-3.37c0-1.19.01-2.39.02-3.63l.02-3.76c.02-2.64.03-5.28.04-7.92 0-2.68.03-5.36.06-8.03.33-25.88.33-25.88-8.05-50.08-.34-.66-.69-1.32-1.04-2-9.11-16.83-24.37-28.57-42.35-34.75-2.63-.75-5.24-1.39-7.92-1.94-1.64-.34-1.64-.34-3.31-.69-13.57-1.15-26.51-.23-39.07 5.38-4.96 2.19-9.21 3.61-14.62 2.31-2.92-1.34-3.83-2.4-6-5-1.49-4.09-1.28-7.14.06-11.25 2.25-3.19 4.67-4.67 7.94-6.75-1.05-.95-1.05-.95-2.12-1.91-13.29-12.53-20.77-27.06-21.35-45.56-.2-19.04 4.74-34.16 18.1-48.22 22.42-21.86 57.13-26.4 83.37-8.31m-71.43 28.75c-6.99 10-8.46 20.3-7.57 32.25 1.63 7.85 4.67 14.04 10 20 .76.87 1.53 1.73 2.31 2.62 8.95 7.91 19.86 13.36 32.09 12.76 13.37-1.97 22.8-7.75 31.66-17.69 7.07-9.8 8.78-19.73 7.94-31.69-1.93-11.53-8.65-21.47-17.91-28.43A60 60 0 0 0 434 132l-1.88-.97c-18.55-7.79-38.3.11-50.55 14.72M133 117c13.92 10.85 23.43 24.52 27 42 .4 3.78.48 7.51.44 11.31-.01 1.51-.01 1.51-.03 3.04-.44 20.15-9.45 33.79-23.41 47.65.72.45.72.45 1.46.92 2.88 1.91 5.14 3.47 7.04 6.39.7 3.76.72 7.07-.5 10.69-2.57 3.09-4.11 4.55-7.98 5.48-5.92.41-10.42-1.8-15.72-4.17-17.67-7.03-37.24-5.6-54.61 1.44-6.11 2.79-11.44 6.07-16.69 10.25-.76.58-1.52 1.17-2.3 1.77C33.9 265.1 25.45 282.47 23 300c-.64 8.46-.58 16.95-.52 25.44.02 3.95 0 7.9-.03 11.85.01 2.53.01 5.07.02 7.61l-.03 3.53c.12 10.36 2.6 18.3 9.77 25.88 9.83 9.25 21.54 8.82 34.2 8.87 1.97.01 3.94.03 5.91.05 4.82.04 9.65.08 14.48.1 2.72 0 5.44.02 8.15.05 2.56.03 5.11.04 7.67.04 1.73.02 1.73.02 3.51.05l3.08.02c3.53.64 5.22 2.06 7.79 4.51 1.74 3.49 1.58 7.2 1 11-1.91 3.58-4.09 5.7-8 7-1.98.1-3.95.15-5.93.16l-3.71.03c-1.34.01-2.67.01-4.01.01-1.02.01-1.02.01-2.05.01-3.6.02-7.19.03-10.78.03-3.69.01-7.37.03-11.05.06-2.85.02-5.71.02-8.56.02-2.01.01-4.02.03-6.02.05-16.46-.04-30.62-4.46-42.64-16.03-9.13-9.5-15.31-20.37-15.43-33.78-.01-1.31-.02-2.62-.04-3.97 0-1.43-.01-2.86-.02-4.29 0-.73-.01-1.46-.01-2.2-.02-3.86-.04-7.72-.05-11.58-.01-3.94-.04-7.88-.08-11.81-.03-3.07-.03-6.13-.04-9.2q0-2.175-.03-4.35c-.32-26.11 9.86-49.75 27.76-68.6C35.64 232.64 44.92 226.49 55 221c-1.05-.95-1.05-.95-2.12-1.91-13.29-12.53-20.77-27.06-21.35-45.56-.2-19.04 4.74-34.16 18.1-48.22 22.42-21.86 57.13-26.4 83.37-8.31m-71.43 28.75c-6.99 10-8.46 20.3-7.57 32.25 1.63 7.85 4.67 14.04 10 20 .76.87 1.53 1.73 2.31 2.62 8.95 7.91 19.86 13.36 32.09 12.76 13.37-1.97 22.8-7.75 31.66-17.69 7.07-9.8 8.78-19.73 7.94-31.69-1.93-11.53-8.65-21.47-17.91-28.43A60 60 0 0 0 114 132l-1.88-.97c-18.55-7.79-38.3.11-50.55 14.72"/></svg>
