<svg xmlns="http://www.w3.org/2000/svg" width="512" height="512"><path fill="currentColor" d="M129.092 217.866c1.23 0 2.46-.01 3.73-.01h4.09c1.45-.01 2.91-.01 4.36-.01 3.98-.01 7.97-.02 11.96-.02 4.3 0 8.6-.01 12.91-.02 10.38-.02 20.77-.03 31.16-.04 4.9-.01 9.79-.01 14.69-.02 16.27-.01 32.55-.03 48.82-.04h15.85c16.99-.01 33.99-.04 50.98-.07 17.46-.03 34.91-.05 52.37-.05 9.8 0 19.59-.01 29.39-.04 8.35-.02 16.69-.03 25.04-.02 4.25.01 8.51 0 12.76-.02 3.9-.01 7.81-.01 11.71 0 1.4.01 2.81 0 4.21-.01 13.01-.1 24.6 2.16 34.88 10.5.62.51 1.25 1.01 1.89 1.52 7.1 6.36 11.67 15.68 12.38 25.14.04 1.42.07 2.85.1 4.28l.12 2.07c.2 12.42-7.65 24.77-13.08 35.63-.75 1.52-1.51 3.05-2.26 4.57-2.03 4.1-4.07 8.19-6.11 12.28-1.28 2.57-2.56 5.13-3.84 7.7-4.46 8.97-8.93 17.93-13.41 26.9-4.16 8.32-8.3 16.65-12.43 24.99-3.57 7.19-7.15 14.37-10.73 21.54-2.14 4.28-4.27 8.55-6.39 12.83-1.99 4.03-4 8.05-6.02 12.06-.73 1.47-1.46 2.94-2.18 4.41-6.51 13.24-14.13 24.59-28.48 29.83-9.01 3.04-18.94 2.4-28.31 2.39h-4.48c-4.09.01-8.17.01-12.26.01-4.41 0-8.83 0-13.24.01-8.64.01-17.28.01-25.92.01-7.02 0-14.04 0-21.07.01-19.92.01-39.84.01-59.77.01h-6.51c-17.42 0-34.83.01-52.25.02-17.9.02-35.8.02-53.69.02-10.05 0-20.09.01-30.13.02q-12.825.015-25.65 0c-4.36 0-8.72 0-13.08.01-4 0-7.99 0-11.99-.01-1.44 0-2.88 0-4.32.01-13.23.05-26.06-.48-36.44-9.64-4.1-4.57-7.98-10.4-8.45-16.62a71 71 0 0 1 3.38-7.59c.37-.74.73-1.48 1.11-2.24.79-1.59 1.58-3.17 2.38-4.75 1.7-3.35 3.36-6.72 5.03-10.09.84-1.7 1.69-3.4 2.53-5.1 3.49-7.02 6.81-14.1 10.07-21.23 5.38-11.72 11.01-23.31 16.67-34.9 4.89-9.99 9.69-20 14.33-30.1 5.8-12.62 11.85-25.11 17.96-37.58 3.35-6.85 6.69-13.7 9.92-20.6.49-1.06.99-2.11 1.5-3.19.87-1.87 1.74-3.75 2.6-5.63 5.98-12.79 14.43-21.9 27.72-27.09 4.7-1.52 8.95-2.03 13.89-2.04"/><path fill="currentColor" d="M29.622 57.853c1.15-.01 2.29-.01 3.47-.02 1.25 0 2.51-.01 3.8-.01 1.33-.01 2.67-.01 4-.02 4.39-.02 8.77-.03 13.15-.04 1.51-.01 3.02-.01 4.54-.01 7.1-.02 14.2-.04 21.31-.05 8.18 0 16.37-.03 24.56-.07 6.33-.03 12.67-.05 19.01-.05 3.78 0 7.56-.01 11.34-.04 3.56-.02 7.12-.02 10.68-.01 1.91 0 3.83-.02 5.75-.04 7.18.04 12.52.92 18.77 4.51 1.13.64 2.27 1.28 3.44 1.93 9.04 6.9 15.28 18.5 21.57 27.81 4.25 6.26 8.7 12.34 13.29 18.36 3.61 4.73 3.61 4.73 4.7 6.9h3q36.18.06 72.36.18c11.67.04 23.33.07 35 .09 10.17.01 20.34.04 30.51.08 5.38.02 10.76.04 16.14.04 5.07 0 10.14.02 15.22.05 1.85.01 3.71.01 5.57 0 12.6-.03 22.85.52 32.44 9.65 8.11 8.82 9.09 18.69 8.95 30.29v2.85c-.02 2.96-.04 5.93-.07 8.89-.01 2.03-.02 4.05-.02 6.08-.03 4.93-.06 9.86-.1 14.8h-2.08c-40.75.03-81.49.09-122.23.18-4.9.01-9.79.01-14.69.02-.97.01-1.95.01-2.95.01-15.77.03-31.53.05-47.3.06-16.18.01-32.37.04-48.55.08-9.99.03-19.97.04-29.95.04-6.85 0-13.7.01-20.55.04-3.95.01-7.9.02-11.85.01-3.62-.01-7.25 0-10.87.03-1.91.01-3.83 0-5.74-.02-12.29.13-24.08 2.93-33.24 11.55-7.17 7.6-11.2 16.98-15.63 26.31l-2.4 5.01c-5.1 10.62-10.08 21.29-15 32-4.52 9.79-9.23 19.49-13.97 29.18-5.94 12.14-11.77 24.32-17.42 36.6-5.39 11.7-10.97 23.3-16.58 34.9h-1c-.09-36.16-.16-72.31-.21-108.47 0-4.26-.01-8.53-.01-12.8v-2.58c-.02-13.76-.05-27.52-.09-41.27-.04-14.12-.06-28.24-.07-42.36 0-8.71-.02-17.42-.05-26.13-.02-5.98-.03-11.95-.03-17.93.01-3.45 0-6.89-.02-10.34-.02-3.74-.01-7.48 0-11.22-.01-1.08-.03-2.17-.04-3.28.08-9.66 2.96-16.75 9.52-23.83 6.11-5.48 12.51-7.91 20.62-7.94"/></svg>
