<svg xmlns="http://www.w3.org/2000/svg" width="512" height="512"><path fill="currentColor" d="m352.604-.508 3.98-.03c1.44 0 2.88.01 4.32.02 1.53-.01 3.06-.01 4.59-.02 4.14-.02 8.28-.01 12.42 0 4.34.01 8.67 0 13.01 0 7.28-.01 14.57 0 21.85.02 8.41.02 16.83.01 25.24-.01 7.24-.02 14.47-.02 21.7-.01 4.31.01 8.63.01 12.94-.01 4.06-.01 8.12 0 12.18.02 1.49.01 2.97.01 4.46 0 2.04-.01 4.07 0 6.1.02h3.45c5.26.84 8.16 3.3 11.5 7.35 1.87 3.56 2.16 5.72 2.16 9.72l.03 3.95-.03 4.3c0 1.52.01 3.04.01 4.56.02 4.11.01 8.22-.01 12.34q-.015 6.465 0 12.93c0 7.23-.01 14.47-.04 21.7-.02 8.36-.03 16.72-.01 25.09.01 8.04 0 16.09-.01 24.14-.01 3.43-.01 6.85 0 10.27 0 4.03-.01 8.07-.03 12.1-.01 1.47-.01 2.95 0 4.43q0 3.03-.03 6.06v3.43c-.52 4.24-1.99 7.61-4.88 10.78-4.46 3.47-7.6 4.73-13.31 4.64-5.45-.69-9.21-3.08-12.63-7.28-2.23-4.28-2.69-7.57-2.69-12.37 0-1.08-.01-2.17-.01-3.29 0-1.79 0-1.79.01-3.61-.01-1.88-.01-1.88-.01-3.8v-21.12c0-6.04 0-12.08.01-18.12 0-6.99 0-13.98-.01-20.97v-28.74c0-3.99 0-7.99.01-11.98 0-1.19-.01-2.38-.01-3.61 0-1.08.01-2.17.01-3.28v-2.86c.13-2.25.13-2.25 1.13-4.25-1.03 0-1.03 0-2.08.01-16.68.09-33.35.15-50.03.2-8.06.02-16.13.04-24.19.09-7.03.04-14.06.07-21.09.07-3.72.01-7.44.02-11.16.05-4.16.03-8.32.03-12.47.03-1.23.02-2.46.03-3.73.05-6.37-.04-10.45-.12-15.25-4.5-3.72-4.23-4.36-8.11-4.28-13.59.45-3.95 1.79-7.3 4.28-10.41 4.33-3.37 7.13-4.5 12.6-4.51m-336 0 3.98-.03c1.44 0 2.88.01 4.32.02 1.53-.01 3.06-.01 4.59-.02 4.14-.02 8.28-.01 12.42 0 4.34.01 8.67 0 13.01 0 7.28-.01 14.57 0 21.85.02 8.41.02 16.83.01 25.24-.01 7.24-.02 14.47-.02 21.7-.01 4.31.01 8.63.01 12.94-.01 4.06-.01 8.12 0 12.18.02 1.49.01 2.97.01 4.46 0 2.04-.01 4.07 0 6.1.02h3.45c4.86.78 7.92 3.37 11.47 6.63 2.46 4.19 2.87 8.06 2.69 12.88-1.65 5.9-4.2 8.52-9 12-2.58 1.29-4.41 1.12-7.29 1.12h-3.4c-1.24 0-2.48 0-3.75-.01h-3.93c-3.57 0-7.13 0-10.69-.01-3.73-.01-7.45-.01-11.17-.01-7.05 0-14.1-.01-21.15-.02-8.03-.01-16.06-.02-24.08-.02-16.52-.01-33.03-.03-49.54-.05v1.94c.05 15.61.08 31.22.1 46.82.01 7.55.02 15.1.05 22.65.02 6.58.03 13.17.03 19.75.01 3.48.01 6.96.03 10.45.01 3.89.01 7.79.01 11.69l.03 3.46c-.05 16.91-.05 16.91-4.63 22.74-4.99 4.75-8.97 4.94-15.71 4.81-3.97-.43-6.03-1.57-8.91-4.31-3.36-4.33-4.5-7.1-4.51-12.56-.01-1.3-.02-2.61-.04-3.95l.03-4.29c-.01-1.52-.01-3.03-.02-4.55-.02-4.11-.01-8.22 0-12.33.01-4.31 0-8.61-.01-12.92q0-10.845.03-21.69c.02-8.36.01-16.71-.01-25.06-.02-7.18-.02-14.36-.01-21.54 0-4.28 0-8.57-.01-12.85-.01-4.03 0-8.06.02-12.09.01-1.47 0-2.95 0-4.43-.08-14.2-.08-14.2 4.53-19.74 4.32-3.39 7.12-4.5 12.6-4.51M506.176 338.54c3.55 2.85 5.61 6.13 6.33 10.62v3.44c.01 1.32.02 2.63.04 3.98l-.03 4.33c.01 1.53.01 3.05.02 4.58.02 4.14.01 8.28 0 12.42-.01 4.34 0 8.68.01 13.01 0 7.29-.01 14.57-.02 21.85-.03 8.42-.02 16.83 0 25.25.02 7.23.02 14.46.01 21.69 0 4.32 0 8.63.01 12.95.01 4.06 0 8.12-.02 12.17-.01 1.49 0 2.98 0 4.47.02 2.03 0 4.06-.02 6.1v3.44c-.84 5.26-3.3 8.17-7.34 11.5-3.58 1.88-5.76 2.16-9.77 2.17l-3.98.03c-1.44 0-2.88-.01-4.32-.02-1.53 0-3.06.01-4.59.02-4.14.02-8.28.01-12.42 0-4.33-.01-8.67 0-13.01 0-7.28.01-14.57 0-21.85-.02-8.41-.02-16.83-.01-25.24.01-7.23.02-14.47.02-21.7.01-4.31-.01-8.63-.01-12.94.01-4.06.01-8.12 0-12.18-.02-1.49-.01-2.97-.01-4.46 0-2.03.01-4.07 0-6.1-.02-1.14 0-2.28 0-3.45-.01-5.01-.79-8.1-3.39-11.53-7-2.4-5.16-2.38-9.9-1.63-15.5 2.16-4.64 5.22-8.05 10-10 4.33-.58 8.63-.5 12.99-.45h3.96c3.57-.01 7.15.02 10.72.05 3.74.02 7.48.02 11.22.03 7.08.01 14.15.04 21.23.08 8.06.05 16.11.07 24.17.09 16.57.04 33.14.11 49.71.2 0-.68 0-1.37-.01-2.08-.09-16.67-.15-33.35-.19-50.02-.02-8.07-.05-16.13-.1-24.2-.04-7.03-.06-14.05-.07-21.08-.01-3.73-.02-7.45-.05-11.17-.03-4.15-.03-8.31-.03-12.47-.01-1.23-.03-2.46-.04-3.73.03-6.37.12-10.45 4.49-15.25 6.62-5.81 14.66-5.15 22.18-1.46M22 336c4.64 2.16 8.05 5.21 10 10 .58 4.33.51 8.62.45 12.98 0 1.31.01 2.62.01 3.97 0 3.57-.03 7.14-.05 10.72-.03 3.74-.03 7.48-.04 11.22-.01 7.07-.04 14.15-.08 21.22-.05 8.06-.07 16.12-.09 24.18-.04 16.57-.11 33.14-.2 49.71.69 0 1.37-.01 2.08-.01 16.67-.09 33.35-.16 50.02-.2 8.07-.02 16.13-.05 24.2-.09 7.03-.04 14.06-.07 21.09-.08 3.72 0 7.44-.01 11.16-.04 4.16-.04 8.31-.04 12.47-.03 1.23-.02 2.46-.03 3.73-.05 6.37.03 10.45.12 15.25 4.5 3.72 4.23 4.36 8.11 4.28 13.59-.46 3.95-1.79 7.3-4.28 10.41-4.33 3.37-7.13 4.5-12.6 4.51l-3.98.03c-1.44-.01-2.88-.01-4.33-.02-1.52 0-3.05.01-4.58.02-4.14.02-8.28.01-12.42 0-4.34-.01-8.68 0-13.01 0-7.29.01-14.57 0-21.85-.02-8.42-.02-16.83-.01-25.25.01-7.23.02-14.46.02-21.69.01-4.32-.01-8.63-.01-12.95.01-4.06.01-8.11 0-12.17-.02-1.49-.01-2.98-.01-4.46 0-2.04.01-4.07 0-6.11-.02-1.13 0-2.27-.01-3.44-.01-5.26-.83-8.17-3.3-11.5-7.34-1.87-3.57-2.16-5.75-2.17-9.76l-.03-3.98c.01-1.44.01-2.88.02-4.33 0-1.52-.01-3.05-.02-4.58-.02-4.14-.01-8.28 0-12.42.01-4.34 0-8.68 0-13.01-.01-7.29 0-14.57.02-21.85.02-8.42.01-16.83-.01-25.25-.02-7.23-.02-14.46-.01-21.69.01-4.32.01-8.63-.01-12.95-.01-4.06 0-8.11.02-12.17.01-1.49.01-2.98 0-4.46-.01-2.04 0-4.07.02-6.11 0-1.7 0-1.7.01-3.44.8-5.01 3.39-8.11 7-11.54 5.17-2.39 9.9-2.37 15.5-1.62"/></svg>