<svg xmlns="http://www.w3.org/2000/svg" width="512" height="512"><path fill="currentColor" d="M302.982 233.86c.81 0 1.62-.01 2.46-.01 2.71-.01 5.43-.01 8.15-.01 1.95-.01 3.9-.01 5.85-.02 5.29-.01 10.59-.02 15.88-.02 3.31 0 6.62-.01 9.93-.01l31.06-.03c11.95 0 23.9-.02 35.85-.05 9.24-.02 18.47-.03 27.71-.03 5.52 0 11.03-.01 16.55-.03 5.19-.01 10.38-.02 15.57-.01 1.91 0 3.81 0 5.71-.01 2.6-.01 5.21-.01 7.81 0l2.27-.02c6.61.06 12.91 1.71 18.03 6.14.54.45 1.09.9 1.65 1.36 4.77 5.85 4.97 11.82 4.93 19.06 0 1.51 0 1.51.01 3.05.02 3.38.01 6.75 0 10.12.01 2.42.01 4.85.02 7.27.02 5.89.02 11.78.02 17.67-.01 4.78-.01 9.57 0 14.36v2.07c0 1.39 0 2.77.01 4.16.01 12.99 0 25.98-.01 38.97-.01 11.88.01 23.75.03 35.63.02 12.2.03 24.41.03 36.61-.01 6.85 0 13.7.01 20.55.02 6.43.01 12.87 0 19.31-.01 2.36-.01 4.73.01 7.09.01 3.23 0 6.45-.02 9.68.01 1.4.01 1.4.03 2.83-.08 6.92-1.6 12.5-6.57 17.52a194.488 194.488 0 0 0-4.06 2.81c-4.2 2.5-8.27 2.28-13 2.28-.83 0-1.67 0-2.53.01-2.81.01-5.61.01-8.42.02-2.01 0-4.02.01-6.03.02-5.46.01-10.93.03-16.39.03-3.41.01-6.83.01-10.24.02-10.68.02-21.36.03-32.03.04-12.33.01-24.66.04-36.99.08-9.53.03-19.06.04-28.58.05-5.7 0-11.39.01-17.08.03-5.35.03-10.71.03-16.06.02-1.97 0-3.93.01-5.9.02-2.68.02-5.36.01-8.05 0-1.16.01-1.16.01-2.35.03-6.28-.07-10.45-1.98-15.18-6.27-.46-.55-.91-1.11-1.38-1.69-.48-.55-.95-1.11-1.43-1.68-3.64-5.41-3.55-10.42-3.52-16.73-.01-1-.01-2-.01-3.03-.01-3.36-.01-6.71-.01-10.07 0-2.4-.01-4.8-.01-7.21-.01-5.85-.02-11.7-.01-17.55 0-4.76 0-9.52-.01-14.28v-6.18c-.01-12.9-.01-25.8-.01-38.7.01-11.8 0-23.6-.02-35.4q-.03-18.18-.03-36.36c.01-6.8 0-13.61-.01-20.41-.01-6.4-.01-12.79 0-19.19 0-2.35 0-4.7-.01-7.05-.01-3.2 0-6.41.01-9.61 0-.93-.01-1.86-.02-2.82.07-7.71 1.86-13.6 7.4-19.29 6.31-4.38 11.46-5.15 18.98-5.14M23.096-.147c.83 0 1.67-.01 2.53-.01 2.81-.01 5.61-.02 8.42-.02 2.01-.01 4.02-.01 6.03-.02 5.46-.02 10.93-.03 16.39-.04 3.42 0 6.83-.01 10.24-.01 10.68-.02 21.36-.04 32.03-.05 12.33 0 24.66-.03 36.99-.07 9.53-.03 19.06-.05 28.59-.05 5.69 0 11.38-.01 17.07-.04 5.36-.02 10.71-.02 16.06-.01 1.97 0 3.93-.01 5.9-.02 2.68-.02 5.37-.01 8.05 0l2.35-.03c6.28.07 10.46 1.98 15.18 6.26l1.39 1.69 1.42 1.69c3.64 5.41 3.55 10.42 3.52 16.73.01 1 .01 2 .02 3.03.01 3.36 0 6.71 0 10.06 0 2.41.01 4.81.01 7.21.02 5.86.02 11.71.02 17.56-.01 4.76 0 9.52 0 14.27v2.06c0 1.37 0 2.75.01 4.12.01 12.91 0 25.81 0 38.71-.01 11.8 0 23.6.02 35.4q.03 18.18.03 36.36c0 6.8 0 13.6.01 20.41.02 6.39.01 12.79 0 19.19 0 2.35 0 4.69.01 7.04.01 3.21 0 6.41-.01 9.62.01.93.01 1.86.02 2.81-.06 7.72-1.86 13.61-7.4 19.3-6.31 4.38-11.46 5.15-18.98 5.14-1.21 0-1.21 0-2.45.01-2.72.01-5.44.01-8.16.01-1.95 0-3.9.01-5.85.01-5.29.02-10.59.02-15.88.03-3.31 0-6.62 0-9.93.01l-31.06.03c-11.95 0-23.9.02-35.85.05-9.23.02-18.47.03-27.71.03-5.52 0-11.03.01-16.55.02-5.19.02-10.38.02-15.57.01-1.9 0-3.81.01-5.71.02-2.6.01-5.2.01-7.81-.01-1.12.02-1.12.02-2.26.03-6.62-.06-12.92-1.71-18.04-6.14-.54-.45-1.08-.9-1.64-1.36-4.78-5.85-4.98-11.82-4.93-19.06-.01-1.01-.01-2.02-.02-3.06q-.015-5.055 0-10.11c-.01-2.43-.01-4.85-.02-7.27-.02-5.89-.02-11.78-.01-17.67 0-4.79 0-9.58-.01-14.36v-6.23c-.02-12.99-.01-25.98 0-38.97.01-11.88 0-23.75-.03-35.63-.02-12.2-.03-24.41-.02-36.61 0-6.85 0-13.7-.02-20.55-.02-6.44-.01-12.88.01-19.31 0-2.37 0-4.73-.01-7.09-.02-3.23-.01-6.45.01-9.68l-.03-2.83c.08-6.92 1.6-12.5 6.57-17.52.67-.46 1.34-.91 2.03-1.38.67-.47 1.34-.95 2.03-1.43 4.21-2.5 8.27-2.28 13-2.28M23.096 319.853c.83 0 1.67-.01 2.53-.01 2.81-.01 5.61-.02 8.42-.02 2.01-.01 4.02-.01 6.03-.02 5.46-.02 10.93-.03 16.39-.04 3.42 0 6.83-.01 10.24-.01 10.68-.02 21.36-.04 32.03-.05 12.33 0 24.66-.03 36.99-.07 9.53-.03 19.06-.05 28.59-.05 5.69 0 11.38-.01 17.07-.04 5.36-.02 10.71-.02 16.06-.01 1.97 0 3.93-.01 5.9-.02 2.68-.02 5.37-.01 8.05 0l2.35-.03c6.28.07 10.46 1.98 15.18 6.26l1.39 1.69 1.42 1.69c2.96 4.4 3.52 8.25 3.53 13.5.01.65.01 1.3.01 1.97.02 2.18.02 4.36.01 6.54.01 1.56.02 3.12.02 4.69.02 4.24.03 8.49.03 12.73 0 2.65 0 5.31.01 7.96.02 9.26.03 18.52.02 27.78 0 8.63.02 17.25.06 25.88q.03 11.115.03 22.23c0 4.43.01 8.85.03 13.27.02 4.17.02 8.33 0 12.49 0 1.52.01 3.05.02 4.57.07 9.23-.11 16.34-6.54 23.54-.67.55-1.34 1.1-2.03 1.66-.67.57-1.34 1.14-2.03 1.72-4.05 2.87-8.25 2.5-13 2.49-.83.01-1.66.01-2.52.02-2.81.01-5.61.01-8.42.01-2.01.01-4.01.02-6.02.02-5.46.02-10.92.03-16.38.04-3.41.01-6.83.01-10.24.02-10.67.02-21.34.03-32.01.04-12.33.01-24.65.04-36.97.08-9.52.03-19.04.04-28.56.04-5.69.01-11.38.02-17.07.04-5.35.02-10.7.03-16.05.02-1.97 0-3.93 0-5.89.02-2.68.02-5.37.01-8.05-.01l-2.34.04c-6.43-.08-11.82-1.99-16.44-6.56-.46-.67-.91-1.34-1.38-2.03l-1.44-2.03c-2.26-3.81-2.26-7.02-2.27-11.36-.01-.66-.01-1.32-.01-2-.02-2.21-.02-4.42-.02-6.63-.01-1.58-.02-3.16-.02-4.75-.02-5.2-.03-10.41-.04-15.61-.01-1.79-.01-3.59-.02-5.38-.02-8.42-.03-16.84-.04-25.27-.01-9.71-.03-19.43-.07-29.15-.04-7.51-.05-15.03-.05-22.54-.01-4.48-.01-8.97-.04-13.46-.02-4.22-.03-8.44-.02-12.67 0-1.54 0-3.09-.02-4.63-.06-8.03-.09-14.58 4.49-21.45 2.04-2.06 2.04-2.06 4.07-3.44.67-.47 1.34-.95 2.03-1.43 4.21-2.5 8.27-2.28 13-2.28M300.09-.147c.83 0 1.67-.01 2.53-.01 2.8-.01 5.61-.02 8.41-.02 2.01-.01 4.02-.01 6.02-.02 5.46-.02 10.93-.03 16.39-.04 3.41 0 6.82-.01 10.23-.01 10.67-.02 21.35-.04 32.02-.05 12.32 0 24.64-.03 36.96-.07 9.52-.03 19.05-.05 28.57-.05 5.69 0 11.37-.01 17.06-.04 5.35-.02 10.71-.02 16.06-.01 1.96 0 3.92-.01 5.89-.02 2.68-.02 5.36-.01 8.05 0l2.34-.03c6.42.07 11.81 1.98 16.44 6.55.45.67.91 1.34 1.38 2.03.47.67.94 1.34 1.43 2.03 2.26 3.81 2.26 7.03 2.28 11.36 0 .66.01 1.32.01 2 .01 2.21.01 4.42.02 6.63 0 1.59.01 3.17.02 4.75.02 5.21.03 10.41.04 15.62 0 1.79.01 3.58.01 5.37.02 8.43.03 16.85.04 25.27.01 9.72.04 19.44.08 29.15.03 7.52.04 15.03.05 22.54 0 4.49.01 8.98.03 13.46.03 4.22.03 8.45.02 12.67 0 1.55.01 3.09.02 4.64.07 8.02.09 14.58-4.49 21.45-2.03 2.06-2.03 2.06-4.06 3.43-.67.48-1.35.95-2.04 1.44-4.2 2.49-8.27 2.28-13 2.27-.83.01-1.67.01-2.53.02-2.8.01-5.61.01-8.42.01-2.01.01-4.01.02-6.02.02-5.47.02-10.93.03-16.4.04-3.41.01-6.83.01-10.24.02-10.68.02-21.35.03-32.03.04-12.33.01-24.66.04-36.99.08-9.53.03-19.05.04-28.58.04-5.69.01-11.38.02-17.08.04-5.35.02-10.71.03-16.06.02-1.96 0-3.93 0-5.89.02-2.69.02-5.37.01-8.06-.01-.77.02-1.55.03-2.34.04-6.29-.08-10.46-1.99-15.19-6.27-.45-.56-.91-1.12-1.38-1.69-.47-.56-.94-1.11-1.43-1.68-2.95-4.4-3.51-8.26-3.53-13.5 0-.66-.01-1.31-.01-1.98-.01-2.18-.01-4.35-.01-6.53-.01-1.57-.01-3.13-.02-4.69-.02-4.25-.02-8.49-.02-12.74-.01-2.65-.01-5.3-.02-7.95-.01-9.27-.02-18.53-.02-27.79 0-8.62-.02-17.25-.05-25.87-.03-7.41-.04-14.83-.04-22.24 0-4.42 0-8.85-.02-13.27-.02-4.16-.02-8.32-.01-12.49 0-1.52 0-3.04-.01-4.57-.07-9.22.1-16.34 6.54-23.54.66-.55 1.33-1.1 2.02-1.66.67-.57 1.35-1.13 2.04-1.72 4.05-2.86 8.24-2.49 12.99-2.49"/></svg>
