<?xml version="1.0" encoding="UTF-8"?>
<!-- Generator: visioncortex VTracer 0.6.3 -->
<svg version="1.1" xmlns="http://www.w3.org/2000/svg" width="512" height="512">
<path d="M0 0 C1.63 -0 3.27 -0.01 4.9 -0.02 C9.36 -0.03 13.82 -0.03 18.28 -0.02 C23.1 -0.01 27.92 -0.03 32.74 -0.04 C42.17 -0.05 51.6 -0.06 61.03 -0.05 C68.7 -0.05 76.37 -0.05 84.04 -0.05 C85.68 -0.05 85.68 -0.05 87.36 -0.05 C89.58 -0.06 91.8 -0.06 94.02 -0.06 C114.83 -0.07 135.64 -0.07 156.45 -0.06 C175.47 -0.05 194.49 -0.06 213.51 -0.08 C233.06 -0.11 252.61 -0.12 272.16 -0.11 C283.13 -0.11 294.1 -0.11 305.07 -0.13 C314.4 -0.14 323.74 -0.14 333.08 -0.12 C337.84 -0.12 342.6 -0.11 347.36 -0.13 C351.72 -0.14 356.09 -0.14 360.45 -0.12 C362.02 -0.12 363.59 -0.12 365.16 -0.13 C385.88 -0.26 403.34 5.92 418.62 20.39 C423.83 25.73 427.54 31.67 430.94 38.26 C431.43 39.2 431.43 39.2 431.92 40.15 C437.37 51.28 438.06 62.59 438.01 74.76 C438.02 76.4 438.02 78.03 438.03 79.66 C438.04 84.12 438.04 88.58 438.03 93.04 C438.03 97.86 438.04 102.68 438.05 107.5 C438.07 116.93 438.07 126.36 438.06 135.8 C438.06 143.47 438.06 151.14 438.06 158.81 C438.07 159.9 438.07 160.99 438.07 162.12 C438.07 164.34 438.07 166.56 438.07 168.78 C438.09 189.59 438.08 210.4 438.07 231.21 C438.06 250.23 438.07 269.25 438.1 288.27 C438.12 307.83 438.13 327.38 438.12 346.93 C438.12 357.9 438.12 368.86 438.14 379.83 C438.15 389.17 438.15 398.51 438.14 407.84 C438.13 412.6 438.13 417.36 438.14 422.12 C438.16 426.49 438.15 430.85 438.13 435.22 C438.13 436.79 438.13 438.36 438.14 439.93 C438.27 460.65 432.1 478.1 417.62 493.39 C412.28 498.6 406.34 502.3 399.75 505.7 C398.81 506.19 398.81 506.19 397.86 506.69 C386.73 512.14 375.41 512.83 363.23 512.77 C361.59 512.77 359.96 512.78 358.32 512.78 C353.86 512.8 349.39 512.79 344.93 512.78 C340.1 512.77 335.28 512.78 330.45 512.79 C321.01 512.81 311.56 512.8 302.12 512.79 C294.44 512.79 286.77 512.79 279.09 512.79 C277.99 512.79 276.9 512.79 275.77 512.79 C273.55 512.79 271.33 512.79 269.11 512.79 C248.28 512.8 227.46 512.79 206.63 512.78 C188.77 512.76 170.92 512.76 153.06 512.78 C132.31 512.79 111.55 512.8 90.8 512.79 C88.59 512.79 86.37 512.79 84.16 512.79 C82.53 512.79 82.53 512.79 80.86 512.79 C73.19 512.79 65.53 512.79 57.86 512.8 C48.52 512.8 39.17 512.8 29.83 512.79 C25.06 512.78 20.3 512.78 15.53 512.79 C11.17 512.79 6.8 512.79 2.43 512.77 C0.86 512.77 -0.72 512.77 -2.29 512.78 C-14.49 512.83 -25.51 511.44 -36.44 505.76 C-37.11 505.42 -37.79 505.07 -38.48 504.71 C-51.69 497.69 -60.89 487.7 -67.69 474.51 C-68.18 473.58 -68.18 473.58 -68.68 472.62 C-74.13 461.5 -74.81 450.19 -74.76 438.01 C-74.77 436.38 -74.77 434.75 -74.78 433.11 C-74.79 428.65 -74.79 424.19 -74.78 419.74 C-74.78 414.92 -74.79 410.1 -74.8 405.28 C-74.82 395.84 -74.82 386.41 -74.81 376.98 C-74.81 369.31 -74.81 361.64 -74.82 353.97 C-74.82 352.88 -74.82 351.78 -74.82 350.66 C-74.82 348.44 -74.82 346.22 -74.82 343.99 C-74.84 323.18 -74.83 302.37 -74.82 281.56 C-74.81 262.54 -74.82 243.52 -74.85 224.5 C-74.87 204.95 -74.88 185.4 -74.87 165.85 C-74.87 154.88 -74.87 143.91 -74.89 132.94 C-74.91 123.61 -74.91 114.27 -74.89 104.93 C-74.88 100.17 -74.88 95.41 -74.89 90.65 C-74.91 86.29 -74.9 81.92 -74.88 77.56 C-74.88 75.99 -74.88 74.42 -74.89 72.85 C-75.02 52.13 -68.85 34.67 -54.38 19.39 C-49.03 14.18 -43.09 10.47 -36.5 7.08 C-35.88 6.75 -35.25 6.42 -34.61 6.09 C-23.49 0.64 -12.18 -0.05 0 0 Z M34.66 110.05 C25.19 120.92 22.69 132.41 23.43 146.35 C24.52 157.73 31.7 167.44 40.2 174.6 C49.16 181.21 59.49 184.51 70.62 183.39 C79.04 182.03 85.63 179.22 92.62 174.39 C93.95 173.52 93.95 173.52 95.31 172.64 C104.09 164.1 109.58 152.67 109.94 140.39 C109.78 127.59 104.37 117.34 95.87 108.14 C78.31 91.25 51.66 93.95 34.66 110.05 Z M206.4 218.66 C203.58 221.78 200.96 224.89 198.62 228.39 C198.62 227.81 198.62 227.23 198.61 226.63 C198.58 223.99 198.51 221.34 198.44 218.7 C198.43 217.79 198.43 216.88 198.42 215.94 C198.27 211.28 198.16 209.06 195.2 205.31 C191.69 202.69 190.02 202.26 185.7 202.23 C184.68 202.22 183.65 202.21 182.6 202.2 C181.49 202.19 180.37 202.19 179.23 202.18 C177.52 202.18 177.52 202.18 175.78 202.17 C173.36 202.16 170.95 202.15 168.53 202.15 C164.84 202.14 161.14 202.11 157.45 202.08 C155.11 202.07 152.76 202.06 150.42 202.06 C149.31 202.05 148.21 202.03 147.07 202.02 C146.03 202.03 145 202.03 143.93 202.03 C143.03 202.03 142.12 202.02 141.19 202.02 C138.04 202.47 136.19 203.53 133.62 205.39 C131.13 209.13 131.34 212.05 131.35 216.38 C131.34 217.21 131.34 218.03 131.33 218.88 C131.32 221.65 131.32 224.42 131.32 227.19 C131.31 229.17 131.3 231.16 131.29 233.14 C131.27 238.53 131.26 243.92 131.26 249.32 C131.25 252.68 131.25 256.05 131.24 259.42 C131.22 271.16 131.2 282.9 131.2 294.64 C131.2 305.6 131.17 316.55 131.12 327.5 C131.09 336.9 131.07 346.3 131.07 355.69 C131.07 361.31 131.06 366.93 131.03 372.54 C131.01 377.82 131.01 383.1 131.02 388.38 C131.02 390.32 131.02 392.26 131 394.2 C130.98 396.85 130.99 399.49 131.01 402.14 C131 402.91 130.98 403.68 130.97 404.47 C131.03 408.48 131.47 410.2 134.04 413.35 C137.86 416.36 140.64 416.51 145.39 416.55 C146.33 416.56 147.27 416.57 148.24 416.58 C149.76 416.58 149.76 416.58 151.3 416.59 C152.87 416.6 152.87 416.6 154.47 416.61 C156.68 416.62 158.89 416.62 161.1 416.63 C164.48 416.64 167.85 416.67 171.23 416.7 C173.38 416.71 175.53 416.71 177.68 416.72 C179.19 416.73 179.19 416.73 180.73 416.75 C186.09 416.74 190.06 416.54 194.62 413.39 C197.24 410.48 198 408.65 198 404.76 C198 403.84 198.01 402.91 198.02 401.96 C198.01 400.95 198 399.94 197.99 398.91 C198 397.84 198 396.77 198 395.67 C198.01 393.35 198.01 391.03 198 388.71 C198 385.03 198.01 381.34 198.02 377.66 C198.06 367.18 198.06 356.7 198.06 346.23 C198.06 339.82 198.08 333.41 198.11 326.99 C198.12 323.39 198.11 319.78 198.1 316.17 C198.12 297.82 199.48 279.33 212.6 265.15 C221.35 257.56 231.5 256.69 242.62 257.39 C250.71 258.72 257.34 262.07 262.35 268.65 C269.55 279.93 270.77 291.59 270.78 304.66 C270.79 305.77 270.79 306.89 270.8 308.04 C270.81 310.45 270.82 312.86 270.82 315.27 C270.84 319.09 270.85 322.9 270.88 326.72 C270.94 337.57 270.99 348.41 271.03 359.26 C271.05 365.9 271.08 372.54 271.13 379.18 C271.14 381.72 271.15 384.25 271.15 386.78 C271.16 390.31 271.18 393.84 271.21 397.37 C271.2 398.42 271.2 399.47 271.2 400.55 C271.23 407.48 271.23 407.48 274.62 413.39 C277.99 415.63 279.17 415.65 283.12 415.69 C284.24 415.71 285.37 415.73 286.53 415.74 C287.74 415.75 288.96 415.75 290.21 415.76 C291.46 415.77 292.71 415.78 294 415.79 C296.64 415.8 299.28 415.81 301.93 415.81 C305.31 415.82 308.69 415.86 312.07 415.9 C315.31 415.94 318.54 415.94 321.77 415.95 C322.98 415.97 324.2 415.99 325.44 416.01 C326.58 416 327.71 415.99 328.87 415.99 C329.86 415.99 330.86 416 331.88 416 C335.98 415.08 337.26 413.88 339.62 410.39 C340.36 406.4 340.29 402.46 340.24 398.42 C340.25 396.6 340.25 396.6 340.26 394.74 C340.27 391.41 340.25 388.09 340.23 384.76 C340.21 381.25 340.22 377.75 340.22 374.24 C340.22 368.34 340.2 362.44 340.17 356.53 C340.13 349.76 340.12 343 340.13 336.23 C340.13 329.67 340.12 323.12 340.1 316.56 C340.1 313.8 340.09 311.03 340.09 308.27 C340.08 278.88 339.48 244.62 318.62 221.39 C317.98 220.65 317.34 219.92 316.67 219.16 C304.97 206.6 288.14 200.09 271.09 199.27 C247.77 198.6 223.39 200.51 206.4 218.66 Z M34.62 206.39 C32.62 211.07 32.34 215.42 32.36 220.43 C32.36 221.23 32.36 222.02 32.35 222.84 C32.34 225.49 32.35 228.13 32.35 230.78 C32.35 232.68 32.34 234.59 32.33 236.49 C32.32 241.65 32.32 246.81 32.32 251.97 C32.32 256.28 32.32 260.59 32.31 264.9 C32.3 275.07 32.3 285.23 32.31 295.4 C32.31 305.88 32.3 316.37 32.28 326.86 C32.26 335.86 32.26 344.87 32.26 353.87 C32.26 359.25 32.26 364.63 32.25 370.01 C32.23 375.06 32.24 380.12 32.25 385.18 C32.25 387.03 32.25 388.89 32.24 390.74 C32.23 393.28 32.24 395.81 32.25 398.34 C32.24 399.07 32.24 399.81 32.23 400.56 C32.28 405.24 33.19 408.41 35.62 412.39 C39.43 415.95 43.11 416.5 48.19 416.55 C49.09 416.56 49.99 416.57 50.91 416.58 C52.36 416.58 52.36 416.58 53.83 416.59 C54.83 416.6 55.83 416.6 56.86 416.61 C58.97 416.62 61.08 416.62 63.19 416.63 C66.41 416.64 69.63 416.67 72.85 416.7 C74.91 416.71 76.96 416.71 79.02 416.72 C79.98 416.73 80.93 416.74 81.92 416.75 C87.58 416.73 91.71 416.3 96.62 413.39 C99.91 409.24 100.05 405.4 100.01 400.3 C100.01 399.49 100.01 398.68 100.02 397.85 C100.03 395.14 100.02 392.43 100.01 389.72 C100.02 387.78 100.02 385.84 100.03 383.89 C100.04 378.62 100.04 373.34 100.03 368.06 C100.02 362.54 100.03 357.02 100.03 351.5 C100.04 342.23 100.03 332.96 100.02 323.69 C100 312.97 100 302.25 100.02 291.53 C100.03 282.33 100.04 273.13 100.03 263.92 C100.02 258.43 100.02 252.93 100.03 247.43 C100.04 242.26 100.04 237.1 100.02 231.93 C100.01 230.03 100.02 228.13 100.02 226.24 C100.03 223.65 100.02 221.06 100.01 218.47 C100.01 217.72 100.02 216.97 100.03 216.19 C99.98 211.74 99.33 208.95 96.62 205.39 C91.97 201.18 86.11 201.94 80.19 201.95 C78.52 201.95 78.52 201.95 76.82 201.94 C74.48 201.93 72.13 201.93 69.79 201.94 C66.2 201.95 62.62 201.92 59.04 201.89 C56.75 201.89 54.47 201.89 52.19 201.89 C50.59 201.87 50.59 201.87 48.95 201.86 C43.1 201.91 39.03 202.09 34.62 206.39 Z " fill="#000000" transform="translate(74.37580871582031,-0.3876800537109375)"/>
</svg>
