<svg xmlns="http://www.w3.org/2000/svg" width="512" height="512"><path fill="currentColor" d="M74.376-.388c1.63 0 3.27-.01 4.9-.02q6.69-.015 13.38 0c4.82.01 9.64-.01 14.46-.02 9.43-.01 18.86-.02 28.29-.01h26.33c2.22-.01 4.44-.01 6.66-.01q31.215-.015 62.43 0c19.02.01 38.04 0 57.06-.02q29.325-.045 58.65-.03c10.97 0 21.94 0 32.91-.02 9.33-.01 18.67-.01 28.01.01 4.76 0 9.52.01 14.28-.01 4.36-.01 8.73-.01 13.09.01 1.57 0 3.14 0 4.71-.01 20.72-.13 38.18 6.05 53.46 20.52 5.21 5.34 8.92 11.28 12.32 17.87.49.94.49.94.98 1.89 5.45 11.13 6.14 22.44 6.09 34.61.01 1.64.01 3.27.02 4.9q.015 6.69 0 13.38c0 4.82.01 9.64.02 14.46.02 9.43.02 18.86.01 28.3v23.01c.01 1.09.01 2.18.01 3.31v6.66c.02 20.81.01 41.62 0 62.43q-.015 28.53.03 57.06c.02 19.56.03 39.11.02 58.66 0 10.97 0 21.93.02 32.9.01 9.34.01 18.68 0 28.01q-.015 7.14 0 14.28c.02 4.37.01 8.73-.01 13.1 0 1.57 0 3.14.01 4.71.13 20.72-6.04 38.17-20.52 53.46-5.34 5.21-11.28 8.91-17.87 12.31-.94.49-.94.49-1.89.99-11.13 5.45-22.45 6.14-34.63 6.08-1.64 0-3.27.01-4.91.01-4.46.02-8.93.01-13.39 0-4.83-.01-9.65 0-14.48.01-9.44.02-18.89.01-28.33 0h-33.01c-20.83.01-41.65 0-62.48-.01-17.86-.02-35.71-.02-53.57 0-20.75.01-41.51.02-62.26.01h-9.94c-7.67 0-15.33 0-23 .01-9.34 0-18.69 0-28.03-.01-4.77-.01-9.53-.01-14.3 0-4.36 0-8.73 0-13.1-.02-1.57 0-3.15 0-4.72.01-12.2.05-23.22-1.34-34.15-7.02q-1.005-.51-2.04-1.05c-13.21-7.02-22.41-17.01-29.21-30.2-.49-.93-.49-.93-.99-1.89-5.45-11.12-6.13-22.43-6.08-34.61-.01-1.63-.01-3.26-.02-4.9-.01-4.46-.01-8.92 0-13.37 0-4.82-.01-9.64-.02-14.46-.02-9.44-.02-18.87-.01-28.3 0-7.67 0-15.34-.01-23.01v-9.98c-.02-20.81-.01-41.62 0-62.43q.015-28.53-.03-57.06c-.02-19.55-.03-39.1-.02-58.65 0-10.97 0-21.94-.02-32.91-.02-9.33-.02-18.67 0-28.01q.015-7.14 0-14.28c-.02-4.36-.01-8.73.01-13.09 0-1.57 0-3.14-.01-4.71-.13-20.72 6.04-38.18 20.51-53.46 5.35-5.21 11.29-8.92 17.88-12.31q.93-.495 1.89-.99c11.12-5.45 22.43-6.14 34.61-6.09m34.66 110.05c-9.47 10.87-11.97 22.36-11.23 36.3 1.09 11.38 8.27 21.09 16.77 28.25 8.96 6.61 19.29 9.91 30.42 8.79 8.42-1.36 15.01-4.17 22-9 1.33-.87 1.33-.87 2.69-1.75 8.78-8.54 14.27-19.97 14.63-32.25-.16-12.8-5.57-23.05-14.07-32.25-17.56-16.89-44.21-14.19-61.21 1.91m171.74 108.61c-2.82 3.12-5.44 6.23-7.78 9.73 0-.58 0-1.16-.01-1.76-.03-2.64-.1-5.29-.17-7.93-.01-.91-.01-1.82-.02-2.76-.15-4.66-.26-6.88-3.22-10.63-3.51-2.62-5.18-3.05-9.5-3.08l-3.1-.03c-1.11-.01-2.23-.01-3.37-.02-1.71 0-1.71 0-3.45-.01-2.42-.01-4.83-.02-7.25-.02-3.69-.01-7.39-.04-11.08-.07-2.34-.01-4.69-.02-7.03-.02-1.11-.01-2.21-.03-3.35-.04-1.04.01-2.07.01-3.14.01-.9 0-1.81-.01-2.74-.01-3.15.45-5 1.51-7.57 3.37-2.49 3.74-2.28 6.66-2.27 10.99-.01.83-.01 1.65-.02 2.5-.01 2.77-.01 5.54-.01 8.31l-.03 5.95c-.02 5.39-.03 10.78-.03 16.18-.01 3.36-.01 6.73-.02 10.1-.02 11.74-.04 23.48-.04 35.22 0 10.96-.03 21.91-.08 32.86-.03 9.4-.05 18.8-.05 28.19 0 5.62-.01 11.24-.04 16.85-.02 5.28-.02 10.56-.01 15.84 0 1.94 0 3.88-.02 5.82-.02 2.65-.01 5.29.01 7.94-.01.77-.03 1.54-.04 2.33.06 4.01.5 5.73 3.07 8.88 3.82 3.01 6.6 3.16 11.35 3.2l2.85.03c1.52 0 1.52 0 3.06.01l3.17.02c2.21.01 4.42.01 6.63.02 3.38.01 6.75.04 10.13.07 2.15.01 4.3.01 6.45.02 1.51.01 1.51.01 3.05.03 5.36-.01 9.33-.21 13.89-3.36 2.62-2.91 3.38-4.74 3.38-8.63 0-.92.01-1.85.02-2.8l-.03-3.05c.01-1.07.01-2.14.01-3.24q.015-3.48 0-6.96c0-3.68.01-7.37.02-11.05.04-10.48.04-20.96.04-31.43 0-6.41.02-12.82.05-19.24.01-3.6 0-7.21-.01-10.82.02-18.35 1.38-36.84 14.5-51.02 8.75-7.59 18.9-8.46 30.02-7.76 8.09 1.33 14.72 4.68 19.73 11.26 7.2 11.28 8.42 22.94 8.43 36.01.01 1.11.01 2.23.02 3.38.01 2.41.02 4.82.02 7.23.02 3.82.03 7.63.06 11.45.06 10.85.11 21.69.15 32.54.02 6.64.05 13.28.1 19.92.01 2.54.02 5.07.02 7.6q.015 5.295.06 10.59c-.01 1.05-.01 2.1-.01 3.18.03 6.93.03 6.93 3.42 12.84 3.37 2.24 4.55 2.26 8.5 2.3 1.12.02 2.25.04 3.41.05 1.21.01 2.43.01 3.68.02l3.79.03c2.64.01 5.28.02 7.93.02 3.38.01 6.76.05 10.14.09 3.24.04 6.47.04 9.7.05l3.67.06c1.14-.01 2.27-.02 3.43-.02.99 0 1.99.01 3.01.01 4.1-.92 5.38-2.12 7.74-5.61.74-3.99.67-7.93.62-11.97l.02-3.68c.01-3.33-.01-6.65-.03-9.98-.02-3.51-.01-7.01-.01-10.52 0-5.9-.02-11.8-.05-17.71-.04-6.77-.05-13.53-.04-20.3 0-6.56-.01-13.11-.03-19.67 0-2.76-.01-5.53-.01-8.29-.01-29.39-.61-63.65-21.47-86.88-.64-.74-1.28-1.47-1.95-2.23-11.7-12.56-28.53-19.07-45.58-19.89-23.32-.67-47.7 1.24-64.69 19.39m-171.78-12.27c-2 4.68-2.28 9.03-2.26 14.04 0 .8 0 1.59-.01 2.41-.01 2.65 0 5.29 0 7.94 0 1.9-.01 3.81-.02 5.71-.01 5.16-.01 10.32-.01 15.48 0 4.31 0 8.62-.01 12.93-.01 10.17-.01 20.33 0 30.5 0 10.48-.01 20.97-.03 31.46-.02 9-.02 18.01-.02 27.01 0 5.38 0 10.76-.01 16.14-.02 5.05-.01 10.11 0 15.17 0 1.85 0 3.71-.01 5.56-.01 2.54 0 5.07.01 7.6-.01.73-.01 1.47-.02 2.22.05 4.68.96 7.85 3.39 11.83 3.81 3.56 7.49 4.11 12.57 4.16l2.72.03c1.45 0 1.45 0 2.92.01 1 .01 2 .01 3.03.02 2.11.01 4.22.01 6.33.02 3.22.01 6.44.04 9.66.07 2.06.01 4.11.01 6.17.02l2.9.03c5.66-.02 9.79-.45 14.7-3.36 3.29-4.15 3.43-7.99 3.39-13.09 0-.81 0-1.62.01-2.45.01-2.71 0-5.42-.01-8.13.01-1.94.01-3.88.02-5.83.01-5.27.01-10.55 0-15.83-.01-5.52 0-11.04 0-16.56.01-9.27 0-18.54-.01-27.81q-.03-16.08 0-32.16c.01-9.2.02-18.4.01-27.61-.01-5.49-.01-10.99 0-16.49.01-5.17.01-10.33-.01-15.5-.01-1.9 0-3.8 0-5.69.01-2.59 0-5.18-.01-7.77 0-.75.01-1.5.02-2.28-.05-4.45-.7-7.24-3.41-10.8-4.65-4.21-10.51-3.45-16.43-3.44-1.67 0-1.67 0-3.37-.01-2.34-.01-4.69-.01-7.03 0-3.59.01-7.17-.02-10.75-.05h-6.85c-1.6-.02-1.6-.02-3.24-.03-5.85.05-9.92.23-14.33 4.53"/></svg>