<svg xmlns="http://www.w3.org/2000/svg" width="512" height="512"><path fill="currentColor" d="M0 171c1.41.77 2.82 1.55 4.23 2.33 1.18.64 1.18.64 2.38 1.31 3.85 2.19 7.48 4.67 11.13 7.17.82.56 1.64 1.12 2.49 1.69 1.77 1.2 3.54 2.41 5.31 3.61 4.81 3.28 9.63 6.54 14.45 9.8.99.67 1.99 1.34 3.02 2.04C53.28 205.88 63.64 212.7 74 219.5c14.57 9.57 29.07 19.23 43.5 29 16.4 11.1 32.89 22.06 49.45 32.93 8.81 5.78 17.6 11.6 26.33 17.52 1.64 1.1 3.27 2.21 4.91 3.32 3.02 2.03 6.02 4.08 9.02 6.15 19.16 13.02 39.72 19.83 63.07 15.96 16.79-3.49 30.9-13.14 44.78-22.72 4.71-3.24 9.45-6.45 14.17-9.67.98-.67 1.95-1.33 2.96-2.01 10.19-6.95 20.5-13.72 30.81-20.48a3610 3610 0 0 0 43.5-29c16.32-11.05 32.73-21.95 49.21-32.77 9.25-6.08 18.49-12.18 27.69-18.33 1.38-.92 1.38-.92 2.78-1.85 4.37-2.93 8.74-5.85 13.1-8.78 1.55-1.03 3.09-2.07 4.64-3.1 1.06-.72 1.06-.72 2.14-1.45 4.83-3.22 4.83-3.22 5.94-3.22.11 30.35.2 60.71.26 91.06 0 3.59.01 7.18.01 10.76.01.72.01 1.43.01 2.17.02 11.55.06 23.09.11 34.64.04 11.86.07 23.72.08 35.58.01 6.66.02 13.31.06 19.97.03 6.27.04 12.54.04 18.81 0 2.3.01 4.59.03 6.89.14 17.76-1.65 30.44-14.16 43.87-9.59 8.85-20.03 13.49-33.17 13.51-1.1 0-1.1 0-2.23.01-2.47.01-4.93 0-7.39 0-1.79 0-3.58.01-5.36.01-4.91.01-9.81.01-14.72.01-5.29 0-10.59.01-15.88.02-10.37.02-20.74.02-31.1.02-8.43.01-16.86.01-25.29.02-23.9.01-47.81.02-71.71.02h-7.81c-20.91 0-41.81.02-62.71.05-21.47.03-42.94.04-64.41.04-12.05 0-24.1 0-36.16.02-10.26.02-20.52.03-30.78.01-5.23 0-10.46 0-15.7.01-4.79.02-9.59.02-14.39 0-1.72 0-3.45 0-5.18.01-15.44.09-28.33-2.24-40.14-12.95-.76-.84-1.52-1.69-2.31-2.56-.48-.49-.96-.98-1.46-1.48-6.19-6.61-10.67-15.59-10.66-24.76-.01-.84-.01-1.69-.01-2.56 0-.92.01-1.84.01-2.79v-2.98c0-3.31 0-6.61.01-9.92v-7.09c0-6.43 0-12.86.01-19.29 0-6.03.01-12.07.01-18.11 0-11.95.01-23.91.01-35.86l.03-34.84v-12.94c.01-29.8.03-59.59.05-89.38"/><path fill="currentColor" d="M46.726 63.743c.74 0 1.48-.01 2.24-.01q3.69-.015 7.38 0c1.79 0 3.58-.01 5.37-.01 4.9-.02 9.81-.02 14.71-.01 5.3 0 10.59-.01 15.88-.02q15.555-.03 31.11-.03c8.43 0 16.85 0 25.28-.01 23.91-.02 47.81-.03 71.71-.02h7.82c20.9 0 41.8-.02 62.71-.05 21.47-.03 42.94-.04 64.41-.04q18.075 0 36.15-.03c10.26-.02 20.52-.02 30.78-.01 5.24.01 10.47.01 15.7-.01 4.8-.01 9.59-.01 14.39.01 1.73 0 3.46 0 5.19-.01 15.44-.1 28.32 2.23 40.13 12.94.76.85 1.53 1.7 2.31 2.57.73.71.73.71 1.46 1.44 9.5 9.96 11.01 22.44 10.82 35.51-.47 12.73-7.24 22.36-16.06 31.04-3.45 3.12-7.2 5.61-11.11 8.11-.85.56-1.7 1.11-2.57 1.68-1.82 1.19-3.65 2.37-5.48 3.55-4.97 3.21-9.91 6.45-14.86 9.68-1.02.66-2.03 1.33-3.08 2.01-10.28 6.72-20.45 13.59-30.62 20.48-15.34 10.39-30.76 20.64-46.25 30.81-13.78 9.04-27.47 18.2-41.12 27.44-13.2 8.92-26.41 17.82-39.7 26.6-1.64 1.08-3.27 2.16-4.89 3.25-16.81 11.16-31.13 19.23-51.9 15.85-6.18-1.63-11.44-4.36-16.81-7.78-.69-.44-1.37-.87-2.08-1.32-8.05-5.12-15.93-10.48-23.81-15.84q-23.835-16.2-47.94-32.01a3938 3938 0 0 1-46.16-30.81c-12.92-8.74-25.9-17.39-38.94-25.96-7.97-5.23-15.93-10.48-23.9-15.73-.75-.5-1.51-1-2.29-1.52-4.05-2.67-8.09-5.35-12.12-8.05a741 741 0 0 0-5.08-3.36c-8.98-6.06-16.89-12.41-21.51-22.39-.55-1.17-1.11-2.34-1.68-3.55-4.3-10.26-3.99-24.01-.19-34.38 5.83-12.84 15.85-22.4 28.87-27.75 5.4-1.55 10.07-2.25 15.73-2.26"/></svg>
