<svg xmlns="http://www.w3.org/2000/svg" width="512" height="512"><path fill="currentColor" d="M47.457 383.743c1.1-.01 1.1-.01 2.22-.01q3.69-.015 7.38 0c1.78 0 3.56-.01 5.34-.01 4.89-.02 9.78-.02 14.68-.01 5.27 0 10.55-.01 15.82-.02q15.51-.03 31.02-.03c8.4 0 16.8 0 25.21-.01 23.82-.02 47.63-.03 71.45-.02h7.79c20.84 0 41.69-.02 62.53-.05 21.39-.03 42.79-.04 64.18-.04 12.02 0 24.03-.01 36.04-.03 10.23-.01 20.46-.02 30.69-.01 5.22.01 10.44.01 15.66-.01 4.77-.01 9.55-.01 14.33.01 1.73 0 3.46 0 5.18-.01 11.53-.07 21.65.55 30.49 8.8 7.4 8.23 9.11 16.94 8.85 27.72-.48 8.38-4.09 15.39-10.32 20.99-6.74 5.07-12.95 7.25-21.45 7.25-.74.01-1.47.01-2.23.02-2.45 0-4.91 0-7.37-.01-1.78.01-3.56.01-5.34.02-4.89.01-9.79.01-14.68.01-5.28 0-10.55.01-15.83.02-10.34.01-20.67.02-31.01.02-8.4 0-16.81.01-25.21.01q-35.73.03-71.46.03h-7.79c-20.84 0-41.68.02-62.52.04-21.4.03-42.79.05-64.19.04-12.01 0-24.02.01-36.04.03-10.23.02-20.46.02-30.68.01-5.22-.01-10.44-.01-15.66.01-4.78.02-9.56.01-14.34 0-1.72-.01-3.45 0-5.18.01-11.52.07-21.64-.55-30.49-8.81-7.39-8.22-9.11-16.94-8.84-27.71.47-8.39 4.09-15.4 10.31-20.99 6.75-5.07 12.95-7.25 21.46-7.26M47.457 223.743c1.1-.01 1.1-.01 2.22-.01q3.69-.015 7.38 0c1.78 0 3.56-.01 5.34-.01 4.89-.02 9.78-.02 14.68-.01 5.27 0 10.55-.01 15.82-.02q15.51-.03 31.02-.03c8.4 0 16.8 0 25.21-.01 23.82-.02 47.63-.03 71.45-.02h7.79c20.84 0 41.69-.02 62.53-.05 21.39-.03 42.79-.04 64.18-.04 12.02 0 24.03-.01 36.04-.03 10.23-.01 20.46-.02 30.69-.01 5.22.01 10.44.01 15.66-.01 4.77-.01 9.55-.01 14.33.01 1.73 0 3.46 0 5.18-.01 11.53-.07 21.65.55 30.49 8.8 7.4 8.23 9.11 16.94 8.85 27.72-.48 8.38-4.09 15.39-10.32 20.99-6.74 5.07-12.95 7.25-21.45 7.25-.74.01-1.47.01-2.23.02-2.45 0-4.91 0-7.37-.01-1.78.01-3.56.01-5.34.02-4.89.01-9.79.01-14.68.01-5.28 0-10.55.01-15.83.02-10.34.01-20.67.02-31.01.02-8.4 0-16.81.01-25.21.01q-35.73.03-71.46.03h-7.79c-20.84 0-41.68.02-62.52.04-21.4.03-42.79.05-64.19.04-12.01 0-24.02.01-36.04.03-10.23.02-20.46.02-30.68.01-5.22-.01-10.44-.01-15.66.01-4.78.02-9.56.01-14.34 0-1.72-.01-3.45 0-5.18.01-11.52.07-21.64-.55-30.49-8.81-7.39-8.22-9.11-16.94-8.84-27.71.47-8.39 4.09-15.4 10.31-20.99 6.75-5.07 12.95-7.25 21.46-7.26M47.457 63.743c1.1-.01 1.1-.01 2.22-.01q3.69-.015 7.38 0c1.78 0 3.56-.01 5.34-.01 4.89-.02 9.78-.02 14.68-.01 5.27 0 10.55-.01 15.82-.02q15.51-.03 31.02-.03c8.4 0 16.8 0 25.21-.01 23.82-.02 47.63-.03 71.45-.02h7.79c20.84 0 41.69-.02 62.53-.05 21.39-.03 42.79-.04 64.18-.04 12.02 0 24.03-.01 36.04-.03 10.23-.01 20.46-.02 30.69-.01 5.22.01 10.44.01 15.66-.01 4.77-.01 9.55-.01 14.33.01 1.73 0 3.46 0 5.18-.01 11.53-.07 21.65.55 30.49 8.8 7.4 8.23 9.11 16.94 8.85 27.72-.48 8.38-4.09 15.39-10.32 20.99-6.74 5.07-12.95 7.25-21.45 7.25-.74.01-1.47.01-2.23.02-2.45 0-4.91 0-7.37-.01-1.78.01-3.56.01-5.34.02-4.89.01-9.79.01-14.68.01-5.28 0-10.55.01-15.83.02-10.34.01-20.67.02-31.01.02-8.4 0-16.81.01-25.21.01q-35.73.03-71.46.03h-7.79c-20.84 0-41.68.02-62.52.04-21.4.03-42.79.05-64.19.04-12.01 0-24.02.01-36.04.03-10.23.02-20.46.02-30.68.01-5.22-.01-10.44-.01-15.66.01-4.78.02-9.56.01-14.34 0-1.72-.01-3.45 0-5.18.01-11.52.07-21.64-.55-30.49-8.81-7.39-8.22-9.11-16.94-8.84-27.71.47-8.39 4.09-15.4 10.31-20.99 6.75-5.07 12.95-7.25 21.46-7.26"/></svg>
