<svg xmlns="http://www.w3.org/2000/svg" width="512" height="512"><path fill="currentColor" d="M218.867 9.74c.75 0 1.5-.01 2.27-.01q3.735-.015 7.47 0c1.8-.01 3.59-.01 5.39-.02 4.85-.01 9.71-.01 14.57-.01 4.07 0 8.13 0 12.2-.01 9.6-.01 19.19-.01 28.79 0q14.82 0 29.64-.03c8.5-.02 17-.03 25.5-.02 5.07 0 10.13 0 15.2-.02q7.155-.015 14.31 0c1.75.01 3.49 0 5.23 0 18.99-.09 35.41 3.72 49.5 17.19 14.31 14.24 20.54 31.01 20.6 51.07l-.03 4.29c.01 1.56.01 3.12.02 4.68.02 4.25.01 8.49 0 12.73-.01 4.59 0 9.19.01 13.78.02 8.99.02 17.97 0 26.95 0 7.3-.01 14.61 0 21.91v9.51c.02 19.83 0 39.66-.02 59.48-.02 16.99-.01 33.98 0 50.96.03 19.76.03 39.52.02 59.28v9.48c-.01 7.29 0 14.57.01 21.86.01 8.9.01 17.79-.01 26.68-.02 4.53-.02 9.06-.01 13.59.02 4.16.01 8.32-.01 12.47-.01 1.5 0 2.99.01 4.48.12 20.3-5.4 37.76-19.84 52.4-13.01 12.54-28.65 18.09-46.6 17.97-1.14.01-2.28.01-3.45.02-3.78.01-7.55 0-11.33-.01-2.72 0-5.44.01-8.16.01-6.61.02-13.21.02-19.81.01-5.37-.01-10.74-.01-16.11-.01h-2.33c-1.55 0-3.11.01-4.67.01-14.58 0-29.16 0-43.74-.02q-18.735-.015-37.47 0c-14.53.02-29.05.02-43.58.01h-6.97c-5.36 0-10.72 0-16.08.01-6.54.01-13.08.01-19.61-.01-3.34-.01-6.67-.01-10 0-3.62.01-7.24 0-10.86-.02-1.04.01-2.08.02-3.15.02-15.98-.13-29.8-5.91-41.77-16.4-1.01-.86-1.01-.86-2.05-1.73-10.57-9.63-17.11-24.22-18.95-38.27-.15-3.86-.14-7.72-.14-11.59-.01-1.18-.01-2.35-.01-3.56-.01-3.25-.02-6.51-.02-9.76-.01-3.51-.01-7.02-.02-10.53-.02-8.48-.03-16.96-.04-25.43-.01-4-.01-8-.02-12-.01-13.29-.03-26.59-.04-39.89V318.3c-.01-13.87-.04-27.74-.07-41.61-.03-14.26-.05-28.51-.05-42.77-.01-8-.01-16-.04-24-.02-6.81-.03-13.62-.02-20.44 0-3.47 0-6.94-.02-10.41-.11-24.15 1.91-42.11 19.49-60.07.76-.78 1.52-1.57 2.3-2.38 3.32-3.39 6.7-6.63 10.3-9.72 4.61-4.02 8.92-8.3 13.22-12.65.81-.82 1.62-1.63 2.46-2.47 2.58-2.59 5.15-5.19 7.72-7.78 3.4-3.42 6.79-6.84 10.19-10.25l2.32-2.34c4.05-4.07 8.2-7.94 12.55-11.68 3.36-2.98 6.46-6.2 9.59-9.42l4.3-4.36c2.22-2.26 4.43-4.52 6.64-6.78 2.16-2.21 4.33-4.41 6.5-6.61.64-.67 1.29-1.34 1.95-2.03 6.8-6.83 14.9-11.27 23.59-15.28.6-.29 1.2-.58 1.83-.88 6.99-3.26 13.71-4.67 21.41-4.63M212.997 168c-8.56 9.95-12.43 23.77-12.27 36.74 1.22 14.33 6.48 28.42 17.27 38.26 12.58 10.03 25.98 15.59 42.39 14.85 15.1-1.92 27.85-8.28 38.03-19.52 9.22-11.97 13.86-26.25 12.58-41.33-2.38-16.25-9.9-29.1-22.77-39.17-25.24-16.93-55-11.23-75.23 10.17m-4.62 129.44c-.7.36-1.39.72-2.11 1.09-23.59 12.55-39.93 31.66-49.47 56.61-1.69 6.06-1.81 12.43.83 18.24 4.03 6.9 11.06 11.03 18.57 13.28 9.77 2.31 19.53 2.49 29.52 2.5 1.36.01 2.73.01 4.09.02 3.68.01 7.36.02 11.05.02 2.3 0 4.61.01 6.91.01q10.845.03 21.69.03c8.32 0 16.64.02 24.95.05q9.675.03 19.35.03c3.85 0 7.69.01 11.53.03 3.62.02 7.23.02 10.85.01 1.95 0 3.89.01 5.83.03 10.74-.06 20.17-1.56 28.03-9.39 5.86-7.46 8.05-13.48 7-23-7.21-24.58-27.36-45.29-49-58-.96-.57-1.93-1.14-2.92-1.72-6.02-3.28-10.48-4.17-17.33-2.47-1.09.35-2.18.7-3.31 1.07-14.96 4.46-29.99 5.45-45.37 2.81-.69-.12-1.38-.24-2.08-.36-3.53-.67-6.72-1.57-10.05-2.93-6.97-2.69-12.13-1.38-18.56 2.04"/></svg>