<svg xmlns="http://www.w3.org/2000/svg" width="512" height="512"><path fill="#F3F3F3" d="M134.327 67.74c1.09 0 2.17-.01 3.29-.01q5.415-.015 10.83 0c2.6-.01 5.2-.01 7.8-.02 6.31-.01 12.62-.01 18.93-.01 5.13 0 10.27 0 15.4-.01h6.69q20.91-.015 41.82 0 19.095 0 38.19-.03c13.1-.02 26.19-.03 39.29-.02 7.34 0 14.68 0 22.03-.02 6.9-.01 13.81-.01 20.72 0 2.53.01 5.05 0 7.58 0 19.43-.06 38.27-.11 53.1 14.38 9.98 11.44 13.31 23.29 13.27 38.2 0 1.21.01 2.43.01 3.68.01 3.35.02 6.71.01 10.07 0 3.62.01 7.25.02 10.88.02 7.1.03 14.19.03 21.29 0 5.78 0 11.55.01 17.32.02 16.39.03 32.77.02 49.15v5.35c0 14.32.02 28.63.05 42.95.03 14.71.04 29.42.04 44.14 0 8.25.01 16.5.03 24.76.02 7.03.02 14.05.01 21.08-.01 3.59-.01 7.17.01 10.75.02 3.89 0 7.79-.01 11.68l.03 3.39c-.12 13.17-4.73 24.76-13.56 34.56-11.29 10.78-24.16 14.07-39.3 14.01-1.11.01-2.22.01-3.37.01-3.7.01-7.41.01-11.11.01-2.67 0-5.33 0-7.99.01-6.48.01-12.95.02-19.42.01-5.27 0-10.53 0-15.8.01h-6.84c-14.29.01-28.58.01-42.86.01-13.06-.01-26.11 0-39.17.02-13.42.02-26.84.03-40.26.02-7.53 0-15.06 0-22.59.02-6.4.01-12.81.01-19.22 0-3.27-.01-6.53-.01-9.8.01-3.55.01-7.1 0-10.65-.02l-3.09.03c-14.28-.11-26.78-4.98-37.17-14.81-9.73-10.82-12.79-22.84-12.71-37.02-.01-1.21-.02-2.43-.02-3.68q-.015-5.025 0-10.05c0-3.63-.01-7.25-.02-10.87-.02-7.09-.02-14.18-.01-21.27 0-5.76 0-11.53-.01-17.29v-7.5c-.02-15.65-.01-31.3 0-46.94.01-14.3 0-28.59-.03-42.89-.02-14.69-.03-29.39-.03-44.09.01-8.24.01-16.49-.01-24.73q-.03-10.53 0-21.06c.01-3.57.01-7.15 0-10.73-.02-3.88-.01-7.77.01-11.66l-.03-3.38c.13-13.22 4.09-24.32 12.97-34.12.85-.76 1.69-1.52 2.56-2.31.49-.48.98-.96 1.48-1.46 10.79-10.12 24.63-11.85 38.85-11.8"/><path fill="#0B0F33" d="M134.327 67.74c1.09 0 2.17-.01 3.29-.01q5.415-.015 10.83 0c2.6-.01 5.2-.01 7.8-.02 6.31-.01 12.62-.01 18.93-.01 5.13 0 10.27 0 15.4-.01h6.69q20.91-.015 41.82 0 19.095 0 38.19-.03c13.1-.02 26.19-.03 39.29-.02 7.34 0 14.68 0 22.03-.02 6.9-.01 13.81-.01 20.72 0 2.53.01 5.05 0 7.58 0 19.43-.06 38.27-.11 53.1 14.38 9.98 11.44 13.31 23.29 13.27 38.2 0 1.21.01 2.43.01 3.68.01 3.35.02 6.71.01 10.07 0 3.62.01 7.25.02 10.88.02 7.1.03 14.19.03 21.29 0 5.78 0 11.55.01 17.32.02 16.39.03 32.77.02 49.15v5.35c0 14.32.02 28.63.05 42.95.03 14.71.04 29.42.04 44.14 0 8.25.01 16.5.03 24.76.02 7.03.02 14.05.01 21.08-.01 3.59-.01 7.17.01 10.75.02 3.89 0 7.79-.01 11.68l.03 3.39c-.12 13.17-4.73 24.76-13.56 34.56-11.29 10.78-24.16 14.07-39.3 14.01-1.11.01-2.22.01-3.37.01-3.7.01-7.41.01-11.11.01-2.67 0-5.33 0-7.99.01-6.48.01-12.95.02-19.42.01-5.27 0-10.53 0-15.8.01h-6.84c-14.29.01-28.58.01-42.86.01-13.06-.01-26.11 0-39.17.02-13.42.02-26.84.03-40.26.02-7.53 0-15.06 0-22.59.02-6.4.01-12.81.01-19.22 0-3.27-.01-6.53-.01-9.8.01-3.55.01-7.1 0-10.65-.02l-3.09.03c-14.28-.11-26.78-4.98-37.17-14.81-9.73-10.82-12.79-22.84-12.71-37.02-.01-1.21-.02-2.43-.02-3.68q-.015-5.025 0-10.05c0-3.63-.01-7.25-.02-10.87-.02-7.09-.02-14.18-.01-21.27 0-5.76 0-11.53-.01-17.29v-7.5c-.02-15.65-.01-31.3 0-46.94.01-14.3 0-28.59-.03-42.89-.02-14.69-.03-29.39-.03-44.09.01-8.24.01-16.49-.01-24.73q-.03-10.53 0-21.06c.01-3.57.01-7.15 0-10.73-.02-3.88-.01-7.77.01-11.66l-.03-3.38c.13-13.22 4.09-24.32 12.97-34.12.85-.76 1.69-1.52 2.56-2.31.49-.48.98-.96 1.48-1.46 10.79-10.12 24.63-11.85 38.85-11.8m-26.83 34.2c-4.8 6.8-4.79 13.63-4.76 21.66 0 1.17-.01 2.34-.01 3.56q-.015 4.875 0 9.75c0 3.51-.01 7.03-.02 10.54-.01 6.87-.01 13.75-.01 20.63v16.77c0 .79 0 1.59-.01 2.41v4.85c-.01 15.16-.01 30.33 0 45.49 0 13.86-.01 27.73-.03 41.59-.02 14.24-.02 28.48-.02 42.73 0 7.99 0 15.98-.02 23.98-.01 6.8-.01 13.61 0 20.41q.015 5.205 0 10.41c-.01 3.77 0 7.54.01 11.31-.01 1.09-.02 2.18-.02 3.3.06 8.98 1.56 16.09 7.4 23.07 6.8 5.48 12.79 6.18 21.23 6.11 1.11 0 2.22.01 3.37.02 3.71.01 7.43 0 11.14-.01 2.67 0 5.34.01 8.01.02 6.49.02 12.97.01 19.46 0 5.28-.01 10.55-.01 15.82 0h6.86c14.31.01 28.62 0 42.92-.02q18.405-.03 36.81 0c14.25.02 28.51.03 42.77.02h4.56c.75 0 1.5-.01 2.27-.01 5.27 0 10.53.01 15.8.02 6.42.01 12.84 0 19.26-.02 3.27-.01 6.55-.01 9.82 0 3.55.01 7.11 0 10.66-.02l3.12.03c7.26-.08 12.33-1.49 18.1-6.14 6.68-7.99 7.46-16.22 7.4-26.35.01-1.18.01-2.36.02-3.57.01-3.25.01-6.49 0-9.74 0-3.51.01-7.02.02-10.53.02-6.86.02-13.73.01-20.6v-16.74c0-.8 0-1.59.01-2.41v-4.85c.01-15.14.01-30.29 0-45.43-.01-13.84 0-27.69.02-41.53q.045-21.345.03-42.69c0-7.98 0-15.96.02-23.95.01-6.79.01-13.59 0-20.38-.01-3.46-.02-6.93 0-10.39.01-3.76 0-7.52-.02-11.28l.03-3.3c-.08-8.71-2.21-16.34-8.53-22.66-5.08-3.51-9.53-5.12-15.66-5.14-1.41 0-1.41 0-2.85-.01h-3.11c-1.1-.01-2.19-.01-3.32-.02-3.68-.01-7.36-.02-11.05-.02l-7.9-.03c-7.91-.02-15.83-.04-23.75-.05-2.23 0-4.47-.01-6.7-.01-13.9-.03-27.79-.05-41.69-.06-3.21 0-6.43-.01-9.65-.01h-2.42c-12.95-.01-25.9-.05-38.85-.09-13.3-.04-26.6-.07-39.9-.07-7.46 0-14.93-.02-22.39-.05q-9.54-.045-19.08-.03c-3.24.01-6.48 0-9.72-.02-3.53-.02-7.05-.01-10.57 0-1.01-.01-2.03-.03-3.07-.04-8.79.1-16.17 2.61-21.82 9.59"/><path fill="#86C1D5" d="M145 313c.48.35.95.71 1.44 1.07 5.23 3.61 8.98 4.65 15.26 4.55.84.01 1.68.01 2.55.02 2.79.02 5.59 0 8.38-.02 2.01 0 4.02 0 6.03.01 5.45.02 10.9 0 16.35-.02 5.7-.02 11.41-.02 17.12-.02 9.57 0 19.15-.02 28.73-.05 11.07-.03 22.14-.04 33.22-.04 10.65.01 21.31 0 31.96-.02 4.54-.01 9.07-.01 13.6-.01 5.34 0 10.68-.01 16.02-.04 1.95-.01 3.91-.01 5.87-.01 2.67.01 5.35-.01 8.02-.03l2.35.02c4.81-.06 7.92-1.09 12.1-3.41h3c5.48 10.46 10.94 20.92 16.34 31.42l1.12 2.18c1.83 3.56 3.66 7.12 5.49 10.69.69 1.34 1.38 2.69 2.07 4.03.33.65.66 1.29 1.01 1.96 1.64 3.2 3.32 6.38 5.04 9.53l.99 1.82c.89 1.63 1.8 3.26 2.7 4.89C403 384 403 384 403 386h2c1.49-4.45 1.49-4.45 3-9h1c.09 3.65.14 7.29.19 10.94.04 1.53.04 1.53.07 3.09.09 9.15-1.32 16.26-7.27 23.36-6.8 5.49-12.78 6.19-21.22 6.12-1.12 0-2.23.01-3.37.02-3.72.01-7.43 0-11.15-.01-2.67 0-5.34.01-8 .02-6.49.02-12.98.01-19.47 0-5.27-.01-10.55-.01-15.82 0h-6.86c-14.31.01-28.61 0-42.92-.02-12.27-.02-24.54-.02-36.8 0-14.26.02-28.52.03-42.78.02h-4.56c-.75-.01-1.5-.01-2.27-.01-5.26 0-10.53.01-15.8.02-6.42.01-12.84 0-19.26-.02-3.27-.01-6.54-.01-9.82 0-3.55.01-7.1 0-10.66-.02l-3.12.02c-7.25-.07-12.33-1.48-18.1-6.14-6.74-8.05-7.45-16.23-7.2-26.45.02-1.06.03-2.12.04-3.2q.06-3.87.15-7.74c2 3 2 3 3 5.12.86 2.05.86 2.05 3 2.88.24-.81.48-1.61.72-2.44 1.57-4.36 3.59-8.34 5.72-12.45.44-.85.88-1.71 1.33-2.59 1.41-2.74 2.82-5.47 4.23-8.21.92-1.78 1.84-3.57 2.75-5.36 4.95-9.61 9.94-19.2 14.99-28.75 2.14-4.04 4.23-8.1 6.26-12.2"/><path fill="#BCE1EA" d="M359 93c4.27-.07 8.54-.13 12.81-.16 1.44-.02 2.89-.04 4.34-.07 9.49-.16 16.93-.08 25.1 5.42 4.9 5.01 7.87 11.23 7.88 18.29.01.93.01 1.85.02 2.8v3.08c0 1.08 0 2.16.01 3.27.01 3.63.01 7.26.02 10.89 0 2.6.01 5.2.02 7.79.02 7.81.03 15.62.04 23.42 0 3.68.01 7.36.01 11.03.02 12.23.03 24.45.04 36.68 0 3.17 0 6.34.01 9.51v2.39c0 12.77.03 25.54.06 38.31.04 13.11.05 26.22.06 39.33q0 11.04.03 22.08c.03 6.93.03 13.85.02 20.78 0 2.54.01 5.08.02 7.62.02 3.47.01 6.95 0 10.42l.03 3.04c-.06 6.53-1.4 11.34-4.52 17.08h-2c-.44-.85-.87-1.7-1.32-2.57-4.44-8.62-8.88-17.23-13.32-25.85-1.52-2.96-3.05-5.92-4.57-8.88-1.71-3.32-3.43-6.64-5.14-9.96-.64-1.23-1.27-2.47-1.91-3.7-3.94-7.69-3.94-7.69-8.16-15.22C367 317 367 317 367 315l-2-1c.49-.82.97-1.63 1.48-2.47 1.77-4.11 1.94-7.6 1.91-11.99 0-.84.01-1.68.01-2.54.02-2.8.01-5.6 0-8.4.01-2.02.02-4.03.02-6.04.02-5.45.02-10.91.02-16.37-.01-4.55 0-9.11 0-13.66.02-10.75.02-21.49.01-32.24-.02-11.09 0-22.17.03-33.26.02-9.52.02-19.04.02-28.56-.01-5.68 0-11.37.01-17.05.02-5.35.02-10.69 0-16.04-.01-1.96 0-3.92.01-5.88.01-2.68 0-5.36-.02-8.04l.03-2.35c-.07-5.19-1.26-8.11-4.53-12.11-2.61-2.32-2.61-2.32-5-4M137.625 92.688c1.5.03 2.99.05 4.49.07 3.63.05 7.26.14 10.89.24-.75.54-1.49 1.08-2.26 1.63-4.24 3.67-6.53 6.64-7.24 12.3-.02 1.51-.02 3.03 0 4.54 0 .84-.01 1.68-.01 2.54-.02 2.81 0 5.61.02 8.41 0 2.02-.01 4.03-.01 6.04-.01 5.46 0 10.92.02 16.38.02 5.72.02 11.43.02 17.14 0 9.6.02 19.19.04 28.79.03 11.09.05 22.19.04 33.28q0 16.005.03 32.01c.01 4.55.01 9.09.01 13.63 0 5.35.02 10.7.04 16.04v5.9c0 2.67.01 5.35.03 8.03-.01.78-.01 1.56-.01 2.36.04 4.15.61 7.2 2.28 10.98-.72 2.47-.72 2.47-2.08 5.07-.5.97-1 1.94-1.51 2.94-.55 1.03-1.1 2.06-1.67 3.12-.55 1.07-1.11 2.15-1.69 3.26-1.66 3.21-3.36 6.41-5.05 9.61-.84 1.6-1.68 3.19-2.51 4.79-1.55 2.97-3.12 5.94-4.69 8.9-3.69 6.97-7.31 13.99-10.93 21-.34.66-.68 1.32-1.04 2.01-1.94 3.76-3.89 7.53-5.83 11.3-3-1-3-1-4.67-3.88-1.9-4.9-1.75-9.77-1.72-14.96-.01-1.08-.01-2.16-.02-3.28q-.015-5.43 0-10.86c0-2.59-.01-5.19-.02-7.79-.02-6.32-.02-12.64-.01-18.96 0-5.13 0-10.27-.01-15.41v-6.68c-.02-13.94-.01-27.88 0-41.81.01-12.75 0-25.49-.03-38.23-.02-13.09-.03-26.19-.02-39.28 0-7.35 0-14.7-.02-22.04-.02-6.91-.01-13.82.01-20.73 0-2.54 0-5.07-.01-7.6-.02-3.47 0-6.93.01-10.39l-.03-3.03c.09-7.74 2.26-13.22 6.16-19.82 8.49-8.04 18.02-7.88 29-7.56"/><path fill="#3E6785" d="M250 149c6.22 2 10.91 6.23 15.82 10.38 3.56 2.98 7.27 5.73 10.99 8.5 5.77 4.28 11.46 8.65 17.1 13.11q5.1 4.035 10.29 7.98c15.72 11.99 15.72 11.99 17.8 17.03.7 5.26-1 8.79-4 13-2.78 2.52-2.78 2.52-5.94 4.81-1.16.86-2.33 1.72-3.49 2.58-.89.65-.89.65-1.8 1.31-2.79 2.05-5.53 4.18-8.27 6.3l-3.25 2.5c-.54.41-1.07.82-1.63 1.25l-4.87 3.75c-.54.41-1.07.82-1.62 1.25-1.09.83-2.17 1.67-3.26 2.5-2.7 2.08-5.4 4.16-8.08 6.25-2.69 2.09-5.39 4.15-8.1 6.21-1.78 1.36-3.52 2.75-5.27 4.14-11.04 8.61-11.04 8.61-18.37 7.74-4.32-1.25-6.25-3.52-8.86-7.03-1.25-3.73-1.31-6.37-1.26-10.28l.03-3.56c.01-.9.03-1.8.04-2.72l-3.32.06c-4.07.08-8.14.12-12.21.16-1.76.02-3.52.05-5.28.08-2.54.05-5.07.07-7.61.09l-2.37.06c-3.69 0-5.95-.29-9.12-2.22-3.6-3.84-4.34-6.68-4.38-11.91-.01-1.14-.03-2.29-.04-3.46 0-1.23 0-2.46-.01-3.73 0-1.26-.01-2.53-.02-3.84-.01-2.68-.01-5.36-.01-8.04 0-3.43-.03-6.85-.06-10.28-.03-3.28-.03-6.56-.03-9.84-.02-1.22-.03-2.45-.04-3.71.05-10.81.05-10.81 4.5-15.42 3.58-2.81 7.92-2.25 12.27-2.2.79.01 1.58.01 2.4.01 2.53.01 5.05.04 7.58.07 1.72.01 3.43.01 5.15.02 4.2.02 8.4.06 12.6.1l-.06-2.72c-.02-1.76-.02-1.76-.05-3.56-.02-1.16-.03-2.33-.05-3.53.28-5.44 2.84-7.84 6.47-11.57 3.59-2.17 5.54-2.18 9.69-1.62"/><path fill="#4CA1BE" d="M103 377c1.07 1.61 2.14 3.23 3.11 4.9 3.91 6.64 8.33 10.86 15.89 13.1 3.65.43 7.28.41 10.95.39 1.09.01 2.19.02 3.31.02 3.66.02 7.32.01 10.98.01l7.87.03c6.39.02 12.78.02 19.17.02 5.19 0 10.39 0 15.58.01 1.5 0 3 0 4.49.01h2.26c14.09.02 28.19.02 42.28.01 12.88-.01 25.76.02 38.64.05 13.24.03 26.48.05 39.71.04 7.43 0 14.86.01 22.28.03 6.99.02 13.98.02 20.96 0 2.56 0 5.12 0 7.69.02 3.5.01 7 0 10.5-.02 1.01.01 2.02.03 3.06.04 7.55-.09 14.09-2.02 19.89-7.07 3.1-3.45 4.75-7.31 6.38-11.59h1c.09 3.65.14 7.29.19 10.94.04 1.53.04 1.53.07 3.09.09 9.15-1.32 16.26-7.27 23.36-6.8 5.49-12.78 6.19-21.22 6.12-1.12 0-2.23.01-3.37.02-3.72.01-7.43 0-11.15-.01-2.67 0-5.34.01-8 .02-6.49.02-12.98.01-19.47 0-5.27-.01-10.55-.01-15.82 0h-6.86c-14.31.01-28.61 0-42.92-.02-12.27-.02-24.54-.02-36.8 0-14.26.02-28.52.03-42.78.02h-4.56c-.75-.01-1.5-.01-2.27-.01-5.26 0-10.53.01-15.8.02-6.42.01-12.84 0-19.26-.02-3.27-.01-6.54-.01-9.82 0-3.55.01-7.1 0-10.66-.02l-3.12.02c-7.25-.07-12.33-1.48-18.1-6.14-6.74-8.05-7.45-16.23-7.2-26.45.02-1.06.03-2.12.04-3.2q.06-3.87.15-7.74"/></svg>
