<?xml version="1.0" encoding="UTF-8"?>
<!-- Generator: visioncortex VTracer 0.6.3 -->
<svg version="1.1" xmlns="http://www.w3.org/2000/svg" width="512" height="512">
<path d="M0 0 C1.19 -0 2.38 -0.01 3.6 -0.01 C4.9 -0.01 6.19 -0.01 7.53 -0.01 C8.93 -0.01 10.33 -0.01 11.72 -0.02 C15.56 -0.03 19.4 -0.03 23.24 -0.03 C27.38 -0.03 31.52 -0.04 35.66 -0.04 C44.72 -0.06 53.77 -0.06 62.82 -0.07 C68.48 -0.07 74.14 -0.08 79.79 -0.08 C95.46 -0.09 111.13 -0.1 126.8 -0.11 C128.3 -0.11 128.3 -0.11 129.84 -0.11 C130.84 -0.11 131.85 -0.11 132.88 -0.11 C134.92 -0.11 136.95 -0.11 138.99 -0.11 C140 -0.11 141.01 -0.11 142.05 -0.11 C158.41 -0.11 174.77 -0.13 191.12 -0.15 C207.93 -0.18 224.73 -0.19 241.54 -0.19 C250.97 -0.19 260.4 -0.2 269.83 -0.22 C277.86 -0.23 285.9 -0.24 293.93 -0.23 C298.02 -0.22 302.12 -0.23 306.21 -0.24 C309.97 -0.25 313.72 -0.25 317.48 -0.24 C319.47 -0.24 321.45 -0.25 323.44 -0.26 C340.09 -0.17 354.63 4.07 366.8 15.79 C379.09 28.94 378.43 44.18 378.36 61.17 C378.36 63.39 378.37 65.62 378.37 67.84 C378.38 73.84 378.37 79.85 378.36 85.86 C378.35 92.16 378.35 98.45 378.35 104.75 C378.35 115.33 378.34 125.9 378.32 136.47 C378.31 147.33 378.3 158.19 378.3 169.05 C378.31 182.17 378.31 195.29 378.29 208.4 C378.29 213.4 378.29 218.4 378.29 223.4 C378.29 229.29 378.29 235.18 378.27 241.07 C378.26 243.22 378.26 245.38 378.27 247.54 C378.27 250.49 378.26 253.44 378.25 256.39 C378.25 257.24 378.26 258.08 378.26 258.96 C378.17 271.12 375.38 281.78 366.93 290.82 C348.75 307.74 326.78 306.73 303.58 306.64 C299.44 306.63 295.31 306.64 291.17 306.65 C283.1 306.66 275.02 306.66 266.94 306.64 C257.52 306.62 248.1 306.63 238.68 306.63 C221.86 306.64 205.05 306.62 188.23 306.6 C171.94 306.57 155.65 306.57 139.35 306.58 C121.58 306.59 103.81 306.59 86.03 306.58 C84.13 306.57 82.24 306.57 80.34 306.57 C79.41 306.57 78.47 306.57 77.51 306.57 C70.95 306.56 64.4 306.57 57.84 306.57 C49.84 306.58 41.85 306.57 33.85 306.55 C29.78 306.54 25.7 306.53 21.63 306.54 C17.89 306.55 14.16 306.54 10.42 306.53 C8.44 306.52 6.47 306.53 4.49 306.54 C-12.28 306.42 -26.63 302.11 -38.89 290.36 C-48.58 280.2 -50.17 269.35 -50.15 255.69 C-50.15 254.78 -50.15 253.86 -50.15 252.91 C-50.16 249.85 -50.16 246.79 -50.16 243.73 C-50.16 241.53 -50.16 239.32 -50.17 237.12 C-50.18 231.15 -50.18 225.18 -50.18 219.22 C-50.18 215.48 -50.18 211.75 -50.18 208.02 C-50.19 195.67 -50.2 183.31 -50.2 170.96 C-50.2 169.96 -50.2 169.96 -50.2 168.95 C-50.2 168.28 -50.2 167.62 -50.2 166.93 C-50.2 156.14 -50.21 145.35 -50.22 134.56 C-50.23 123.47 -50.24 112.37 -50.24 101.28 C-50.24 95.06 -50.24 88.84 -50.25 82.61 C-50.26 76.76 -50.26 70.91 -50.26 65.06 C-50.26 62.91 -50.26 60.77 -50.26 58.63 C-50.27 55.69 -50.27 52.76 -50.26 49.82 C-50.26 48.98 -50.27 48.14 -50.27 47.27 C-50.2 35.06 -47.37 24.4 -38.82 15.38 C-28.15 5.39 -14.65 0.02 0 0 Z " fill="#F3F3F3" transform="translate(98.01187992095947,100.86857223510742)"/>
<path d="M0 0 C1.19 -0 2.38 -0.01 3.6 -0.01 C4.9 -0.01 6.19 -0.01 7.53 -0.01 C8.93 -0.01 10.33 -0.01 11.72 -0.02 C15.56 -0.03 19.4 -0.03 23.24 -0.03 C27.38 -0.03 31.52 -0.04 35.66 -0.04 C44.72 -0.06 53.77 -0.06 62.82 -0.07 C68.48 -0.07 74.14 -0.08 79.79 -0.08 C95.46 -0.09 111.13 -0.1 126.8 -0.11 C128.3 -0.11 128.3 -0.11 129.84 -0.11 C130.84 -0.11 131.85 -0.11 132.88 -0.11 C134.92 -0.11 136.95 -0.11 138.99 -0.11 C140 -0.11 141.01 -0.11 142.05 -0.11 C158.41 -0.11 174.77 -0.13 191.12 -0.15 C207.93 -0.18 224.73 -0.19 241.54 -0.19 C250.97 -0.19 260.4 -0.2 269.83 -0.22 C277.86 -0.23 285.9 -0.24 293.93 -0.23 C298.02 -0.22 302.12 -0.23 306.21 -0.24 C309.97 -0.25 313.72 -0.25 317.48 -0.24 C319.47 -0.24 321.45 -0.25 323.44 -0.26 C340.09 -0.17 354.63 4.07 366.8 15.79 C379.09 28.94 378.43 44.18 378.36 61.17 C378.36 63.39 378.37 65.62 378.37 67.84 C378.38 73.84 378.37 79.85 378.36 85.86 C378.35 92.16 378.35 98.45 378.35 104.75 C378.35 115.33 378.34 125.9 378.32 136.47 C378.31 147.33 378.3 158.19 378.3 169.05 C378.31 182.17 378.31 195.29 378.29 208.4 C378.29 213.4 378.29 218.4 378.29 223.4 C378.29 229.29 378.29 235.18 378.27 241.07 C378.26 243.22 378.26 245.38 378.27 247.54 C378.27 250.49 378.26 253.44 378.25 256.39 C378.25 257.24 378.26 258.08 378.26 258.96 C378.17 271.12 375.38 281.78 366.93 290.82 C348.75 307.74 326.78 306.73 303.58 306.64 C299.44 306.63 295.31 306.64 291.17 306.65 C283.1 306.66 275.02 306.66 266.94 306.64 C257.52 306.62 248.1 306.63 238.68 306.63 C221.86 306.64 205.05 306.62 188.23 306.6 C171.94 306.57 155.65 306.57 139.35 306.58 C121.58 306.59 103.81 306.59 86.03 306.58 C84.13 306.57 82.24 306.57 80.34 306.57 C79.41 306.57 78.47 306.57 77.51 306.57 C70.95 306.56 64.4 306.57 57.84 306.57 C49.84 306.58 41.85 306.57 33.85 306.55 C29.78 306.54 25.7 306.53 21.63 306.54 C17.89 306.55 14.16 306.54 10.42 306.53 C8.44 306.52 6.47 306.53 4.49 306.54 C-12.28 306.42 -26.63 302.11 -38.89 290.36 C-48.58 280.2 -50.17 269.35 -50.15 255.69 C-50.15 254.78 -50.15 253.86 -50.15 252.91 C-50.16 249.85 -50.16 246.79 -50.16 243.73 C-50.16 241.53 -50.16 239.32 -50.17 237.12 C-50.18 231.15 -50.18 225.18 -50.18 219.22 C-50.18 215.48 -50.18 211.75 -50.18 208.02 C-50.19 195.67 -50.2 183.31 -50.2 170.96 C-50.2 169.96 -50.2 169.96 -50.2 168.95 C-50.2 168.28 -50.2 167.62 -50.2 166.93 C-50.2 156.14 -50.21 145.35 -50.22 134.56 C-50.23 123.47 -50.24 112.37 -50.24 101.28 C-50.24 95.06 -50.24 88.84 -50.25 82.61 C-50.26 76.76 -50.26 70.91 -50.26 65.06 C-50.26 62.91 -50.26 60.77 -50.26 58.63 C-50.27 55.69 -50.27 52.76 -50.26 49.82 C-50.26 48.98 -50.27 48.14 -50.27 47.27 C-50.2 35.06 -47.37 24.4 -38.82 15.38 C-28.15 5.39 -14.65 0.02 0 0 Z M-23.01 34.13 C-26.23 39.3 -26.44 43.45 -26.4 49.34 C-26.4 50.26 -26.41 51.18 -26.42 52.12 C-26.43 55.2 -26.42 58.27 -26.42 61.34 C-26.42 63.54 -26.43 65.75 -26.44 67.95 C-26.45 73.94 -26.45 79.92 -26.45 85.91 C-26.44 90.91 -26.45 95.91 -26.46 100.9 C-26.47 113.37 -26.47 125.83 -26.46 138.3 C-26.45 149.11 -26.46 159.93 -26.48 170.75 C-26.51 181.86 -26.52 192.98 -26.51 204.09 C-26.51 210.33 -26.51 216.56 -26.53 222.8 C-26.54 228.67 -26.54 234.53 -26.52 240.4 C-26.52 242.55 -26.52 244.7 -26.53 246.85 C-26.54 249.79 -26.53 252.73 -26.51 255.67 C-26.52 256.52 -26.53 257.36 -26.54 258.24 C-26.47 263.99 -25.18 268.3 -22.01 273.13 C-20.07 275.16 -20.07 275.16 -17.82 276.44 C-17.13 276.89 -16.43 277.34 -15.72 277.81 C-7.22 281.97 0.31 282.56 9.72 282.51 C11.1 282.52 12.49 282.52 13.87 282.53 C17.65 282.54 21.43 282.53 25.21 282.52 C29.29 282.52 33.38 282.53 37.46 282.54 C45.45 282.55 53.45 282.55 61.44 282.54 C67.94 282.53 74.44 282.53 80.93 282.53 C82.32 282.53 82.32 282.53 83.74 282.53 C85.62 282.54 87.5 282.54 89.38 282.54 C107.01 282.55 124.63 282.54 142.26 282.52 C157.37 282.51 172.49 282.51 187.6 282.52 C205.16 282.54 222.73 282.54 240.29 282.54 C242.16 282.53 244.03 282.53 245.91 282.53 C247.29 282.53 247.29 282.53 248.7 282.53 C255.19 282.53 261.68 282.53 268.17 282.54 C276.08 282.55 283.99 282.55 291.9 282.53 C295.93 282.52 299.96 282.52 304 282.53 C307.69 282.54 311.39 282.53 315.09 282.52 C317.05 282.51 319.01 282.52 320.97 282.53 C331.28 282.46 340.82 280.87 348.99 274.13 C353.62 268.19 354.14 263.61 354.14 256.28 C354.15 255.37 354.15 254.45 354.16 253.51 C354.17 250.43 354.17 247.34 354.18 244.26 C354.19 242.06 354.2 239.86 354.21 237.65 C354.23 230.4 354.25 223.15 354.26 215.9 C354.27 213.41 354.27 210.91 354.28 208.42 C354.3 198.04 354.32 187.67 354.33 177.29 C354.33 174.6 354.34 171.91 354.34 169.21 C354.34 168.21 354.34 168.21 354.34 167.19 C354.35 156.35 354.39 145.52 354.43 134.68 C354.47 123.55 354.49 112.42 354.5 101.29 C354.5 95.05 354.51 88.8 354.55 82.55 C354.58 76.68 354.58 70.8 354.57 64.92 C354.57 62.77 354.58 60.61 354.6 58.45 C354.62 55.51 354.61 52.56 354.6 49.62 C354.61 48.77 354.62 47.91 354.64 47.04 C354.56 40.98 352.92 36.78 348.99 32.13 C339.87 24.32 328.62 23.69 317.14 23.74 C315.76 23.74 314.38 23.73 312.99 23.73 C309.22 23.71 305.44 23.72 301.67 23.72 C297.59 23.73 293.5 23.72 289.42 23.71 C281.44 23.69 273.45 23.69 265.47 23.69 C258.97 23.7 252.48 23.7 245.99 23.69 C245.06 23.69 244.14 23.69 243.18 23.69 C241.3 23.69 239.42 23.69 237.54 23.68 C219.93 23.67 202.31 23.68 184.7 23.69 C168.6 23.7 152.49 23.68 136.39 23.66 C119.84 23.64 103.29 23.63 86.74 23.63 C77.46 23.64 68.17 23.63 58.89 23.62 C50.98 23.6 43.08 23.6 35.17 23.62 C31.14 23.63 27.12 23.63 23.09 23.61 C19.39 23.6 15.7 23.61 12 23.62 C10.05 23.63 8.09 23.62 6.13 23.6 C-4.58 23.69 -15.37 26.02 -23.01 34.13 Z " fill="#0B0F33" transform="translate(98.01187992095947,100.86857223510742)"/>
<path d="M0 0 C0.33 0 0.66 0 1 0 C1 1.07 1 2.15 1 3.25 C1.02 29.33 1.06 55.41 1.13 81.49 C1.17 94.1 1.19 106.72 1.2 119.33 C1.2 130.32 1.22 141.31 1.26 152.3 C1.28 158.12 1.29 163.94 1.29 169.77 C1.28 175.24 1.29 180.72 1.33 186.2 C1.34 188.21 1.34 190.22 1.33 192.23 C1.32 194.98 1.33 197.72 1.36 200.46 C1.35 201.26 1.34 202.06 1.33 202.88 C1.4 207.06 1.82 208.78 4.54 212.03 C5.35 212.68 6.16 213.33 7 214 C7.67 213.14 8.33 212.28 9.02 211.39 C14.25 204.68 19.56 198.08 25.09 191.61 C28.39 187.74 31.59 183.81 34.75 179.82 C36.59 177.51 38.45 175.22 40.31 172.93 C41.19 171.85 41.19 171.85 42.09 170.75 C43.26 169.31 44.44 167.88 45.61 166.44 C46.15 165.78 46.69 165.12 47.24 164.44 C47.73 163.85 48.21 163.26 48.71 162.65 C49.88 161.16 50.95 159.58 52 158 C52.52 158.21 53.05 158.42 53.59 158.64 C59.79 160.95 65.24 161.43 71.82 161.38 C73.41 161.39 73.41 161.39 75.02 161.4 C78.54 161.41 82.06 161.4 85.58 161.39 C88.11 161.39 90.64 161.4 93.17 161.4 C99.32 161.42 105.46 161.41 111.61 161.41 C116.61 161.4 121.61 161.4 126.61 161.4 C127.32 161.4 128.03 161.4 128.76 161.4 C130.21 161.4 131.66 161.4 133.11 161.41 C146.67 161.41 160.23 161.4 173.79 161.39 C185.41 161.37 197.04 161.38 208.66 161.39 C222.18 161.41 235.69 161.41 249.2 161.4 C250.64 161.4 252.09 161.4 253.53 161.4 C254.24 161.4 254.95 161.4 255.68 161.4 C260.67 161.4 265.66 161.4 270.65 161.41 C277.37 161.42 284.09 161.41 290.81 161.39 C293.27 161.39 295.74 161.39 298.2 161.4 C301.57 161.41 304.94 161.4 308.3 161.38 C309.28 161.39 310.25 161.39 311.26 161.4 C317.18 161.35 321.57 160.41 327 158 C335.49 168.29 343.95 178.61 352.36 188.97 C355.24 192.52 358.12 196.07 361 199.62 C361.53 200.28 362.06 200.93 362.6 201.6 C363.1 202.22 363.61 202.84 364.12 203.48 C364.6 204.07 365.08 204.66 365.58 205.27 C366.53 206.43 367.5 207.58 368.48 208.72 C372 212.8 372 212.8 372 215 C375.52 212.45 375.52 212.45 378 209 C378.11 206.27 378.15 203.56 378.16 200.83 C378.17 199.54 378.17 199.54 378.17 198.23 C378.19 195.35 378.2 192.47 378.21 189.59 C378.21 187.53 378.22 185.47 378.24 183.41 C378.26 177.8 378.28 172.2 378.3 166.59 C378.33 160.74 378.35 154.89 378.38 149.04 C378.43 137.95 378.47 126.86 378.52 115.77 C378.57 103.15 378.62 90.53 378.68 77.91 C378.79 51.94 378.9 25.97 379 0 C379.33 0 379.66 0 380 0 C380.09 28.53 380.16 57.05 380.2 85.58 C380.21 88.95 380.21 92.32 380.22 95.69 C380.22 96.36 380.22 97.03 380.22 97.72 C380.24 108.58 380.27 119.43 380.31 130.29 C380.35 141.43 380.37 152.57 380.38 163.71 C380.38 169.97 380.39 176.23 380.42 182.49 C380.45 188.38 380.46 194.26 380.45 200.15 C380.45 202.32 380.46 204.48 380.48 206.64 C380.5 209.59 380.49 212.54 380.48 215.5 C380.49 216.35 380.5 217.2 380.52 218.08 C380.45 224.9 378.61 230.24 373.88 235.25 C366.87 239.51 359.51 242.12 351.31 242.13 C350.14 242.14 348.97 242.14 347.77 242.15 C346.48 242.15 345.2 242.15 343.88 242.15 C342.5 242.15 341.12 242.15 339.74 242.16 C335.95 242.17 332.16 242.17 328.38 242.17 C324.29 242.18 320.2 242.19 316.12 242.2 C306.25 242.22 296.38 242.23 286.51 242.24 C281.86 242.24 277.22 242.25 272.57 242.25 C257.11 242.27 241.66 242.28 226.21 242.29 C222.2 242.29 218.19 242.29 214.18 242.3 C213.18 242.3 212.18 242.3 211.15 242.3 C195.01 242.3 178.87 242.33 162.73 242.36 C146.15 242.4 129.57 242.41 113 242.42 C103.69 242.42 94.39 242.43 85.08 242.45 C77.16 242.48 69.23 242.48 61.3 242.47 C57.26 242.47 53.22 242.47 49.18 242.49 C45.47 242.51 41.77 242.51 38.06 242.49 C36.1 242.49 34.13 242.5 32.17 242.52 C21.63 242.44 13.23 240.05 4.66 233.86 C-0.17 228.45 -0.43 222.5 -0.36 215.62 C-0.36 214.69 -0.37 213.77 -0.37 212.81 C-0.37 209.73 -0.36 206.64 -0.34 203.55 C-0.34 201.33 -0.34 199.12 -0.34 196.9 C-0.34 190.88 -0.33 184.87 -0.3 178.86 C-0.29 172.57 -0.28 166.28 -0.28 159.99 C-0.27 149.44 -0.25 138.89 -0.23 128.34 C-0.2 117.48 -0.18 106.61 -0.16 95.75 C-0.16 95.08 -0.16 94.41 -0.16 93.71 C-0.16 90.35 -0.15 86.99 -0.15 83.63 C-0.12 55.75 -0.07 27.88 0 0 Z " fill="#86C1D5" transform="translate(72,141)"/>
<path d="M0 0 C5.51 -0.07 11.03 -0.13 16.54 -0.16 C18.41 -0.18 20.28 -0.2 22.16 -0.23 C48.25 -0.58 48.25 -0.58 58 8 C62.07 13 62.58 16.51 62.51 22.69 C62.53 23.99 62.53 23.99 62.54 25.31 C62.55 28.19 62.54 31.07 62.53 33.96 C62.54 36.03 62.55 38.09 62.56 40.16 C62.58 45.78 62.58 51.4 62.57 57.02 C62.57 61.71 62.57 66.4 62.58 71.09 C62.6 82.15 62.59 93.21 62.58 104.27 C62.56 115.69 62.58 127.1 62.61 138.51 C62.63 148.31 62.64 158.11 62.63 167.91 C62.63 173.77 62.63 179.62 62.65 185.47 C62.67 190.98 62.66 196.48 62.64 201.98 C62.63 204 62.64 206.02 62.65 208.04 C62.67 210.8 62.65 213.55 62.63 216.31 C62.64 217.11 62.65 217.91 62.66 218.73 C62.6 222.8 62.16 225.3 59.59 228.54 C57 231 57 231 55 231 C53.51 229.38 53.51 229.38 51.69 227 C50.97 226.08 50.26 225.17 49.52 224.23 C48.92 223.46 48.92 223.46 48.31 222.67 C45.85 219.54 43.33 216.46 40.81 213.38 C39.69 211.99 38.56 210.61 37.44 209.23 C36.87 208.53 36.31 207.84 35.72 207.12 C34.01 205.01 32.3 202.91 30.59 200.8 C30.03 200.12 29.48 199.43 28.91 198.73 C27.81 197.38 26.71 196.03 25.62 194.67 C23.19 191.68 20.75 188.69 18.29 185.73 C17.49 184.76 16.7 183.8 15.88 182.81 C15.19 181.99 14.51 181.18 13.8 180.33 C11.99 177.98 10.47 175.58 9 173 C9.66 173 10.32 173 11 173 C12.09 169.45 12.14 166.14 12.15 162.44 C12.16 161.78 12.16 161.13 12.17 160.45 C12.18 158.25 12.19 156.05 12.19 153.85 C12.2 152.27 12.21 150.69 12.22 149.11 C12.24 143.93 12.26 138.75 12.27 133.57 C12.28 131.78 12.28 130 12.29 128.21 C12.31 120.79 12.33 113.37 12.34 105.96 C12.36 95.32 12.39 84.69 12.45 74.06 C12.49 66.58 12.51 59.1 12.51 51.62 C12.51 47.16 12.53 42.69 12.56 38.22 C12.59 34.02 12.6 29.82 12.58 25.62 C12.58 24.08 12.59 22.54 12.61 21 C12.63 18.89 12.62 16.79 12.61 14.69 C12.61 13.51 12.61 12.33 12.62 11.12 C11.82 7.07 10.13 5.59 7 3 C5.06 2.02 5.06 2.02 3.19 1.69 C1.61 1.35 1.61 1.35 0 1 C0 0.67 0 0.34 0 0 Z " fill="#BDE1EA" transform="translate(389,125)"/>
<path d="M0 0 C0.88 0 1.76 0.01 2.66 0.01 C5.44 0.02 8.22 0.04 11 0.07 C12.9 0.08 14.79 0.09 16.69 0.1 C21.32 0.12 25.94 0.15 30.57 0.2 C28.37 1.66 26.25 2.94 23.94 4.2 C20.54 5.8 20.54 5.8 19.57 8.2 C19.47 10.3 19.43 12.41 19.43 14.51 C19.42 15.17 19.42 15.83 19.42 16.5 C19.41 18.71 19.41 20.92 19.41 23.12 C19.4 24.7 19.4 26.28 19.39 27.86 C19.38 32.15 19.37 36.45 19.37 40.74 C19.36 43.43 19.36 46.11 19.35 48.79 C19.34 57.18 19.33 65.57 19.33 73.96 C19.32 83.65 19.31 93.34 19.28 103.03 C19.25 110.52 19.24 118.01 19.24 125.49 C19.24 129.97 19.24 134.44 19.22 138.91 C19.2 143.12 19.2 147.33 19.21 151.54 C19.21 153.08 19.21 154.62 19.2 156.17 C19.18 158.28 19.19 160.39 19.2 162.5 C19.2 163.68 19.2 164.86 19.19 166.07 C19.6 169.5 20.59 171.4 22.57 174.2 C21.91 174.2 21.25 174.2 20.57 174.2 C20.16 175.08 20.16 175.08 19.74 175.97 C18.59 178.15 17.35 179.85 15.77 181.74 C15.21 182.41 14.65 183.09 14.07 183.78 C13.47 184.49 12.87 185.21 12.25 185.95 C10.98 187.48 9.7 189.02 8.43 190.55 C7.78 191.33 7.13 192.1 6.47 192.9 C3.62 196.34 0.81 199.79 -2 203.26 C-2.52 203.9 -3.05 204.55 -3.59 205.22 C-6.4 208.68 -9.2 212.14 -12 215.61 C-12.58 216.34 -13.17 217.06 -13.77 217.81 C-14.89 219.19 -16.01 220.58 -17.12 221.97 C-19.75 225.22 -22.4 228.31 -25.43 231.2 C-29.49 227.15 -31 224.66 -31.1 218.93 C-31.09 218.13 -31.07 217.33 -31.06 216.5 C-31.07 215.64 -31.08 214.78 -31.08 213.89 C-31.1 211.01 -31.08 208.12 -31.06 205.24 C-31.07 203.17 -31.08 201.1 -31.09 199.03 C-31.1 193.41 -31.09 187.8 -31.07 182.18 C-31.06 176.3 -31.06 170.42 -31.07 164.54 C-31.07 154.67 -31.06 144.8 -31.03 134.92 C-31 123.51 -31 112.1 -31.02 100.68 C-31.03 89.7 -31.02 78.72 -31.01 67.74 C-31 63.07 -31 58.4 -31.01 53.72 C-31.02 48.22 -31 42.72 -30.98 37.21 C-30.97 35.2 -30.97 33.18 -30.98 31.16 C-30.99 28.4 -30.97 25.64 -30.95 22.89 C-30.96 22.09 -30.96 21.29 -30.97 20.46 C-30.9 15.27 -29.84 12.34 -26.43 8.2 C-24.1 6.37 -24.1 6.37 -21.62 4.95 C-20.81 4.47 -20 3.99 -19.16 3.49 C-12.7 0.42 -7.05 -0.09 0 0 Z " fill="#BDE1EA" transform="translate(103.43359375,124.8046875)"/>
<path d="M0 0 C0.33 0 0.66 0 1 0 C1 1.07 1 2.14 1 3.24 C0.99 29.29 1.02 55.34 1.08 81.39 C1.11 93.98 1.13 106.58 1.12 119.18 C1.11 130.16 1.13 141.13 1.17 152.11 C1.19 157.93 1.2 163.74 1.18 169.55 C1.17 175.03 1.18 180.5 1.21 185.97 C1.22 187.98 1.22 189.99 1.21 191.99 C1.19 194.74 1.21 197.48 1.24 200.22 C1.23 201.02 1.21 201.81 1.2 202.63 C1.31 207.93 2.74 210.68 6.34 214.55 C15.31 222.39 27.31 222.3 38.56 222.27 C39.92 222.27 41.29 222.28 42.65 222.28 C46.38 222.29 50.11 222.29 53.84 222.29 C57.87 222.29 61.9 222.3 65.92 222.31 C73.81 222.33 81.7 222.33 89.58 222.33 C95.99 222.34 102.41 222.34 108.82 222.35 C127.02 222.36 145.22 222.37 163.41 222.37 C164.39 222.37 165.37 222.37 166.38 222.37 C167.36 222.37 168.35 222.37 169.36 222.37 C185.26 222.37 201.16 222.39 217.06 222.42 C233.41 222.45 249.75 222.46 266.09 222.46 C275.26 222.46 284.43 222.46 293.6 222.48 C301.41 222.5 309.22 222.51 317.02 222.49 C321 222.49 324.98 222.49 328.96 222.5 C332.61 222.52 336.26 222.52 339.91 222.5 C341.84 222.49 343.77 222.51 345.7 222.53 C354.07 222.46 361.16 220.91 369 218 C369.92 217.67 370.85 217.33 371.8 216.99 C374.54 215.76 374.92 214.74 376 212 C376.66 211.01 377.32 210.02 378 209 C378.2 206.2 378.29 203.5 378.28 200.7 C378.29 199.42 378.29 199.42 378.3 198.11 C378.31 195.23 378.32 192.35 378.32 189.47 C378.33 187.41 378.34 185.35 378.35 183.3 C378.38 177.69 378.39 172.09 378.4 166.49 C378.42 160.64 378.45 154.79 378.47 148.94 C378.52 137.86 378.56 126.78 378.59 115.7 C378.63 103.08 378.68 90.47 378.73 77.86 C378.83 51.9 378.92 25.95 379 0 C379.33 0 379.66 0 380 0 C380.09 28.53 380.16 57.05 380.2 85.58 C380.21 88.95 380.21 92.32 380.22 95.69 C380.22 96.36 380.22 97.03 380.22 97.72 C380.24 108.58 380.27 119.43 380.31 130.29 C380.35 141.43 380.37 152.57 380.38 163.71 C380.38 169.97 380.39 176.23 380.42 182.49 C380.45 188.38 380.46 194.26 380.45 200.15 C380.45 202.32 380.46 204.48 380.48 206.64 C380.5 209.59 380.49 212.54 380.48 215.5 C380.49 216.35 380.5 217.2 380.52 218.08 C380.45 224.9 378.61 230.24 373.88 235.25 C366.87 239.51 359.51 242.12 351.31 242.13 C350.14 242.14 348.97 242.14 347.77 242.15 C346.48 242.15 345.2 242.15 343.88 242.15 C342.5 242.15 341.12 242.15 339.74 242.16 C335.95 242.17 332.16 242.17 328.38 242.17 C324.29 242.18 320.2 242.19 316.12 242.2 C306.25 242.22 296.38 242.23 286.51 242.24 C281.86 242.24 277.22 242.25 272.57 242.25 C257.11 242.27 241.66 242.28 226.21 242.29 C222.2 242.29 218.19 242.29 214.18 242.3 C213.18 242.3 212.18 242.3 211.15 242.3 C195.01 242.3 178.87 242.33 162.73 242.36 C146.15 242.4 129.57 242.41 113 242.42 C103.69 242.42 94.39 242.43 85.08 242.45 C77.16 242.48 69.23 242.48 61.3 242.47 C57.26 242.47 53.22 242.47 49.18 242.49 C45.47 242.51 41.77 242.51 38.06 242.49 C36.1 242.49 34.13 242.5 32.17 242.52 C21.63 242.44 13.23 240.05 4.66 233.86 C-0.17 228.45 -0.43 222.5 -0.36 215.62 C-0.36 214.69 -0.37 213.77 -0.37 212.81 C-0.37 209.73 -0.36 206.64 -0.34 203.55 C-0.34 201.33 -0.34 199.12 -0.34 196.9 C-0.34 190.88 -0.33 184.87 -0.3 178.86 C-0.29 172.57 -0.28 166.28 -0.28 159.99 C-0.27 149.44 -0.25 138.89 -0.23 128.34 C-0.2 117.48 -0.18 106.61 -0.16 95.75 C-0.16 95.08 -0.16 94.41 -0.16 93.71 C-0.16 90.35 -0.15 86.99 -0.15 83.63 C-0.12 55.75 -0.07 27.88 0 0 Z " fill="#4C9EBB" transform="translate(72,141)"/>
<path d="M0 0 C2.98 -0.03 5.96 -0.05 8.94 -0.06 C9.79 -0.07 10.64 -0.08 11.51 -0.09 C12.32 -0.09 13.13 -0.09 13.96 -0.1 C14.71 -0.1 15.46 -0.11 16.23 -0.11 C18 0 18 0 19 1 C19.09 2.49 19.11 3.98 19.1 5.47 C19.09 6.37 19.09 7.27 19.09 8.2 C19.08 9.14 19.07 10.09 19.06 11.06 C19.06 12.01 19.05 12.96 19.05 13.94 C19.04 16.29 19.02 18.65 19 21 C23.95 21 28.9 21 34 21 C33.99 19.57 33.98 18.14 33.96 16.66 C33.96 14.79 33.95 12.93 33.94 11.06 C33.93 10.12 33.92 9.17 33.91 8.2 C33.91 7.3 33.91 6.4 33.9 5.47 C33.9 4.64 33.89 3.81 33.89 2.95 C34 1 34 1 35 0 C36.33 -0.1 37.67 -0.13 39 -0.13 C39.8 -0.13 40.61 -0.14 41.44 -0.14 C42.28 -0.13 43.13 -0.13 44 -0.12 C45.27 -0.13 45.27 -0.13 46.56 -0.14 C47.37 -0.14 48.17 -0.13 49 -0.13 C49.74 -0.13 50.49 -0.13 51.25 -0.13 C53 0 53 0 54 1 C54.1 2.8 54.14 4.6 54.15 6.41 C54.15 7.56 54.16 8.72 54.16 9.91 C54.17 11.16 54.17 12.42 54.17 13.71 C54.17 15.64 54.17 15.64 54.18 17.6 C54.18 20.31 54.19 23.03 54.19 25.75 C54.19 29.23 54.2 32.72 54.22 36.2 C54.23 39.52 54.23 42.84 54.23 46.15 C54.24 47.41 54.24 48.66 54.25 49.96 C54.25 51.11 54.25 52.27 54.24 53.46 C54.24 54.49 54.25 55.51 54.25 56.56 C54 59 54 59 52 61 C49.11 61.17 46.33 61.23 43.44 61.19 C42.64 61.19 41.85 61.19 41.03 61.19 C35.14 61.14 35.14 61.14 34 60 C33.91 58.37 33.89 56.73 33.9 55.09 C33.91 54.1 33.91 53.11 33.91 52.09 C33.92 50.53 33.92 50.53 33.94 48.94 C33.94 47.89 33.95 46.85 33.95 45.77 C33.96 43.18 33.98 40.59 34 38 C29.05 38 24.1 38 19 38 C19.01 39.58 19.02 41.15 19.04 42.78 C19.04 44.83 19.05 46.88 19.06 48.94 C19.07 49.98 19.08 51.02 19.09 52.09 C19.09 53.58 19.09 53.58 19.1 55.09 C19.11 56.46 19.11 56.46 19.11 57.87 C19 60 19 60 18 61 C15.16 61.1 12.34 61.14 9.5 61.12 C8.7 61.13 7.9 61.13 7.08 61.14 C1.13 61.13 1.13 61.13 0 60 C-0.09 58.13 -0.12 56.25 -0.11 54.38 C-0.11 53.18 -0.11 51.98 -0.11 50.74 C-0.11 49.43 -0.1 48.12 -0.1 46.78 C-0.1 45.43 -0.09 44.09 -0.09 42.75 C-0.09 39.2 -0.08 35.66 -0.07 32.12 C-0.06 28.5 -0.05 24.89 -0.05 21.28 C-0.04 14.19 -0.02 7.09 0 0 Z " fill="#3F6786" transform="translate(198,181)"/>
<path d="M0 0 C0.88 -0.01 1.76 -0.01 2.66 -0.02 C4.53 -0.03 6.39 -0.03 8.26 -0.04 C11.11 -0.05 13.97 -0.08 16.82 -0.11 C18.63 -0.12 20.44 -0.12 22.25 -0.12 C23.53 -0.14 23.53 -0.14 24.84 -0.16 C25.64 -0.16 26.44 -0.16 27.26 -0.15 C28.31 -0.16 28.31 -0.16 29.39 -0.16 C31.84 0.32 32.73 1.27 34.26 3.2 C34.66 5.36 34.66 5.36 34.63 7.7 C34.64 8.86 34.64 8.86 34.66 10.05 C34.15 12.81 33.51 13.53 31.26 15.2 C28.44 15.54 28.44 15.54 25.06 15.5 C23.85 15.49 22.64 15.48 21.4 15.47 C20.13 15.44 18.87 15.42 17.57 15.39 C15.66 15.37 15.66 15.37 13.71 15.35 C10.56 15.31 7.41 15.26 4.26 15.2 C4.26 17.51 4.26 19.82 4.26 22.2 C4.93 22.19 5.6 22.17 6.29 22.16 C9.34 22.09 12.39 22.05 15.45 22.02 C16.5 21.99 17.56 21.97 18.64 21.94 C20.17 21.92 20.17 21.92 21.74 21.91 C22.68 21.89 23.61 21.88 24.58 21.86 C29 22.42 32.43 24.81 35.26 28.2 C36.77 32.75 36.52 37.25 36.57 42.02 C36.6 43 36.63 43.99 36.66 45 C36.71 50.91 36.44 54.67 32.26 59.2 C27.68 62.87 24.15 63.79 18.41 63.7 C17.68 63.7 16.94 63.7 16.18 63.7 C14.64 63.7 13.1 63.69 11.55 63.67 C9.2 63.64 6.85 63.65 4.49 63.66 C2.98 63.66 1.48 63.65 -0.03 63.64 C-0.73 63.64 -1.43 63.64 -2.15 63.65 C-6.51 63.56 -9.25 62.84 -12.74 60.2 C-15.15 56.89 -15.04 53.65 -15.05 49.64 C-15.07 48.5 -15.09 47.37 -15.11 46.2 C-14.74 43.2 -14.74 43.2 -13.66 41.32 C-10.69 39.59 -8.08 39.84 -4.68 39.89 C-3.43 39.89 -2.18 39.9 -0.89 39.9 C2.26 40.2 2.26 40.2 4.26 42.2 C4.26 43.52 4.26 44.84 4.26 46.2 C9.21 46.2 14.16 46.2 19.26 46.2 C19.26 43.23 19.26 40.26 19.26 37.2 C18.53 37.22 17.81 37.23 17.06 37.25 C13.75 37.31 10.44 37.35 7.13 37.39 C5.99 37.42 4.85 37.44 3.67 37.47 C-7.3 37.56 -7.3 37.56 -11.74 34.2 C-16 29.65 -15.26 23.57 -15.24 17.7 C-15.27 16.67 -15.3 15.64 -15.33 14.57 C-15.35 7.18 -15.35 7.18 -13.63 4.41 C-12.27 3.05 -12.27 3.05 -9.74 1.2 C-7.63 -0.91 -2.93 0.01 0 0 Z " fill="#3F6786" transform="translate(156.7421875,180.796875)"/>
<path d="M0 0 C1.37 0 1.37 0 2.76 0.01 C3.69 0.01 4.62 0 5.57 0 C7.54 0 9.51 0 11.47 0.01 C14.5 0.01 17.52 0.01 20.54 0 C22.45 0 24.35 0 26.26 0.01 C27.17 0 28.08 0 29.02 0 C35.39 0.02 35.39 0.02 36.51 1.14 C36.64 3.63 36.69 6.08 36.7 8.58 C36.71 9.27 36.72 9.96 36.73 10.68 C36.74 12.5 36.63 14.32 36.51 16.14 C34.51 18.14 34.51 18.14 32.17 18.37 C31.22 18.36 30.26 18.35 29.28 18.33 C27.74 18.32 27.74 18.32 26.16 18.31 C25.08 18.3 24 18.28 22.88 18.26 C21.8 18.25 20.71 18.25 19.59 18.24 C16.89 18.21 14.2 18.18 11.51 18.14 C11.51 20.78 11.51 23.42 11.51 26.14 C12.11 26.13 12.71 26.13 13.33 26.12 C16.03 26.1 18.74 26.09 21.45 26.08 C22.39 26.07 23.34 26.06 24.31 26.05 C25.66 26.05 25.66 26.05 27.04 26.04 C28.29 26.03 28.29 26.03 29.56 26.03 C31.51 26.14 31.51 26.14 32.51 27.14 C32.63 29.28 32.68 31.43 32.7 33.58 C32.71 34.75 32.72 35.93 32.74 37.14 C32.51 40.14 32.51 40.14 30.51 42.14 C28.63 42.37 28.63 42.37 26.38 42.33 C25.57 42.33 24.76 42.32 23.93 42.31 C22.67 42.29 22.67 42.29 21.38 42.26 C20.11 42.25 20.11 42.25 18.81 42.24 C16.71 42.21 14.61 42.18 12.51 42.14 C12.53 43.34 12.56 44.55 12.58 45.79 C12.6 47.36 12.62 48.94 12.63 50.51 C12.66 51.71 12.66 51.71 12.68 52.92 C12.7 54.99 12.61 57.07 12.51 59.14 C10.51 61.14 10.51 61.14 6.63 61.37 C5.07 61.37 3.51 61.35 1.95 61.33 C1.15 61.33 0.36 61.33 -0.46 61.32 C-6.35 61.28 -6.35 61.28 -7.49 60.14 C-7.59 58.3 -7.62 56.46 -7.62 54.63 C-7.62 53.45 -7.63 52.27 -7.63 51.06 C-7.63 49.77 -7.63 48.49 -7.62 47.17 C-7.62 45.86 -7.63 44.56 -7.63 43.21 C-7.63 40.45 -7.63 37.68 -7.62 34.91 C-7.62 31.36 -7.62 27.8 -7.63 24.25 C-7.63 20.87 -7.63 17.49 -7.62 14.11 C-7.63 12.83 -7.63 11.54 -7.63 10.22 C-7.63 9.04 -7.62 7.87 -7.62 6.65 C-7.62 5.61 -7.62 4.57 -7.62 3.49 C-7.36 -1.34 -4.09 0.02 0 0 Z " fill="#3F6886" transform="translate(294.4912109375,180.86105346679688)"/>
<path d="M0 0 C1.35 -0 1.35 -0 2.72 -0.01 C4.18 -0.01 4.18 -0.01 5.68 -0 C6.67 -0 7.67 -0.01 8.69 -0.01 C10.8 -0.01 12.91 -0.01 15.02 -0 C18.26 0 21.5 -0 24.74 -0.01 C26.78 -0.01 28.82 -0.01 30.87 -0 C31.84 -0.01 32.82 -0.01 33.82 -0.01 C34.72 -0.01 35.62 -0 36.54 0 C37.73 0 37.73 0 38.95 0 C40.77 0.13 40.77 0.13 41.77 1.13 C41.87 3.81 41.91 6.45 41.9 9.13 C41.9 10.25 41.9 10.25 41.91 11.4 C41.9 17 41.9 17 40.77 18.13 C38.59 18.2 36.4 18.21 34.21 18.19 C32.41 18.18 32.41 18.18 30.58 18.16 C29.65 18.15 28.73 18.14 27.77 18.13 C27.78 19.4 27.78 20.66 27.79 21.97 C27.81 26.65 27.82 31.34 27.83 36.02 C27.83 38.05 27.84 40.08 27.85 42.11 C27.86 45.02 27.86 47.93 27.87 50.84 C27.87 51.76 27.88 52.67 27.88 53.61 C27.88 55.79 27.83 57.96 27.77 60.13 C26.02 61.88 23.74 61.26 21.4 61.27 C20.7 61.26 20 61.26 19.27 61.25 C18.57 61.26 17.87 61.26 17.14 61.27 C11.9 61.26 11.9 61.26 10.77 60.13 C10.68 57.03 10.66 53.95 10.67 50.84 C10.68 49.91 10.68 48.98 10.68 48.02 C10.68 45.04 10.7 42.05 10.71 39.07 C10.71 37.05 10.72 35.03 10.72 33.01 C10.73 28.05 10.75 23.09 10.77 18.13 C9.16 18.15 9.16 18.15 7.53 18.16 C6.13 18.17 4.73 18.18 3.33 18.19 C2.63 18.2 1.92 18.21 1.19 18.22 C-0.62 18.23 -2.42 18.18 -4.23 18.13 C-6.05 16.31 -5.36 13.82 -5.37 11.4 C-5.36 10.65 -5.36 9.9 -5.35 9.13 C-5.36 8.38 -5.36 7.63 -5.37 6.86 C-5.35 0.01 -5.35 0.01 0 0 Z " fill="#3D6685" transform="translate(343.228515625,180.87060546875)"/>
<path d="M0 0 C0.8 -0 1.61 -0 2.44 -0 C3.28 -0 4.13 0 5 0.01 C6.27 0 6.27 0 7.56 -0 C8.37 -0 9.17 -0 10 0 C10.74 0 11.49 0 12.25 0 C14 0.13 14 0.13 15 1.13 C15.1 2.97 15.13 4.81 15.13 6.65 C15.13 7.82 15.14 9 15.14 10.22 C15.14 11.5 15.13 12.78 15.13 14.1 C15.13 16.06 15.13 16.06 15.14 18.06 C15.14 20.83 15.14 23.59 15.13 26.36 C15.12 29.92 15.13 33.47 15.13 37.02 C15.14 40.4 15.14 43.78 15.13 47.16 C15.13 48.45 15.14 49.73 15.14 51.05 C15.14 52.23 15.13 53.41 15.13 54.62 C15.13 55.66 15.13 56.7 15.13 57.78 C15 60.13 15 60.13 14 61.13 C12.67 61.23 11.33 61.26 10 61.27 C9.2 61.27 8.39 61.27 7.56 61.27 C6.72 61.27 5.87 61.26 5 61.26 C4.15 61.26 3.31 61.27 2.44 61.27 C1.63 61.27 0.83 61.27 0 61.27 C-0.74 61.26 -1.49 61.26 -2.25 61.26 C-4 61.13 -4 61.13 -5 60.13 C-5.1 58.3 -5.13 56.46 -5.13 54.62 C-5.13 53.44 -5.14 52.26 -5.14 51.05 C-5.14 49.77 -5.13 48.49 -5.13 47.16 C-5.13 45.86 -5.13 44.55 -5.14 43.21 C-5.14 40.44 -5.14 37.67 -5.13 34.9 C-5.12 31.35 -5.13 27.8 -5.13 24.24 C-5.14 20.86 -5.14 17.48 -5.13 14.1 C-5.13 12.82 -5.14 11.54 -5.14 10.22 C-5.14 9.04 -5.13 7.86 -5.13 6.65 C-5.13 5.6 -5.13 4.56 -5.13 3.49 C-4.92 -0.42 -3.51 0.01 0 0 Z " fill="#3F6886" transform="translate(262,180.8671875)"/>
<path d="M0 0 C7.59 0 15.18 0 23 0 C23 2.97 23 5.94 23 9 C18.05 9 13.1 9 8 9 C7.34 7.35 6.68 5.7 6 4 C2.04 3.67 -1.92 3.34 -6 3 C-6 2.67 -6 2.34 -6 2 C-4.02 1.67 -2.04 1.34 0 1 C0 0.67 0 0.34 0 0 Z " fill="#E8EAED" transform="translate(153,218)"/>
</svg>
