<?xml version="1.0" encoding="UTF-8"?>
<!-- Generator: visioncortex VTracer 0.6.3 -->
<svg version="1.1" xmlns="http://www.w3.org/2000/svg" width="512" height="512">
<path d="M0 0 C1.42 -0 2.83 -0.01 4.25 -0.01 C8.12 -0.03 12 -0.03 15.88 -0.02 C20.07 -0.02 24.25 -0.03 28.44 -0.04 C36.64 -0.06 44.84 -0.07 53.04 -0.07 C59.7 -0.07 66.37 -0.07 73.04 -0.08 C91.96 -0.1 110.87 -0.1 129.79 -0.1 C131.32 -0.1 131.32 -0.1 132.88 -0.1 C133.9 -0.1 134.92 -0.1 135.97 -0.1 C152.5 -0.1 169.04 -0.12 185.57 -0.15 C202.56 -0.18 219.54 -0.19 236.53 -0.19 C246.07 -0.19 255.6 -0.2 265.13 -0.22 C273.25 -0.23 281.36 -0.24 289.48 -0.23 C293.62 -0.22 297.76 -0.22 301.89 -0.24 C305.69 -0.25 309.49 -0.25 313.28 -0.23 C315.29 -0.23 317.29 -0.24 319.3 -0.26 C334.16 -0.15 349.31 4.15 360.45 14.46 C372.83 28.24 372.51 43.82 372.44 61.31 C372.45 63.53 372.45 65.75 372.46 67.97 C372.47 73.98 372.46 79.99 372.44 85.99 C372.43 92.29 372.44 98.59 372.44 104.89 C372.44 115.46 372.43 126.04 372.41 136.61 C372.39 147.47 372.38 158.33 372.39 169.19 C372.39 182.31 372.39 195.42 372.38 208.54 C372.37 213.54 372.37 218.54 372.38 223.54 C372.38 229.43 372.37 235.31 372.35 241.2 C372.35 243.36 372.35 245.52 372.35 247.67 C372.35 250.62 372.35 253.58 372.33 256.53 C372.34 257.37 372.34 258.22 372.34 259.09 C372.25 272.51 368.76 282.13 359.56 291.94 C346.41 304.25 329.37 306.58 312.1 306.53 C310.72 306.54 309.33 306.54 307.95 306.55 C304.17 306.56 300.4 306.56 296.62 306.56 C292.54 306.56 288.46 306.57 284.38 306.58 C276.39 306.59 268.4 306.6 260.41 306.6 C253.91 306.6 247.42 306.61 240.92 306.61 C222.47 306.63 204.02 306.64 185.58 306.64 C184.58 306.64 183.59 306.64 182.57 306.64 C181.57 306.64 180.58 306.64 179.55 306.64 C163.44 306.64 147.33 306.66 131.22 306.68 C114.66 306.71 98.09 306.73 81.53 306.73 C72.24 306.72 62.94 306.73 53.65 306.75 C45.74 306.77 37.83 306.77 29.92 306.76 C25.89 306.75 21.86 306.75 17.83 306.77 C-5.36 306.87 -27.85 306.91 -45.73 289.75 C-57.48 276.47 -56.22 260.16 -56.19 243.52 C-56.19 241.32 -56.19 239.12 -56.2 236.92 C-56.21 230.96 -56.2 225 -56.2 219.05 C-56.19 212.8 -56.2 206.56 -56.2 200.31 C-56.2 189.16 -56.2 178 -56.19 166.84 C-56.18 156.75 -56.18 146.65 -56.19 136.55 C-56.2 124.8 -56.2 113.04 -56.2 101.29 C-56.19 95.08 -56.19 88.87 -56.2 82.66 C-56.21 76.82 -56.2 70.98 -56.19 65.14 C-56.19 63 -56.19 60.86 -56.19 58.72 C-56.2 55.79 -56.19 52.87 -56.18 49.94 C-56.19 49.1 -56.19 48.26 -56.19 47.4 C-56.11 34.94 -52.94 23.28 -43.93 14.27 C-30.74 3.42 -16.7 -0.04 0 0 Z " fill="#F3F3F3" transform="translate(103.92739868164063,97.73257446289063)"/>
<path d="M0 0 C1.42 -0 2.83 -0.01 4.25 -0.01 C8.12 -0.03 12 -0.03 15.88 -0.02 C20.07 -0.02 24.25 -0.03 28.44 -0.04 C36.64 -0.06 44.84 -0.07 53.04 -0.07 C59.7 -0.07 66.37 -0.07 73.04 -0.08 C91.96 -0.1 110.87 -0.1 129.79 -0.1 C131.32 -0.1 131.32 -0.1 132.88 -0.1 C133.9 -0.1 134.92 -0.1 135.97 -0.1 C152.5 -0.1 169.04 -0.12 185.57 -0.15 C202.56 -0.18 219.54 -0.19 236.53 -0.19 C246.07 -0.19 255.6 -0.2 265.13 -0.22 C273.25 -0.23 281.36 -0.24 289.48 -0.23 C293.62 -0.22 297.76 -0.22 301.89 -0.24 C305.69 -0.25 309.49 -0.25 313.28 -0.23 C315.29 -0.23 317.29 -0.24 319.3 -0.26 C334.16 -0.15 349.31 4.15 360.45 14.46 C372.83 28.24 372.51 43.82 372.44 61.31 C372.45 63.53 372.45 65.75 372.46 67.97 C372.47 73.98 372.46 79.99 372.44 85.99 C372.43 92.29 372.44 98.59 372.44 104.89 C372.44 115.46 372.43 126.04 372.41 136.61 C372.39 147.47 372.38 158.33 372.39 169.19 C372.39 182.31 372.39 195.42 372.38 208.54 C372.37 213.54 372.37 218.54 372.38 223.54 C372.38 229.43 372.37 235.31 372.35 241.2 C372.35 243.36 372.35 245.52 372.35 247.67 C372.35 250.62 372.35 253.58 372.33 256.53 C372.34 257.37 372.34 258.22 372.34 259.09 C372.25 272.51 368.76 282.13 359.56 291.94 C346.41 304.25 329.37 306.58 312.1 306.53 C310.72 306.54 309.33 306.54 307.95 306.55 C304.17 306.56 300.4 306.56 296.62 306.56 C292.54 306.56 288.46 306.57 284.38 306.58 C276.39 306.59 268.4 306.6 260.41 306.6 C253.91 306.6 247.42 306.61 240.92 306.61 C222.47 306.63 204.02 306.64 185.58 306.64 C184.58 306.64 183.59 306.64 182.57 306.64 C181.57 306.64 180.58 306.64 179.55 306.64 C163.44 306.64 147.33 306.66 131.22 306.68 C114.66 306.71 98.09 306.73 81.53 306.73 C72.24 306.72 62.94 306.73 53.65 306.75 C45.74 306.77 37.83 306.77 29.92 306.76 C25.89 306.75 21.86 306.75 17.83 306.77 C-5.36 306.87 -27.85 306.91 -45.73 289.75 C-57.48 276.47 -56.22 260.16 -56.19 243.52 C-56.19 241.32 -56.19 239.12 -56.2 236.92 C-56.21 230.96 -56.2 225 -56.2 219.05 C-56.19 212.8 -56.2 206.56 -56.2 200.31 C-56.2 189.16 -56.2 178 -56.19 166.84 C-56.18 156.75 -56.18 146.65 -56.19 136.55 C-56.2 124.8 -56.2 113.04 -56.2 101.29 C-56.19 95.08 -56.19 88.87 -56.2 82.66 C-56.21 76.82 -56.2 70.98 -56.19 65.14 C-56.19 63 -56.19 60.86 -56.19 58.72 C-56.2 55.79 -56.19 52.87 -56.18 49.94 C-56.19 49.1 -56.19 48.26 -56.19 47.4 C-56.11 34.94 -52.94 23.28 -43.93 14.27 C-30.74 3.42 -16.7 -0.04 0 0 Z M-28.93 34.27 C-32.13 39.45 -32.36 43.57 -32.32 49.48 C-32.32 50.4 -32.33 51.31 -32.33 52.26 C-32.35 55.33 -32.34 58.4 -32.33 61.48 C-32.34 63.68 -32.34 65.89 -32.35 68.09 C-32.37 74.08 -32.37 80.06 -32.36 86.05 C-32.36 91.04 -32.37 96.04 -32.37 101.04 C-32.39 113.5 -32.38 125.97 -32.37 138.43 C-32.36 149.25 -32.37 160.07 -32.4 170.88 C-32.42 182 -32.43 193.11 -32.43 204.23 C-32.42 210.46 -32.42 216.7 -32.44 222.94 C-32.46 228.8 -32.45 234.67 -32.43 240.53 C-32.43 242.68 -32.43 244.83 -32.44 246.99 C-32.46 249.93 -32.45 252.86 -32.43 255.8 C-32.44 256.65 -32.45 257.5 -32.46 258.37 C-32.38 264.98 -30.68 270.45 -25.99 275.26 C-15.74 281.84 -5.02 282.71 6.92 282.65 C8.28 282.65 9.63 282.66 10.99 282.66 C14.69 282.67 18.39 282.67 22.09 282.66 C26.09 282.65 30.09 282.66 34.1 282.67 C41.92 282.68 49.75 282.68 57.58 282.67 C63.94 282.67 70.31 282.67 76.67 282.67 C78.03 282.67 78.03 282.67 79.42 282.67 C81.27 282.67 83.11 282.67 84.96 282.67 C102.23 282.68 119.5 282.67 136.78 282.66 C151.58 282.64 166.38 282.64 181.19 282.66 C198.4 282.67 215.61 282.68 232.83 282.67 C234.66 282.67 236.5 282.67 238.34 282.67 C239.24 282.67 240.15 282.67 241.08 282.67 C247.43 282.66 253.78 282.67 260.14 282.68 C267.88 282.68 275.63 282.68 283.38 282.67 C287.33 282.66 291.28 282.66 295.23 282.67 C298.85 282.67 302.47 282.67 306.1 282.65 C308.01 282.65 309.93 282.66 311.84 282.67 C322.7 282.6 332.93 281.27 342.17 275.26 C347.59 269.59 348.66 263.39 348.58 255.81 C348.59 254.89 348.59 253.97 348.6 253.02 C348.62 249.95 348.6 246.88 348.59 243.82 C348.6 241.61 348.6 239.4 348.61 237.2 C348.63 231.22 348.62 225.23 348.61 219.25 C348.6 212.99 348.61 206.73 348.62 200.46 C348.62 189.28 348.61 178.09 348.59 166.9 C348.57 156.76 348.58 146.62 348.59 136.49 C348.62 124.7 348.62 112.92 348.61 101.13 C348.61 94.9 348.6 88.67 348.62 82.43 C348.63 76.57 348.62 70.71 348.6 64.85 C348.59 62.7 348.59 60.55 348.6 58.4 C348.61 55.47 348.6 52.53 348.58 49.6 C348.59 48.75 348.6 47.9 348.61 47.02 C348.51 39.88 346.46 35.6 341.26 30.52 C334.6 25.82 328.25 24.15 320.23 24.13 C319.05 24.13 317.87 24.12 316.66 24.12 C315.37 24.12 314.08 24.12 312.75 24.12 C311.36 24.12 309.98 24.11 308.59 24.11 C304.78 24.1 300.97 24.1 297.16 24.09 C293.05 24.09 288.94 24.08 284.83 24.07 C274.91 24.05 264.99 24.04 255.07 24.03 C250.39 24.03 245.72 24.02 241.04 24.02 C225.5 24 209.96 23.99 194.41 23.98 C190.38 23.98 186.35 23.97 182.32 23.97 C181.32 23.97 180.31 23.97 179.28 23.97 C163.05 23.96 146.82 23.94 130.58 23.9 C113.91 23.87 97.24 23.85 80.57 23.85 C71.21 23.85 61.85 23.84 52.49 23.81 C44.52 23.79 36.55 23.78 28.58 23.79 C24.52 23.8 20.46 23.8 16.39 23.78 C12.67 23.76 8.94 23.76 5.21 23.78 C3.24 23.78 1.26 23.76 -0.71 23.75 C-11.19 23.82 -21.93 25.71 -28.93 34.27 Z " fill="#0B0F33" transform="translate(103.92739868164063,97.73257446289063)"/>
<path d="M0 0 C0.33 0 0.66 0 1 0 C1 1.07 1 2.13 1.01 3.23 C1.07 29.19 1.14 55.15 1.24 81.1 C1.28 93.65 1.32 106.2 1.35 118.76 C1.37 129.69 1.4 140.63 1.45 151.57 C1.47 157.36 1.49 163.16 1.5 168.95 C1.5 174.4 1.52 179.85 1.55 185.3 C1.56 187.31 1.57 189.31 1.57 191.31 C1.56 194.04 1.58 196.77 1.6 199.5 C1.6 200.3 1.59 201.09 1.59 201.91 C1.65 206.45 2.26 209.34 5 213 C8.12 211.64 9.93 210.22 12.07 207.58 C12.63 206.89 13.19 206.2 13.77 205.49 C14.36 204.75 14.95 204.01 15.56 203.25 C16.18 202.49 16.8 201.72 17.44 200.94 C21.69 195.68 25.87 190.37 30.02 185.04 C33.6 180.45 37.35 176 41.13 171.57 C44.9 167.15 48.5 162.63 52 158 C54.54 158.44 56.72 158.86 59.04 160.02 C63.42 161.47 67.63 161.28 72.21 161.26 C73.25 161.26 74.29 161.27 75.36 161.27 C78.85 161.28 82.33 161.28 85.82 161.27 C88.31 161.28 90.81 161.28 93.31 161.29 C99.39 161.3 105.47 161.3 111.55 161.3 C116.5 161.3 121.45 161.3 126.39 161.31 C127.45 161.31 127.45 161.31 128.53 161.31 C129.96 161.31 131.39 161.31 132.82 161.31 C146.23 161.32 159.65 161.32 173.07 161.31 C185.33 161.31 197.6 161.32 209.86 161.34 C222.46 161.36 235.06 161.37 247.66 161.36 C254.73 161.36 261.8 161.36 268.87 161.38 C275.52 161.39 282.18 161.39 288.83 161.38 C291.27 161.37 293.71 161.38 296.14 161.38 C299.48 161.4 302.81 161.39 306.15 161.37 C307.11 161.38 308.07 161.39 309.06 161.4 C315.48 161.35 320.96 160.15 327 158 C332.64 164.56 338.19 171.17 343.5 178 C347.49 183.14 351.62 188.14 355.86 193.08 C359.86 197.77 363.65 202.6 367.38 207.51 C369.46 210.21 371.14 212.09 374 214 C377.95 209.05 378.58 205.62 378.52 199.38 C378.53 198.53 378.53 197.67 378.54 196.79 C378.56 193.94 378.55 191.08 378.55 188.23 C378.55 186.17 378.57 184.12 378.58 182.07 C378.61 176.51 378.61 170.95 378.61 165.39 C378.61 159.58 378.64 153.76 378.66 147.95 C378.7 136.94 378.72 125.94 378.73 114.93 C378.75 102.4 378.79 89.86 378.83 77.33 C378.91 51.56 378.96 25.78 379 0 C379.33 0 379.66 0 380 0 C380.09 28.53 380.16 57.05 380.2 85.58 C380.21 88.95 380.21 92.32 380.22 95.69 C380.22 96.36 380.22 97.03 380.22 97.72 C380.24 108.58 380.27 119.43 380.31 130.29 C380.35 141.43 380.37 152.57 380.38 163.71 C380.38 169.97 380.39 176.23 380.42 182.49 C380.45 188.38 380.46 194.26 380.45 200.15 C380.45 202.32 380.46 204.48 380.48 206.64 C380.5 209.59 380.49 212.54 380.48 215.5 C380.49 216.35 380.5 217.2 380.52 218.08 C380.45 224.7 378.75 230.13 374.1 234.99 C363.7 241.75 352.13 242.45 340.03 242.38 C338.67 242.38 337.31 242.39 335.95 242.4 C332.25 242.41 328.55 242.4 324.85 242.39 C320.85 242.39 316.85 242.4 312.84 242.4 C305.01 242.42 297.19 242.41 289.36 242.41 C282.99 242.4 276.63 242.4 270.27 242.4 C269.36 242.4 268.45 242.4 267.51 242.4 C265.67 242.4 263.83 242.4 261.98 242.41 C244.71 242.41 227.44 242.4 210.16 242.39 C195.36 242.37 180.56 242.38 165.76 242.39 C148.54 242.41 131.33 242.41 114.11 242.4 C112.27 242.4 110.44 242.4 108.6 242.4 C107.7 242.4 106.79 242.4 105.86 242.4 C99.51 242.4 93.15 242.4 86.8 242.41 C79.05 242.42 71.31 242.41 63.56 242.4 C59.61 242.39 55.66 242.39 51.71 242.4 C48.09 242.41 44.47 242.4 40.85 242.39 C38.93 242.38 37.02 242.39 35.1 242.4 C24.46 242.33 15 240.8 5.94 234.99 C1.24 230.17 -0.45 224.7 -0.52 218.08 C-0.5 217.23 -0.49 216.37 -0.48 215.5 C-0.48 214.57 -0.49 213.64 -0.49 212.69 C-0.5 209.61 -0.48 206.52 -0.45 203.44 C-0.45 201.22 -0.45 199 -0.46 196.78 C-0.46 190.77 -0.43 184.76 -0.41 178.75 C-0.38 172.47 -0.38 166.19 -0.37 159.9 C-0.36 149.36 -0.34 138.81 -0.3 128.27 C-0.27 117.41 -0.24 106.55 -0.22 95.69 C-0.22 95.02 -0.22 94.35 -0.22 93.66 C-0.21 90.3 -0.21 86.94 -0.2 83.58 C-0.16 55.72 -0.09 27.86 0 0 Z " fill="#87C2D5" transform="translate(72,138)"/>
<path d="M0 0 C5.51 -0.07 11.03 -0.13 16.54 -0.16 C18.41 -0.18 20.28 -0.2 22.16 -0.23 C46.71 -0.56 46.71 -0.56 56 7 C60.11 11.05 61.57 13.51 61.66 19.27 C61.65 20.07 61.64 20.87 61.63 21.69 C61.64 22.55 61.64 23.42 61.65 24.31 C61.67 27.19 61.65 30.07 61.63 32.96 C61.64 35.03 61.64 37.09 61.65 39.16 C61.67 44.78 61.66 50.4 61.64 56.02 C61.62 61.9 61.63 67.78 61.64 73.65 C61.64 83.53 61.62 93.4 61.6 103.27 C61.56 114.69 61.56 126.1 61.58 137.51 C61.6 148.49 61.59 159.47 61.57 170.45 C61.57 175.13 61.57 179.8 61.58 184.47 C61.58 189.98 61.57 195.48 61.54 200.98 C61.54 203 61.54 205.02 61.54 207.04 C61.55 209.8 61.54 212.55 61.51 215.31 C61.53 216.51 61.53 216.51 61.54 217.73 C61.46 222.88 60.52 225.99 57 230 C56.01 230 55.02 230 54 230 C51.98 227.92 50.15 225.86 48.31 223.62 C47.5 222.66 47.5 222.66 46.68 221.68 C43.12 217.41 39.62 213.09 36.17 208.73 C33.41 205.26 30.61 201.82 27.81 198.38 C27.27 197.7 26.72 197.03 26.16 196.34 C25.03 194.95 23.89 193.56 22.76 192.17 C19.74 188.45 16.71 184.72 13.69 181 C12.59 179.65 11.49 178.29 10.39 176.94 C9.6 175.97 8.81 175 8 174 C8.49 173.31 8.97 172.63 9.48 171.92 C11.29 168.45 11.38 166.22 11.39 162.32 C11.4 161.66 11.41 161 11.41 160.33 C11.43 158.13 11.42 155.93 11.42 153.73 C11.43 152.15 11.44 150.57 11.45 149 C11.47 144.71 11.47 140.43 11.47 136.15 C11.47 132.57 11.48 128.99 11.49 125.42 C11.5 116.98 11.51 108.55 11.5 100.11 C11.49 91.41 11.52 82.71 11.55 74 C11.58 66.53 11.6 59.06 11.59 51.58 C11.59 47.12 11.6 42.66 11.62 38.19 C11.64 34 11.64 29.8 11.62 25.6 C11.62 24.07 11.62 22.53 11.64 20.99 C11.65 18.88 11.64 16.78 11.62 14.68 C11.62 13.5 11.62 12.33 11.62 11.12 C10.81 7.05 9.18 5.58 6 3 C2.83 1.66 2.83 1.66 0 1 C0 0.67 0 0.34 0 0 Z " fill="#BDE1EA" transform="translate(390,122)"/>
<path d="M0 0 C0.9 0 1.8 0.01 2.73 0.01 C5.58 0.02 8.43 0.04 11.29 0.07 C13.23 0.08 15.17 0.09 17.12 0.1 C21.86 0.12 26.6 0.15 31.35 0.2 C30.75 0.48 30.16 0.77 29.55 1.07 C24.1 3.73 24.1 3.73 20.35 8.2 C20.25 10.3 20.21 12.41 20.21 14.51 C20.2 15.17 20.2 15.83 20.2 16.5 C20.19 18.71 20.19 20.92 20.19 23.12 C20.18 24.7 20.18 26.28 20.17 27.86 C20.16 32.15 20.15 36.45 20.15 40.74 C20.14 43.43 20.14 46.11 20.14 48.79 C20.12 57.18 20.11 65.57 20.11 73.96 C20.1 83.65 20.09 93.34 20.06 103.03 C20.04 110.52 20.03 118.01 20.02 125.49 C20.02 129.97 20.02 134.44 20 138.91 C19.98 143.12 19.98 147.33 19.99 151.54 C19.99 153.08 19.99 154.62 19.98 156.17 C19.96 158.28 19.97 160.39 19.98 162.5 C19.98 163.68 19.98 164.86 19.98 166.07 C20.38 169.5 21.37 171.4 23.35 174.2 C22.66 174.85 21.98 175.51 21.27 176.19 C17.78 179.68 14.71 183.5 11.6 187.32 C10.98 188.08 10.36 188.84 9.72 189.62 C8.48 191.13 7.24 192.64 6.01 194.16 C3.94 196.69 1.86 199.23 -0.21 201.76 C-2.78 204.89 -5.33 208.03 -7.88 211.18 C-8.45 211.88 -9.02 212.59 -9.61 213.31 C-10.73 214.69 -11.85 216.07 -12.96 217.45 C-16.45 221.76 -20.02 226 -23.65 230.2 C-25.89 229.3 -27.35 228.62 -28.77 226.64 C-30.06 223.06 -29.93 219.54 -29.92 215.78 C-29.92 214.93 -29.93 214.07 -29.93 213.19 C-29.95 210.31 -29.94 207.43 -29.94 204.56 C-29.95 202.5 -29.96 200.44 -29.96 198.38 C-29.98 192.78 -29.99 187.18 -29.99 181.58 C-29.99 176.91 -30 172.24 -30 167.57 C-30.02 156.54 -30.02 145.52 -30.02 134.5 C-30.02 123.13 -30.04 111.75 -30.07 100.38 C-30.1 90.62 -30.11 80.86 -30.11 71.09 C-30.11 65.26 -30.12 59.43 -30.14 53.6 C-30.16 48.11 -30.16 42.63 -30.14 37.15 C-30.14 35.13 -30.14 33.12 -30.16 31.11 C-30.17 28.36 -30.16 25.61 -30.15 22.86 C-30.16 22.07 -30.17 21.27 -30.18 20.45 C-30.11 15.25 -29.04 12.35 -25.65 8.2 C-23.54 6.37 -23.54 6.37 -21.34 4.95 C-20.62 4.47 -19.9 3.99 -19.16 3.49 C-12.83 0.22 -6.99 -0.08 0 0 Z " fill="#BDE1EA" transform="translate(102.65234375,121.8046875)"/>
<path d="M0 0 C0.33 0 0.66 0 1 0 C1 1.07 1 2.13 1 3.23 C1.04 29.17 1.1 55.11 1.18 81.05 C1.22 93.59 1.26 106.14 1.27 118.68 C1.28 129.61 1.31 140.54 1.35 151.48 C1.38 157.27 1.39 163.06 1.39 168.84 C1.39 174.29 1.41 179.74 1.44 185.19 C1.45 187.19 1.45 189.19 1.45 191.19 C1.44 193.92 1.46 196.65 1.48 199.38 C1.47 200.17 1.47 200.97 1.46 201.78 C1.54 206.96 2.63 209.86 6 214 C7.79 215.64 7.79 215.64 9.75 216.75 C10.36 217.14 10.98 217.52 11.61 217.92 C19.45 221.46 27.23 221.29 35.68 221.27 C37.07 221.27 38.46 221.28 39.85 221.28 C43.65 221.29 47.46 221.29 51.26 221.29 C55.37 221.29 59.47 221.3 63.58 221.31 C71.62 221.33 79.66 221.33 87.7 221.33 C94.24 221.34 100.78 221.34 107.32 221.35 C125.86 221.36 144.41 221.37 162.95 221.37 C163.95 221.37 164.95 221.37 165.98 221.37 C166.98 221.37 167.98 221.37 169.01 221.37 C185.23 221.37 201.44 221.39 217.65 221.42 C234.31 221.45 250.97 221.46 267.63 221.46 C276.97 221.46 286.32 221.46 295.67 221.48 C303.63 221.5 311.59 221.51 319.55 221.49 C323.6 221.49 327.66 221.49 331.72 221.5 C335.44 221.52 339.16 221.52 342.88 221.5 C344.85 221.49 346.83 221.51 348.8 221.53 C357.79 221.46 366.29 220.18 373.56 214.5 C378.12 209.82 378.29 206 378.28 199.62 C378.29 198.34 378.29 198.34 378.3 197.04 C378.31 194.18 378.32 191.31 378.32 188.45 C378.33 186.4 378.34 184.35 378.35 182.3 C378.38 176.73 378.39 171.16 378.4 165.59 C378.42 159.77 378.45 153.96 378.47 148.14 C378.52 137.11 378.56 126.09 378.59 115.07 C378.63 102.53 378.68 89.98 378.73 77.43 C378.83 51.62 378.92 25.81 379 0 C379.33 0 379.66 0 380 0 C380.09 28.53 380.16 57.05 380.2 85.58 C380.21 88.95 380.21 92.32 380.22 95.69 C380.22 96.36 380.22 97.03 380.22 97.72 C380.24 108.58 380.27 119.43 380.31 130.29 C380.35 141.43 380.37 152.57 380.38 163.71 C380.38 169.97 380.39 176.23 380.42 182.49 C380.45 188.38 380.46 194.26 380.45 200.15 C380.45 202.32 380.46 204.48 380.48 206.64 C380.5 209.59 380.49 212.54 380.48 215.5 C380.49 216.35 380.5 217.2 380.52 218.08 C380.45 224.7 378.75 230.13 374.1 234.99 C363.7 241.75 352.13 242.45 340.03 242.38 C338.67 242.38 337.31 242.39 335.95 242.4 C332.25 242.41 328.55 242.4 324.85 242.39 C320.85 242.39 316.85 242.4 312.84 242.4 C305.01 242.42 297.19 242.41 289.36 242.41 C282.99 242.4 276.63 242.4 270.27 242.4 C269.36 242.4 268.45 242.4 267.51 242.4 C265.67 242.4 263.83 242.4 261.98 242.41 C244.71 242.41 227.44 242.4 210.16 242.39 C195.36 242.37 180.56 242.38 165.76 242.39 C148.54 242.41 131.33 242.41 114.11 242.4 C112.27 242.4 110.44 242.4 108.6 242.4 C107.7 242.4 106.79 242.4 105.86 242.4 C99.51 242.4 93.15 242.4 86.8 242.41 C79.05 242.42 71.31 242.41 63.56 242.4 C59.61 242.39 55.66 242.39 51.71 242.4 C48.09 242.41 44.47 242.4 40.85 242.39 C38.93 242.38 37.02 242.39 35.1 242.4 C24.46 242.33 15 240.8 5.94 234.99 C1.24 230.17 -0.45 224.7 -0.52 218.08 C-0.5 217.23 -0.49 216.37 -0.48 215.5 C-0.48 214.57 -0.49 213.64 -0.49 212.69 C-0.5 209.61 -0.48 206.52 -0.45 203.44 C-0.45 201.22 -0.45 199 -0.46 196.78 C-0.46 190.77 -0.43 184.76 -0.41 178.75 C-0.38 172.47 -0.38 166.19 -0.37 159.9 C-0.36 149.36 -0.34 138.81 -0.3 128.27 C-0.27 117.41 -0.24 106.55 -0.22 95.69 C-0.22 95.02 -0.22 94.35 -0.22 93.66 C-0.21 90.3 -0.21 86.94 -0.2 83.58 C-0.16 55.72 -0.09 27.86 0 0 Z " fill="#4D9DBA" transform="translate(72,138)"/>
<path d="M0 0 C0.72 -0.01 1.45 -0.01 2.19 -0.02 C3.72 -0.03 5.25 -0.03 6.78 -0.04 C9.12 -0.05 11.46 -0.08 13.79 -0.11 C15.28 -0.12 16.76 -0.12 18.25 -0.12 C18.95 -0.14 19.65 -0.15 20.37 -0.16 C23.29 -0.15 25.22 -0.13 27.63 1.59 C29.04 3.74 29.06 5.21 29 7.77 C29 8.55 29 9.34 28.99 10.14 C28.69 12.2 28.69 12.2 26.69 14.2 C24.26 14.43 24.26 14.43 21.25 14.4 C20.17 14.39 19.09 14.39 17.98 14.38 C16.86 14.36 15.73 14.35 14.57 14.33 C13.43 14.32 12.3 14.31 11.12 14.3 C8.31 14.28 5.5 14.24 2.69 14.2 C2.69 16.18 2.69 18.16 2.69 20.2 C3.3 20.18 3.9 20.15 4.52 20.12 C7.29 20.02 10.05 19.95 12.82 19.89 C13.77 19.85 14.72 19.81 15.7 19.76 C23.66 19.63 23.66 19.63 27.31 22.6 C31.52 27.21 30.91 31.01 30.94 37.02 C30.96 37.92 30.98 38.82 31 39.75 C31.04 45.85 30.23 49.24 26.19 53.95 C21.67 57.72 14.51 56.47 8.92 56.5 C7.52 56.51 6.12 56.53 4.72 56.56 C2.69 56.6 0.67 56.62 -1.36 56.63 C-2.57 56.64 -3.79 56.66 -5.03 56.67 C-8.94 56.11 -10.56 54.99 -13.31 52.2 C-14.28 49.3 -14.5 47.24 -14.56 44.2 C-14.58 43.34 -14.61 42.47 -14.64 41.58 C-14.31 39.2 -14.31 39.2 -13.17 37.41 C-10.5 35.68 -8.41 35.84 -5.25 35.89 C-4.18 35.89 -3.12 35.9 -2.02 35.9 C0.69 36.2 0.69 36.2 2.69 38.2 C2.69 39.19 2.69 40.18 2.69 41.2 C6.98 41.2 11.27 41.2 15.69 41.2 C15.69 38.56 15.69 35.92 15.69 33.2 C14.99 33.23 14.29 33.26 13.57 33.28 C10.38 33.39 7.19 33.45 4 33.52 C2.35 33.58 2.35 33.58 0.66 33.64 C-7.53 33.77 -7.53 33.77 -11.52 30.87 C-14.71 26.12 -14.59 21.91 -14.68 16.39 C-14.72 15.6 -14.76 14.8 -14.8 13.98 C-14.86 9.75 -14.63 7.04 -11.91 3.69 C-7.96 -0.08 -5.23 0.03 0 0 Z " fill="#406887" transform="translate(151.30859375,184.796875)"/>
<path d="M0 0 C1.17 -0.01 2.34 -0.02 3.55 -0.04 C4.67 -0.04 5.78 -0.04 6.93 -0.04 C7.96 -0.05 8.99 -0.05 10.06 -0.06 C12.56 0.19 12.56 0.19 14.56 2.19 C15.34 5.09 16.03 7.95 16.66 10.89 C16.94 12.19 16.94 12.19 17.24 13.52 C17.85 16.3 18.46 19.09 19.06 21.88 C19.67 24.64 20.28 27.41 20.89 30.18 C21.27 31.9 21.64 33.62 22.02 35.35 C22.8 38.96 23.64 42.43 24.76 45.96 C25.56 49.19 25.56 49.19 24.56 54.19 C18.29 54.19 12.02 54.19 5.56 54.19 C3.76 50.58 3.1 48.1 2.56 44.19 C0.91 43.86 -0.74 43.53 -2.44 43.19 C-2.56 44.26 -2.69 45.33 -2.81 46.44 C-3.44 50.19 -3.44 50.19 -5.44 54.19 C-11.71 54.19 -17.98 54.19 -24.44 54.19 C-23.81 46.12 -22.36 38.4 -20.62 30.5 C-20.36 29.27 -20.09 28.04 -19.81 26.77 C-13.93 0.01 -13.93 0.01 0 0 Z " fill="#3F6886" transform="translate(255.4375,186.8125)"/>
<path d="M0 0 C0.8 0 1.6 0 2.43 0.01 C3.24 0.01 4.06 0 4.9 0 C6.64 0 8.37 0 10.1 0.01 C12.76 0.01 15.42 0.01 18.08 0 C19.76 0 21.44 0 23.11 0.01 C23.92 0 24.72 0 25.54 0 C31.16 0.02 31.16 0.02 32.27 1.14 C32.4 2.95 32.45 4.76 32.46 6.58 C32.47 7.57 32.49 8.55 32.5 9.57 C32.27 12.14 32.27 12.14 30.27 14.14 C28.21 14.37 28.21 14.37 25.7 14.33 C24.36 14.32 24.36 14.32 22.99 14.31 C22.05 14.3 21.11 14.28 20.15 14.26 C18.73 14.25 18.73 14.25 17.28 14.24 C14.95 14.21 12.61 14.18 10.27 14.14 C10.27 15.79 10.27 17.44 10.27 19.14 C11.49 19.13 12.7 19.12 13.95 19.1 C15.54 19.09 17.12 19.09 18.71 19.08 C19.51 19.07 20.31 19.06 21.14 19.05 C23.18 19.04 25.23 19.09 27.27 19.14 C28.27 20.14 28.27 20.14 28.4 22.83 C28.4 23.92 28.4 25.01 28.4 26.14 C28.4 27.78 28.4 27.78 28.4 29.45 C28.27 32.14 28.27 32.14 27.27 33.14 C24.41 33.21 21.57 33.23 18.71 33.2 C17.9 33.2 17.1 33.19 16.27 33.19 C14.27 33.18 12.27 33.16 10.27 33.14 C10.27 35.12 10.27 37.1 10.27 39.14 C10.9 39.13 11.53 39.13 12.18 39.12 C15.02 39.1 17.87 39.09 20.71 39.08 C22.2 39.06 22.2 39.06 23.72 39.05 C25.13 39.05 25.13 39.05 26.58 39.04 C27.45 39.04 28.33 39.03 29.23 39.03 C31.27 39.14 31.27 39.14 32.27 40.14 C32.4 42.12 32.45 44.1 32.46 46.08 C32.47 47.16 32.49 48.24 32.5 49.35 C32.27 52.14 32.27 52.14 30.27 54.14 C27.64 54.33 25.12 54.39 22.49 54.37 C21.72 54.37 20.95 54.37 20.16 54.37 C18.53 54.37 16.9 54.36 15.28 54.34 C12.78 54.33 10.29 54.32 7.79 54.32 C6.21 54.32 4.63 54.31 3.05 54.31 C1.93 54.31 1.93 54.31 0.78 54.3 C-4.5 54.26 -4.5 54.26 -6.73 53.14 C-6.75 45.75 -6.77 38.36 -6.78 30.98 C-6.79 28.46 -6.8 25.95 -6.8 23.43 C-6.82 19.82 -6.82 16.22 -6.83 12.61 C-6.83 11.48 -6.84 10.35 -6.84 9.18 C-6.84 8.14 -6.84 7.1 -6.84 6.03 C-6.84 5.1 -6.85 4.18 -6.85 3.23 C-6.6 -1.11 -3.67 0.02 0 0 Z " fill="#416987" transform="translate(342.7288818359375,186.86105346679688)"/>
<path d="M0 0 C4.73 -0.07 9.46 -0.13 14.2 -0.16 C15.8 -0.18 17.41 -0.2 19.02 -0.23 C21.34 -0.26 23.66 -0.28 25.98 -0.29 C27.05 -0.32 27.05 -0.32 28.14 -0.34 C33.68 -0.34 37.65 0.97 41.85 4.6 C43.68 8.43 43.43 12.19 43.38 16.38 C43.39 17.21 43.4 18.05 43.41 18.91 C43.39 23.96 43.03 27.77 40 32 C35.17 35.42 30.8 35.38 25.12 35.19 C23.95 35.17 23.95 35.17 22.75 35.15 C20.83 35.11 18.92 35.06 17 35 C17.01 36.29 17.02 37.58 17.04 38.9 C17.04 40.58 17.05 42.26 17.06 43.94 C17.07 44.79 17.08 45.64 17.09 46.51 C17.09 47.73 17.09 47.73 17.1 48.96 C17.11 50.09 17.11 50.09 17.11 51.23 C17 53 17 53 16 54 C13.49 54.1 11.01 54.14 8.5 54.12 C7.8 54.13 7.09 54.13 6.37 54.14 C1.13 54.13 1.13 54.13 0 53 C-0.09 51.34 -0.12 49.68 -0.11 48.02 C-0.11 46.96 -0.11 45.9 -0.11 44.81 C-0.11 43.65 -0.1 42.5 -0.1 41.31 C-0.1 40.13 -0.09 38.96 -0.09 37.75 C-0.09 33.98 -0.08 30.21 -0.06 26.44 C-0.06 23.89 -0.05 21.34 -0.05 18.79 C-0.04 12.53 -0.02 6.26 0 0 Z " fill="#3E6685" transform="translate(188,187)"/>
<path d="M0 0 C0.82 -0 1.63 -0 2.47 -0 C4.2 -0 5.92 -0 7.65 0 C10.3 0.01 12.95 0 15.6 -0 C17.28 -0 18.95 -0 20.62 0 C21.42 -0 22.22 -0 23.04 -0.01 C28.63 0.02 28.63 0.02 29.75 1.13 C29.84 3.13 29.88 5.13 29.87 7.13 C29.87 8.77 29.87 8.77 29.88 10.45 C29.75 13.13 29.75 13.13 28.75 14.13 C26.97 14.29 25.18 14.38 23.4 14.45 C21.78 14.51 21.78 14.51 20.13 14.58 C18.99 14.62 17.85 14.65 16.68 14.7 C14.97 14.76 14.97 14.76 13.23 14.83 C10.4 14.93 7.57 15.03 4.75 15.13 C4.75 22.72 4.75 30.31 4.75 38.13 C6.47 38.19 8.19 38.25 9.96 38.32 C12.2 38.4 14.44 38.49 16.68 38.57 C17.82 38.61 18.96 38.65 20.13 38.69 C21.21 38.73 22.29 38.77 23.4 38.82 C24.4 38.85 25.4 38.89 26.43 38.93 C28.75 39.13 28.75 39.13 29.75 40.13 C30.02 42.02 30.02 42.02 30.12 44.38 C30.17 45.15 30.22 45.92 30.27 46.71 C29.47 50.4 27.64 51.78 24.75 54.13 C22.02 54.63 19.93 54.84 17.21 54.8 C16.5 54.8 15.79 54.81 15.05 54.81 C13.55 54.81 12.05 54.81 10.54 54.78 C8.25 54.76 5.96 54.78 3.67 54.82 C2.21 54.81 0.74 54.81 -0.72 54.8 C-1.4 54.81 -2.08 54.82 -2.78 54.83 C-6.63 54.73 -8.16 54.21 -11.16 51.72 C-14.7 47.35 -14.44 43.83 -14.49 38.4 C-14.5 37.53 -14.51 36.66 -14.52 35.76 C-14.53 33.91 -14.54 32.07 -14.55 30.22 C-14.57 27.41 -14.61 24.59 -14.65 21.78 C-14.66 19.99 -14.67 18.19 -14.68 16.4 C-14.7 15.56 -14.71 14.72 -14.73 13.86 C-14.71 8.48 -13.85 5.39 -10.25 1.13 C-7.04 -0.48 -3.53 -0.01 0 0 Z " fill="#436A88" transform="translate(300.25390625,186.8671875)"/>
<path d="M0 0 C6.93 0 13.86 0 21 0 C21 2.64 21 5.28 21 8 C16.71 8 12.42 8 8 8 C7.34 6.68 6.68 5.36 6 4 C3.35 3.3 3.35 3.3 0.38 3.25 C-1.13 3.16 -1.13 3.16 -2.66 3.08 C-3.43 3.05 -4.21 3.03 -5 3 C-5 2.67 -5 2.34 -5 2 C-3.35 1.67 -1.7 1.34 0 1 C0 0.67 0 0.34 0 0 Z " fill="#E1E6E9" transform="translate(146,218)"/>
<path d="M0 0 C1.81 -0.03 3.62 -0.05 5.44 -0.06 C6.45 -0.07 7.46 -0.09 8.5 -0.1 C11 0 11 0 12 1 C12.14 3.67 12.04 6.32 12 9 C8.04 9 4.08 9 0 9 C0 6.03 0 3.06 0 0 Z " fill="#D8DEE3" transform="translate(205,200)"/>
<path d="M0 0 C2.5 2.5 2.36 3.67 2.62 7.12 C2.7 8.04 2.77 8.95 2.85 9.88 C2.9 10.58 2.95 11.28 3 12 C1.35 12 -0.3 12 -2 12 C-1.86 10.37 -1.71 8.75 -1.56 7.12 C-1.48 6.22 -1.4 5.32 -1.32 4.38 C-1 2 -1 2 0 0 Z " fill="#E8EAEC" transform="translate(256,203)"/>
</svg>
