<svg xmlns="http://www.w3.org/2000/svg" width="512" height="512"><path fill="currentColor" d="M267 62c8.15 0 15 .33 22.88 1.62 1.08.18 2.16.36 3.28.54C310.1 67.08 326.21 72.27 342 79c.7.3 1.4.59 2.12.9C372.8 92.19 409.86 116.19 426 144c.13 4.97-3.21 7.97-6.38 11.44-1.1 1.24-2.2 2.49-3.3 3.74-.56.64-1.12 1.27-1.69 1.92-2.48 2.89-4.81 5.89-7.13 8.9-3.7 4.79-7.53 9.43-11.5 14-4.47 5.15-8.74 10.42-12.92 15.81-3.6 4.63-7.35 9.11-11.16 13.57-3.41 3.99-6.7 8.05-9.96 12.16-3.61 4.53-7.29 8.99-10.96 13.46-1.5 1.83-3 3.67-4.5 5.5-9 11-9 11-11.27 13.77-1.43 1.76-2.87 3.51-4.3 5.27-5.24 6.41-10.5 12.8-15.77 19.19-3.29 4-6.58 8-9.85 12.02-3.68 4.51-7.44 8.97-11.22 13.41-2.97 3.49-5.89 7.03-8.78 10.59-.72.88-1.45 1.77-2.2 2.68a284 284 0 0 0-4.09 5.08c-5.75 6.96-12.86 11.77-22.03 12.69-8.86.2-15.53-1.57-22.37-7.39-6.29-6.07-9.7-12.69-9.87-21.5.13-8.83 3.08-15.99 9.25-22.31 8.3-7.46 17.53-13.93 26.53-20.51 6.05-4.42 12.02-8.93 17.97-13.49 7.38-5.65 14.82-11.21 22.32-16.7 6.06-4.44 12.03-8.98 17.99-13.55 5.67-4.34 11.35-8.64 17.19-12.75 6.93-4.88 13.65-10.03 20.37-15.21 5.76-4.43 11.64-8.67 17.63-12.79-16.81-27.78-50.79-45.57-81.32-53.23-8.53-2.04-16.98-3.43-25.68-4.77zm172 103c17.67 15.36 24.51 49.16 29 71 .27 1.28.27 1.28.54 2.59 10.98 55.87-4.02 114.69-35.21 161.45-8.26 12.16-8.26 12.16-14.41 13.37-6.82.29-9.95-1.99-14.92-6.41-1.54-1.3-3.09-2.6-4.64-3.9a959 959 0 0 1-5.04-4.29c-3.05-2.6-6.18-5.11-9.32-7.62-10.16-8.4-10.16-8.4-10.94-14.63.31-5.81 3.41-9.82 6.67-14.4 22.52-31.66 30.83-71.83 24.69-110.05-1.74-9.7-4.43-19.21-8.14-28.34-1.51-4.44-1.51-4.44-.28-7.77 1.64-2.12 3.29-4.12 5.06-6.12 1.01-1.17 2.02-2.34 3.03-3.5.5-.58.99-1.15 1.51-1.74 2.56-3 4.99-6.09 7.44-9.18 3.61-4.53 7.29-8.99 10.96-13.46 1.58-1.94 3.17-3.87 4.75-5.81 3.06-3.75 6.14-7.48 9.25-11.19M95 133c3.45 1.48 5.67 3.43 8.31 6.08l2.55 2.55c1.34 1.36 1.34 1.36 2.72 2.75a2578 2578 0 0 1 10.16 10.23l7.53 7.56c4.91 4.94 9.82 9.88 14.73 14.83-.4.54-.81 1.07-1.22 1.63-.54.71-1.07 1.42-1.62 2.15-.53.7-1.06 1.41-1.6 2.13-19 25.54-27.58 51.57-32.56 83.09H41c0-32.36 9.75-63.63 25-92l1.79-3.43C75.17 156.97 84.66 144.48 95 133m150-71v63l-24 4c-21.51 5.45-41.79 14.52-58.79 28.99-3.7 3.05-3.7 3.05-6.11 2.87-2.76-1.13-4.31-2.71-6.41-4.83l-2.55-2.55c-1.34-1.37-1.34-1.37-2.72-2.77-.92-.93-1.85-1.86-2.81-2.82-2.46-2.47-4.91-4.95-7.35-7.43-2.51-2.53-5.02-5.05-7.53-7.58Q119.35 125.455 112 118c4.78-14.34 34.25-27.44 47-34 .64-.33 1.27-.66 1.93-1 19.47-9.89 40.96-16.44 62.51-19.81.78-.13 1.56-.25 2.36-.38 6.56-.93 12.4-.81 19.2-.81M41 288h63l4 23c4.92 19.22 12.15 37.98 24.56 53.69 3.44 4.52 4.77 8.58 4.44 14.31-1.74 5.38-5.12 8.24-9.38 11.69l-3.77 3.14c-.64.52-1.28 1.05-1.94 1.59-2.42 2-4.8 4.05-7.18 6.09a630 630 0 0 1-4.9 4.13c-1.64 1.36-3.26 2.74-4.85 4.16-4 3.33-7.44 3.78-12.45 3.86-8.5-2.23-13.09-11.77-17.53-18.66-.37-.57-.74-1.14-1.12-1.73-16.62-25.85-27.22-55.03-31.69-85.39-.13-.85-.25-1.69-.38-2.55-.79-5.92-.81-11.26-.81-17.33m118.489 137.74c1.28-.01 1.28-.01 2.58-.01 2.86-.01 5.72-.01 8.57 0 2.05-.01 4.1-.01 6.15-.02 5.56-.01 11.13-.01 16.69-.01 4.65 0 9.29 0 13.94-.01 10.95-.01 21.91-.01 32.87 0 11.3 0 22.61-.01 33.91-.03 9.71-.02 19.41-.03 29.12-.02 5.79 0 11.59 0 17.39-.02q8.175-.015 16.35 0c2 .01 4 0 6 0 2.74-.01 5.47-.01 8.2.01l2.39-.03c5.17.05 8.76.99 13.35 3.4 3.06 3.45 3.48 6.61 3.29 11.07-.55 3.68-2.33 5.94-4.86 8.54-3.56 2.04-7.04 1.81-11.04 1.78-.88 0-1.75.01-2.66.01-2.95.02-5.89.01-8.84 0l-6.33.03c-5.74.01-11.48.01-17.21.01-4.79-.01-9.58 0-14.36.01q-16.935.015-33.87 0c-11.66-.01-23.31 0-34.97.03-10 .02-20 .02-30 .02-5.97 0-11.95 0-17.93.02-5.61.01-11.23.01-16.85-.01-2.06-.01-4.13 0-6.19.01-2.81.01-5.63 0-8.44-.02-1.23.02-1.23.02-2.48.03-3.78-.05-6-.37-9.22-2.42-2.76-2.86-4-5-4.07-9.03.36-4.77 1.45-7.7 5.03-11.08 4.38-2.32 8.65-2.28 13.49-2.26m60.261-46.015c.87-.01 1.74-.01 2.64-.02 2.87-.01 5.74-.01 8.61-.01 2 0 4 0 6-.01 4.18-.01 8.37-.01 12.55 0 5.37 0 10.73-.01 16.09-.04 4.13-.01 8.26-.01 12.38-.01 1.98 0 3.96 0 5.94-.01 2.76-.02 5.53-.01 8.29 0 .82-.01 1.63-.01 2.47-.02 4.61.04 7.5.48 11.28 3.39 2.97 3.08 3.74 5.75 4 10-.99 4.51-2.48 7.03-6 10-3.32 1.66-7.02 1.18-10.67 1.2-.9.01-1.79.01-2.72.02-2.98.03-5.96.04-8.94.06-1.52.01-1.52.01-3.08.01-5.38.03-10.76.05-16.15.06-5.55.02-11.11.07-16.67.12-4.28.03-8.55.04-12.83.05-2.05 0-4.09.02-6.14.04-2.87.04-5.74.04-8.61.03-.85.01-1.69.03-2.56.05-4.15-.05-6.83-.37-10.14-2.98-3.45-3.68-3.84-6.6-3.77-11.59.47-3.46 2.01-5.49 4.28-8.07 4.41-2.41 8.85-2.28 13.75-2.27"/></svg>