<?xml version="1.0"?>
<svg xmlns="http://www.w3.org/2000/svg" width="512" height="512"><path fill="currentColor" d="M264.188 40.5c7.7 4.45 11.02 14.64 14.82 22.29.85 1.69.85 1.69 1.72 3.43 1.19 2.39 2.39 4.79 3.58 7.19 1.79 3.59 3.58 7.18 5.37 10.76 5.88 11.79 11.68 23.6 17.33 35.5 5.36 11.25 11 22.37 16.62 33.5 1.39 2.75 2.78 5.5 4.17 8.26.63 1.25.63 1.25 1.28 2.53.39.77.77 1.53 1.17 2.32.34.67.68 1.35 1.03 2.04.72 1.68.72 1.68.72 3.68 1.09.14 2.17.29 3.29.44 28.49 3.79 56.95 7.81 85.39 11.94 5 .73 10.01 1.45 15.01 2.16 4.79.68 9.58 1.37 14.37 2.08 1.78.26 3.57.51 5.35.76 2.48.35 4.95.71 7.42 1.08.71.1 1.42.2 2.16.3 6.56 1.01 12.25 3.02 16.45 8.3 2.42 4.55 2.98 7.8 2.56 12.94-2.97 7.61-7.94 12.44-13.75 18.06-.87.86-1.74 1.72-2.63 2.61-3.73 3.66-7.5 7.24-11.46 10.66-4.06 3.54-7.88 7.28-11.66 11.11-1.02 1.02-1.02 1.02-2.06 2.07-2.15 2.16-4.29 4.32-6.44 6.49-2.83 2.86-5.66 5.71-8.5 8.56-.63.64-1.26 1.29-1.92 1.95-3.73 3.75-7.58 7.3-11.59 10.76-5.47 4.76-10.68 9.8-15.89 14.84-1.44 1.39-2.9 2.76-4.37 4.12-2.14 1.99-4.23 4.02-6.33 6.06-.65.6-1.31 1.19-1.99 1.8-2.67 2.68-4.35 4.61-4.51 8.5.1.95.2 1.91.31 2.89.12 1.07.23 2.13.35 3.23.7 5.25 1.55 10.46 2.48 15.68.21 1.17.41 2.35.62 3.55.56 3.19 1.12 6.37 1.68 9.55.6 3.35 1.18 6.7 1.76 10.06 1.86 10.67 3.73 21.33 5.61 32 1.23 7.03 2.46 14.05 3.68 21.08.58 3.33 1.16 6.65 1.75 9.98q.99 5.565 1.95 11.13c.2 1.08.39 2.17.59 3.28 2.99 17.49 2.99 17.49-.3 23.92-3.39 4.36-6.37 6.49-11.69 8-7.86.13-15.01-3.87-21.88-7.38-.86-.44-1.73-.87-2.62-1.33-7.06-3.59-13.99-7.38-20.92-11.2-8.83-4.86-17.79-9.44-26.77-14.03-9.85-5.04-19.68-10.1-29.37-15.44-.85-.46-1.7-.93-2.57-1.4-3.48-1.91-6.96-3.83-10.43-5.76-2.89-1.61-5.79-3.19-8.69-4.78-.88-.49-1.75-.99-2.65-1.5l-2.48-1.33c-.71-.4-1.43-.79-2.16-1.2-3.06-.84-4.32 0-7.15 1.41q-.84.42-1.71.84c-2.04 1.01-4.07 2.05-6.1 3.09-.75.39-1.5.77-2.28 1.17-2.45 1.26-4.9 2.51-7.34 3.78-.85.43-1.69.86-2.55 1.3-10.23 5.26-20.41 10.6-30.47 16.18-9.71 5.35-19.61 10.34-29.48 15.38-10.71 5.47-21.35 11.02-31.86 16.87-.79.44-1.59.88-2.4 1.34-.67.37-1.34.75-2.03 1.14-5.29 2.72-10.98 2.57-16.78 1.91-4.08-1.65-6.35-4.13-8.93-7.62-2.78-8.82-.65-18.38.94-27.27.21-1.24.42-2.48.64-3.75.58-3.37 1.17-6.73 1.76-10.09.62-3.54 1.23-7.07 1.84-10.61 1.16-6.69 2.32-13.38 3.49-20.07 1.59-9.07 3.17-18.15 4.74-27.23.38-2.19.76-4.38 1.14-6.56.12-.71.24-1.42.37-2.15l2.19-12.6c.35-1.98.69-3.96 1.04-5.95l1.26-7.23c.92-5.28 1.81-10.56 2.52-15.87-.58-.26-1.17-.52-1.78-.79-2.35-1.28-3.88-2.64-5.76-4.54-.67-.68-1.35-1.35-2.04-2.05-.72-.74-1.44-1.47-2.18-2.23-.76-.75-1.51-1.51-2.28-2.29-2.41-2.42-4.81-4.86-7.21-7.29-2.38-2.41-4.77-4.82-7.16-7.23-1.49-1.5-2.97-3-4.45-4.5-3.93-3.97-7.97-7.72-12.2-11.37-3.21-2.83-6.21-5.88-9.22-8.93-.66-.66-1.31-1.32-1.99-2-2.78-2.8-5.55-5.59-8.32-8.39-2.04-2.06-4.08-4.12-6.13-6.17-.91-.93-.91-.93-1.85-1.88-3.75-3.77-7.63-7.33-11.65-10.8-3.33-2.88-6.46-5.95-9.59-9.04-.65-.63-1.31-1.25-1.98-1.89-4.95-4.88-7.75-8.99-8.64-16.05.54-4.41 1.7-8.02 4.43-11.56 4.17-3.15 7.46-4.63 12.59-5.49.67-.11 1.35-.23 2.05-.35 2.45-.41 4.9-.79 7.36-1.16.99-.15 1.97-.3 2.99-.46 7.86-1.2 15.73-2.34 23.61-3.48 3.42-.49 6.85-.99 10.28-1.49l17.2-2.49c6.63-.95 13.25-1.91 19.88-2.88 7.08-1.02 14.17-2.05 21.25-3.07 2.03-.3 4.07-.59 6.11-.89 3.77-.55 7.55-1.09 11.33-1.64 1.12-.16 2.25-.32 3.41-.49 1.03-.15 2.05-.3 3.1-.45.89-.13 1.79-.25 2.7-.39 2.14-.27 2.14-.27 4.14-.27.27-.87.54-1.73.82-2.62 1.15-3.29 2.51-6.28 4.08-9.39.59-1.16 1.17-2.33 1.77-3.53.64-1.27 1.28-2.53 1.92-3.8.67-1.33 1.33-2.65 2-3.98 1.76-3.5 3.52-7 5.28-10.49 3.12-6.2 6.24-12.39 9.35-18.59.34-.68.67-1.35 1.02-2.04 5.65-11.26 11.13-22.6 16.54-33.98 3.1-6.52 6.27-13.01 9.47-19.48.77-1.56 1.53-3.12 2.29-4.68q1.695-3.495 3.42-6.96c.34-.7.67-1.39 1.01-2.11 2.55-5.07 5.39-7.92 10.34-10.6 5.33-1.49 9.83-1.4 14.88.75"/></svg>
