<svg xmlns="http://www.w3.org/2000/svg" width="512" height="512"><path fill="currentColor" d="M342.736 324.86c1.01 0 1.01 0 2.05-.01 2.26-.01 4.53-.01 6.8-.01 1.62-.01 3.24-.01 4.87-.02 4.41-.01 8.83-.02 13.24-.02 2.76 0 5.52-.01 8.27-.01l25.9-.03c9.96 0 19.92-.02 29.88-.05q11.55-.03 23.1-.03c4.6 0 9.2-.01 13.79-.03 4.33-.01 8.66-.02 12.98-.01 1.59 0 3.17 0 4.76-.01q3.255-.015 6.51 0h3.67c4.73.51 8.74 1.84 12.35 5.08 1.56 3.27 1.56 6.39 1.56 9.94l.03 2.24c.01 1.55.01 3.11.01 4.66-.01 2.38.04 4.75.08 7.12.01 1.52.01 3.03.01 4.55.01.7.03 1.41.05 2.13-.06 3.77-.53 5.51-2.87 8.51-4.33 3.34-7.84 4.39-13.27 4.38-1.1 0-2.19.01-3.31.01-1.19-.01-2.38-.02-3.61-.02h-3.81c-3.44 0-6.89-.01-10.33-.03-3.6-.01-7.21-.01-10.81-.01-6.82-.01-13.63-.03-20.45-.05-7.76-.02-15.53-.03-23.29-.04-15.96-.02-31.93-.05-47.9-.1.01.66.01 1.32.01 2 .07 16.03.12 32.06.15 48.1.01 7.75.04 15.5.07 23.26q.045 10.14.06 20.28c0 3.57.01 7.15.03 10.73.03 4 .03 8 .02 11.99.02 1.19.03 2.37.04 3.58-.03 6.94-.26 12.58-5.09 17.97-3.26 1.56-6.39 1.56-9.94 1.56-.74.01-1.47.01-2.23.02-1.56.01-3.11.02-4.67.01-2.37 0-4.74.04-7.12.09h-4.54c-.71.02-1.41.04-2.14.05-3.77-.05-5.5-.53-8.51-2.86-3.71-4.82-4.39-8.61-4.4-14.64 0-.67 0-1.35-.01-2.05-.01-2.26 0-4.52 0-6.78 0-1.63-.01-3.25-.02-4.88-.01-4.41-.01-8.82-.01-13.23 0-3.68 0-7.36-.01-11.04-.01-8.69-.01-17.38 0-26.08 0-8.95-.01-17.91-.03-26.87-.02-7.7-.02-15.4-.02-23.09 0-4.6 0-9.19-.01-13.79-.02-4.32-.01-8.64 0-12.97 0-1.58 0-3.16-.01-4.75-.01-2.17 0-4.33.01-6.5v-3.67c.52-4.77 1.77-8.89 5.31-12.31 4.19-2.29 8.08-2.26 12.8-2.27M16.856 324.74c.68 0 1.35-.01 2.05-.01 2.26-.01 4.53-.01 6.79 0 1.62-.01 3.25-.01 4.87-.02 4.41-.01 8.82-.01 13.23-.01 3.68 0 7.37 0 11.05-.01q13.035-.015 26.07 0 13.44 0 26.88-.03c7.7-.02 15.39-.03 23.09-.02 4.59 0 9.19 0 13.78-.02 4.33-.01 8.65-.01 12.97 0 1.58.01 3.17 0 4.75 0 2.17-.01 4.34-.01 6.5.01h3.67c4.77.52 8.9 1.77 12.32 5.31 2.28 4.18 2.25 8.08 2.26 12.8.01.67.01 1.35.01 2.05.01 2.26.01 4.53.01 6.79.01 1.63.01 3.25.02 4.88.01 4.41.02 8.82.02 13.24.01 2.75.01 5.51.02 8.27.01 8.63.02 17.26.02 25.89.01 9.96.02 19.92.05 29.88.03 7.7.04 15.4.04 23.11 0 4.59 0 9.19.02 13.79.02 4.33.02 8.65.01 12.98 0 1.58.01 3.17.01 4.76.02 2.17.01 4.33 0 6.5 0 1.22 0 2.43.01 3.68-.52 4.73-1.85 8.74-5.09 12.35-3.26 1.56-6.39 1.56-9.94 1.56-.74.01-1.47.01-2.23.02-1.56.01-3.11.02-4.67.01-2.37 0-4.74.04-7.12.09h-4.54c-.71.02-1.41.04-2.14.05-3.77-.05-5.5-.53-8.51-2.86-3.33-4.33-4.39-7.85-4.38-13.28 0-1.64 0-1.64-.01-3.31.02-1.78.02-1.78.03-3.6v-3.81c0-3.45.01-6.89.02-10.34.01-3.6.01-7.2.02-10.8 0-6.82.02-13.64.04-20.45.02-7.77.03-15.53.04-23.29.02-15.97.06-31.93.1-47.9-.65 0-1.31.01-1.99.01-16.03.07-32.07.11-48.1.15-7.76.01-15.51.03-23.26.07-6.76.03-13.52.05-20.28.05-3.58.01-7.16.02-10.74.04-3.99.02-7.99.02-11.99.02l-3.58.03c-6.93-.02-12.58-.25-17.96-5.08-1.56-3.27-1.56-6.39-1.56-9.94l-.03-2.24c-.01-1.55-.01-3.11-.01-4.66 0-2.38-.04-4.75-.08-7.12-.01-1.51-.01-3.03-.01-4.54-.02-.71-.03-1.41-.05-2.14.05-3.77.53-5.5 2.87-8.51 4.81-3.71 8.6-4.39 14.63-4.4M339.652-.469c.74-.01 1.47-.02 2.23-.02 1.56-.01 3.12-.02 4.67-.01 2.37 0 4.74-.04 7.12-.09 1.51 0 3.03-.01 4.54 0 .71-.02 1.41-.04 2.14-.05 3.77.05 5.5.53 8.51 2.86 3.33 4.33 4.39 7.85 4.38 13.28 0 1.09 0 2.18.01 3.31l-.03 3.6c0 1.26.01 2.52.01 3.81 0 3.45-.02 6.89-.03 10.33-.01 3.61-.01 7.21-.02 10.81 0 6.82-.02 13.64-.04 20.45-.02 7.77-.03 15.53-.04 23.29-.02 15.97-.06 31.93-.1 47.9.66 0 1.31-.01 1.99-.01 16.04-.07 32.07-.12 48.1-.15 7.76-.01 15.51-.03 23.26-.07 6.76-.03 13.52-.05 20.28-.05 3.58-.01 7.16-.02 10.74-.04 4-.02 7.99-.02 11.99-.02l3.58-.03c6.93.02 12.58.25 17.97 5.08 1.55 3.27 1.56 6.39 1.56 9.94 0 .74.01 1.48.02 2.23.01 1.56.01 3.12.01 4.67 0 2.38.04 4.75.08 7.12.01 1.51.01 3.03.01 4.54.02.71.03 1.41.05 2.14-.05 3.77-.53 5.5-2.87 8.51-4.81 3.71-8.6 4.39-14.63 4.4-.68 0-1.35.01-2.05.01-2.26.01-4.52.01-6.79 0-1.62.01-3.25.01-4.87.02-4.41.01-8.82.01-13.23.01-3.68 0-7.36 0-11.05.01q-13.035.015-26.07 0-13.44 0-26.88.03c-7.69.02-15.39.03-23.09.02-4.59 0-9.19 0-13.78.02-4.32.01-8.65.01-12.97-.01-1.58 0-3.17.01-4.75.01-2.17.01-4.33.01-6.5-.01h-3.67c-4.77-.52-8.89-1.77-12.32-5.31-2.28-4.18-2.25-8.08-2.26-12.8-.01-.67-.01-1.35-.01-2.05-.01-2.26-.01-4.53-.01-6.79-.01-1.63-.01-3.25-.02-4.88-.01-4.41-.02-8.82-.02-13.24-.01-2.75-.01-5.51-.01-8.27q-.03-12.945-.03-25.89c-.01-9.96-.02-19.92-.05-29.88-.02-7.7-.03-15.4-.04-23.11 0-4.59 0-9.19-.02-13.79-.02-4.33-.02-8.65-.01-12.98 0-1.59 0-3.17-.01-4.76-.02-2.17-.01-4.33 0-6.5v-3.68c.51-4.73 1.84-8.74 5.08-12.35 3.27-1.56 6.39-1.56 9.94-1.56M153.652-.469c.74-.01 1.47-.02 2.23-.02 1.56-.01 3.12-.02 4.67-.01 2.37 0 4.74-.04 7.12-.09 1.51 0 3.03-.01 4.54 0 .71-.02 1.41-.04 2.14-.05 3.77.05 5.5.53 8.51 2.86 3.71 4.82 4.39 8.61 4.4 14.63 0 .68.01 1.36.01 2.06q.015 3.39 0 6.78c.01 1.63.01 3.25.02 4.88.01 4.41.01 8.82.01 13.23 0 3.68 0 7.36.01 11.04q.015 13.035 0 26.07 0 13.44.03 26.88c.02 7.7.02 15.4.02 23.09 0 4.6 0 9.19.02 13.79.01 4.32.01 8.64-.01 12.97 0 1.58 0 3.16.01 4.75.01 2.16 0 4.33-.01 6.5v3.67c-.52 4.77-1.77 8.89-5.31 12.31-4.18 2.29-8.08 2.26-12.8 2.27-.67 0-1.35.01-2.05.01-2.26.01-4.53.01-6.79.01-1.63 0-3.25.01-4.88.01-4.41.02-8.82.02-13.24.03-2.76 0-5.51.01-8.27.01l-25.89.03c-9.96 0-19.92.02-29.88.05-7.7.02-15.41.03-23.11.03-4.6 0-9.19.01-13.79.03-4.33.01-8.65.02-12.98.01-1.59 0-3.17 0-4.76.01q-3.255.015-6.51 0h-3.67c-4.73-.51-8.74-1.84-12.35-5.08-1.56-3.27-1.56-6.39-1.56-9.94-.01-.74-.02-1.48-.02-2.24-.01-1.55-.02-3.11-.01-4.66 0-2.38-.04-4.75-.09-7.12 0-1.52-.01-3.03-.01-4.55-.01-.7-.03-1.41-.05-2.13.06-3.78.53-5.51 2.87-8.51 4.33-3.34 7.84-4.39 13.28-4.38 1.63-.01 1.63-.01 3.31-.01 1.18.01 2.37.01 3.6.02h3.81c3.45 0 6.89.01 10.33.03 3.61.01 7.21.01 10.81.01 6.82.01 13.63.02 20.45.04 7.77.03 15.53.04 23.29.05 15.97.02 31.93.05 47.9.1-.01-.66-.01-1.32-.01-2-.07-16.03-.12-32.06-.15-48.1-.01-7.75-.03-15.5-.07-23.26-.03-6.76-.05-13.52-.05-20.28-.01-3.58-.02-7.15-.04-10.73-.02-4-.02-8-.02-11.99-.01-1.19-.02-2.37-.04-3.58.03-6.94.26-12.58 5.09-17.97 3.27-1.56 6.39-1.56 9.94-1.56"/></svg>
