<svg xmlns="http://www.w3.org/2000/svg" width="512" height="512"><path fill="currentColor" d="M255.688-.312c1.45 0 1.45 0 2.93.01 14.33.04 28.28.55 42.38 3.3 1.35.24 1.35.24 2.72.49 59.81 10.82 117.32 44.88 154.28 93.51.42.54.84 1.08 1.27 1.64 7.68 9.99 14.42 20.45 20.73 31.36.4.68.79 1.36 1.2 2.05 13.18 22.92 21.79 48.5 27.11 74.33.15.71.3 1.42.45 2.15 2.99 15.64 3.62 31.28 3.55 47.16v2.93c-.05 14.33-.55 28.28-3.31 42.38-.16.9-.32 1.8-.49 2.72-10.82 59.81-44.88 117.32-93.51 154.28-.54.42-1.08.84-1.63 1.27-10 7.68-20.46 14.42-31.37 20.73-.67.4-1.35.79-2.05 1.2-22.92 13.18-48.49 21.79-74.32 27.11-.71.15-1.42.3-2.16.45-15.64 2.99-31.27 3.62-47.16 3.55h-2.93c-14.33-.05-28.28-.55-42.38-3.31-.89-.16-1.79-.32-2.72-.49-59.81-10.82-117.32-44.88-154.28-93.51-.41-.54-.83-1.08-1.26-1.63-7.68-10-14.43-20.46-20.74-31.37-.39-.67-.79-1.35-1.19-2.05-13.18-22.92-21.79-48.49-27.12-74.32-.15-.71-.29-1.42-.45-2.16-2.98-15.64-3.61-31.27-3.55-47.16 0-.96 0-1.93.01-2.93.04-14.33.55-28.28 3.3-42.38.24-1.34.24-1.34.49-2.72 10.82-59.81 44.88-117.32 93.51-154.28.54-.41 1.08-.83 1.64-1.26 9.99-7.68 20.45-14.43 31.36-20.74.68-.39 1.36-.79 2.05-1.19 22.92-13.18 48.5-21.79 74.33-27.12.71-.15 1.42-.29 2.15-.45 15.64-2.98 31.28-3.61 47.16-3.55m-4.66 149.03c-.55.55-1.1 1.1-1.66 1.67l-1.76 1.76c-1.96 1.96-3.92 3.92-5.87 5.89-1.4 1.4-2.8 2.8-4.2 4.19-3.81 3.81-7.61 7.63-11.41 11.45-3.98 3.98-7.95 7.96-11.93 11.94-7.53 7.54-15.06 15.08-22.59 22.63-8.56 8.59-17.13 17.17-25.71 25.75-17.64 17.66-35.27 35.33-52.9 53 .96 1.12 1.91 2.24 2.87 3.36.53.62 1.06 1.25 1.61 1.89 1.79 2.06 3.67 4.01 5.61 5.94 1.05 1.05 1.05 1.05 2.13 2.12l2.16 2.13c.73.73 1.47 1.46 2.23 2.22 1.79 1.78 3.59 3.56 5.39 5.34 3.71-1.55 6.06-3.81 8.89-6.64l1.44-1.44c1.6-1.59 3.19-3.19 4.78-4.79 1.14-1.15 2.28-2.29 3.43-3.43 3.1-3.11 6.2-6.21 9.29-9.32 3.24-3.25 6.48-6.5 9.72-9.74 6.14-6.15 12.27-12.29 18.4-18.45 6.99-7 13.97-14 20.96-20.99 14.37-14.39 28.73-28.79 43.09-43.2 3.71 1.56 6.06 3.82 8.89 6.65l1.44 1.44c1.6 1.59 3.19 3.19 4.78 4.79l12.72 12.75c3.24 3.25 6.48 6.49 9.72 9.74 6.14 6.14 12.27 12.29 18.4 18.44 6.99 7 13.97 14 20.96 21 14.37 14.39 28.73 28.79 43.09 43.19 3.62-1.7 5.95-3.71 8.77-6.57.89-.89 1.78-1.79 2.69-2.71.92-.94 1.84-1.88 2.79-2.84l2.84-2.87c2.31-2.33 4.61-4.67 6.91-7.01-3.79-4.52-7.69-8.84-11.87-13-.56-.56-1.12-1.13-1.69-1.7-1.86-1.86-3.71-3.72-5.57-5.58-1.34-1.34-2.68-2.68-4.01-4.02-3.62-3.63-7.24-7.25-10.86-10.87-2.26-2.26-4.52-4.53-6.79-6.79-7.88-7.89-15.77-15.78-23.66-23.67-7.36-7.36-14.71-14.73-22.06-22.1-6.32-6.32-12.63-12.64-18.95-18.96-3.78-3.78-7.55-7.55-11.32-11.33-3.54-3.55-7.08-7.1-10.63-10.63-1.3-1.31-2.61-2.61-3.91-3.92-1.76-1.77-3.54-3.54-5.31-5.31-.52-.53-1.04-1.05-1.58-1.59-4.43-4.39-5.37-4.17-9.76.19"/></svg>