<svg xmlns="http://www.w3.org/2000/svg" width="512" height="512"><path fill="currentColor" d="M366.25 105.563c1.93 1.8 3.84 3.62 5.75 5.44.73.68 1.46 1.35 2.21 2.05 22.3 21.28 34.61 51.91 38.79 81.95v3c1.14.11 2.29.22 3.46.34 22.57 2.85 42.42 16.46 58.54 31.66.74.66 1.48 1.32 2.24 2.01 19.92 18.61 33.68 49.06 34.9 76.13 1.02 37.45-7.85 69.54-33.94 97.51-9.15 9.62-18.77 16.73-30.2 23.35-1.48.87-1.48.87-2.99 1.75-6.07 3.3-12.37 5.48-18.95 7.5-.8.24-1.59.49-2.42.74-15.47 4.52-30.65 4.27-46.63 4.2h-6.69c-8.21-.01-16.42-.04-24.63-.07l-55.69-.12v-112c18.81-.5 18.81-.5 38-1 5.92-2.34 5.92-2.34 8-6 1.02-7.47-1.52-11.29-5.87-17.19-.6-.84-1.19-1.67-1.8-2.53-4.14-5.77-8.44-11.41-12.81-17-3.44-4.43-6.63-9.04-9.85-13.64-5.27-7.51-10.64-14.94-16.02-22.37-1.65-2.28-3.3-4.56-4.94-6.85-5.41-7.52-10.85-15.01-16.4-22.42-.5-.68-1.01-1.36-1.53-2.05-3.44-5.02-3.44-5.02-8.59-7.7-3.65-.29-5.06-.13-8.19 1.75-4.53 4.67-8.3 10.02-12.06 15.31-1.15 1.6-2.3 3.2-3.44 4.8l-1.76 2.46c-2.74 3.82-5.49 7.62-8.24 11.43-1.08 1.5-2.17 3-3.25 4.5-19.5 27-19.5 27-21.13 29.25-1.07 1.49-2.15 2.98-3.22 4.47-2.83 3.92-5.66 7.83-8.5 11.73-.59.82-1.18 1.63-1.79 2.47-1.13 1.55-2.25 3.1-3.39 4.65-5.94 7.72-5.94 7.72-7.65 16.99.74 3.35 2.8 4.92 5.43 6.94 12.98 4.32 27.32 1.64 41 2v112c-30.97.08-30.97.08-46.32.1-8.29.01-16.58.02-24.87.05-6.56.02-13.12.03-19.69.04-3.47 0-6.94 0-10.41.02-3.89.02-7.78.02-11.67.01l-3.43.03c-23.72-.06-46.49-7.85-64.61-23.25-.51-.43-1.02-.87-1.54-1.31-11.06-9.49-19.19-20.06-26.46-32.69-.54-.91-1.07-1.82-1.63-2.76-12.18-22.27-15.47-52.39-9.41-76.94 8.7-27.63 24.18-48.14 48.04-64.3-.22-.88-.43-1.75-.66-2.65-5.06-22.35-2.63-42.84 9.66-62.35 9.76-14.89 26.59-25.81 43.95-29.51 13.68-2.22 26.72-1.3 40.05 2.51.24-.84.48-1.67.72-2.53 1.49-4.03 3.43-7.42 5.72-11.03.66-1.06.66-1.06 1.34-2.13 4.5-6.97 9.6-13.22 15.22-19.31.73-.81.73-.81 1.48-1.63 23.96-26.12 58.31-41.98 93.62-44.25 38.89-1.67 76.19 10 105.15 36.44"/></svg>
