<?xml version="1.0" encoding="UTF-8"?>
<!-- Generator: visioncortex VTracer 0.6.3 -->
<svg version="1.1" xmlns="http://www.w3.org/2000/svg" width="512" height="512">
<path d="M0 0 C0.89 -0.01 1.79 -0.01 2.71 -0.02 C3.68 -0.02 4.66 -0.03 5.67 -0.03 C7.21 -0.04 7.21 -0.04 8.79 -0.05 C12.21 -0.07 15.63 -0.08 19.05 -0.09 C20.8 -0.1 20.8 -0.1 22.59 -0.1 C28.77 -0.12 34.95 -0.14 41.13 -0.15 C47.51 -0.16 53.9 -0.19 60.28 -0.23 C65.19 -0.26 70.1 -0.27 75.01 -0.27 C77.36 -0.28 79.71 -0.29 82.06 -0.31 C85.36 -0.33 88.65 -0.33 91.95 -0.32 C93.4 -0.34 93.4 -0.34 94.88 -0.36 C101.57 -0.31 107.12 0.9 112.16 5.56 C117.7 11.82 117.93 17.44 117.92 25.41 C117.93 26.44 117.93 27.47 117.94 28.54 C117.96 31.94 117.96 35.35 117.97 38.76 C117.97 41.13 117.98 43.51 117.99 45.88 C118 50.85 118 55.83 118 60.8 C118 67.17 118.03 73.53 118.06 79.9 C118.09 84.8 118.09 89.7 118.09 94.6 C118.09 96.95 118.1 99.29 118.11 101.64 C118.13 104.92 118.13 108.21 118.12 111.5 C118.13 112.46 118.14 113.42 118.15 114.42 C118.09 120.49 117.09 125.08 113.63 130.15 C111.41 132.21 111.41 132.21 109.13 133.58 C108.38 134.06 107.63 134.53 106.85 135.02 C103.34 136.8 100.21 137.27 96.29 137.29 C95.43 137.29 94.57 137.3 93.69 137.3 C92.75 137.31 91.81 137.31 90.85 137.31 C89.86 137.31 88.86 137.32 87.84 137.32 C84.56 137.34 81.27 137.34 77.99 137.35 C75.71 137.36 73.42 137.36 71.14 137.37 C66.35 137.38 61.55 137.38 56.76 137.39 C50.63 137.39 44.5 137.42 38.37 137.45 C33.65 137.46 28.93 137.47 24.21 137.47 C21.95 137.47 19.69 137.48 17.43 137.49 C14.26 137.51 11.1 137.51 7.93 137.5 C7 137.51 6.07 137.52 5.12 137.53 C-1.5 137.49 -7.31 136.64 -12.61 132.32 C-13.15 131.66 -13.69 131.01 -14.24 130.33 C-15.08 129.37 -15.08 129.37 -15.92 128.38 C-19.69 122.57 -19.67 116.76 -19.68 110.08 C-19.68 109.08 -19.69 108.08 -19.7 107.05 C-19.72 103.75 -19.73 100.46 -19.74 97.16 C-19.75 94.86 -19.76 92.56 -19.77 90.27 C-19.78 85.45 -19.79 80.63 -19.79 75.81 C-19.8 69.65 -19.84 63.5 -19.88 57.34 C-19.91 52.59 -19.92 47.84 -19.92 43.09 C-19.93 40.82 -19.94 38.55 -19.96 36.28 C-19.99 33.1 -19.98 29.92 -19.97 26.73 C-19.98 25.81 -20 24.88 -20.01 23.92 C-19.94 17.13 -18.19 11.81 -14.37 6.15 C-10.13 2.1 -5.85 0.03 0 0 Z " fill="#3392CF" transform="translate(69.36906433105469,234.8528289794922)"/>
<path d="M0 0 C1.03 -0.01 2.06 -0.01 3.13 -0.02 C6.53 -0.04 9.94 -0.04 13.35 -0.05 C15.72 -0.05 18.1 -0.06 20.47 -0.07 C25.44 -0.08 30.42 -0.08 35.39 -0.08 C41.76 -0.08 48.12 -0.11 54.49 -0.14 C59.39 -0.16 64.29 -0.17 69.19 -0.17 C71.54 -0.17 73.88 -0.18 76.23 -0.19 C79.51 -0.21 82.8 -0.21 86.09 -0.2 C87.05 -0.21 88.01 -0.22 89.01 -0.23 C95.08 -0.17 99.67 0.84 104.74 4.29 C106.8 6.51 106.8 6.51 108.17 8.79 C108.65 9.54 109.12 10.3 109.61 11.07 C111.39 14.58 111.86 17.72 111.88 21.63 C111.88 22.49 111.89 23.35 111.89 24.24 C111.9 25.64 111.9 25.64 111.9 27.07 C111.9 28.07 111.91 29.06 111.91 30.08 C111.93 33.36 111.93 36.65 111.94 39.93 C111.95 42.22 111.95 44.5 111.96 46.78 C111.97 51.58 111.97 56.37 111.98 61.16 C111.98 67.29 112.01 73.42 112.04 79.55 C112.05 84.27 112.06 88.99 112.06 93.71 C112.06 95.97 112.07 98.23 112.08 100.49 C112.1 103.66 112.1 106.82 112.09 109.99 C112.1 110.92 112.11 111.85 112.12 112.8 C112.08 119.42 111.23 125.23 106.91 130.53 C106.25 131.07 105.6 131.61 104.92 132.17 C103.96 133 103.96 133 102.97 133.85 C97.17 137.6 91.4 137.58 84.73 137.57 C83.24 137.57 83.24 137.57 81.72 137.58 C78.45 137.59 75.17 137.59 71.9 137.59 C69.62 137.6 67.34 137.6 65.06 137.6 C60.28 137.61 55.5 137.61 50.72 137.61 C44.6 137.6 38.49 137.62 32.37 137.64 C27.66 137.66 22.95 137.66 18.24 137.65 C15.98 137.65 13.73 137.66 11.47 137.67 C8.32 137.68 5.16 137.67 2.01 137.66 C1.08 137.67 0.16 137.68 -0.8 137.69 C-7.75 137.63 -13.01 136.29 -19.01 132.6 C-25 126.45 -25.85 119.99 -25.78 111.69 C-25.79 110.66 -25.79 109.62 -25.8 108.56 C-25.82 105.17 -25.81 101.78 -25.79 98.38 C-25.8 96.02 -25.8 93.65 -25.81 91.28 C-25.81 86.32 -25.8 81.37 -25.78 76.41 C-25.76 70.07 -25.77 63.73 -25.8 57.39 C-25.81 52.5 -25.81 47.61 -25.8 42.72 C-25.8 40.38 -25.8 38.05 -25.81 35.71 C-25.82 32.44 -25.8 29.17 -25.78 25.89 C-25.79 24.93 -25.8 23.98 -25.81 22.99 C-25.72 16.33 -24.49 10.77 -19.85 5.77 C-13.59 0.22 -7.97 -0.01 0 0 Z " fill="#3392CF" transform="translate(220.262939453125,234.70947265625)"/>
<path d="M0 0 C1.31 -0.01 1.31 -0.01 2.65 -0.03 C3.6 -0.03 4.55 -0.03 5.53 -0.04 C6.54 -0.05 7.55 -0.06 8.59 -0.06 C11.93 -0.09 15.27 -0.11 18.61 -0.12 C20.32 -0.13 20.32 -0.13 22.07 -0.14 C28.12 -0.16 34.17 -0.18 40.21 -0.2 C45.21 -0.21 50.21 -0.24 55.2 -0.28 C61.25 -0.33 67.29 -0.35 73.33 -0.36 C75.63 -0.37 77.92 -0.38 80.22 -0.41 C83.44 -0.44 86.67 -0.44 89.89 -0.43 C90.83 -0.45 91.77 -0.46 92.74 -0.48 C99.53 -0.42 104.98 1.24 110.6 5.15 C114.79 10.14 116.71 14.98 116.74 21.49 C116.75 22.35 116.75 23.21 116.76 24.1 C116.76 25.5 116.76 25.5 116.76 26.94 C116.77 27.93 116.77 28.92 116.78 29.94 C116.79 33.23 116.8 36.51 116.8 39.79 C116.81 42.08 116.81 44.36 116.82 46.65 C116.83 51.44 116.84 56.23 116.84 61.02 C116.85 67.15 116.87 73.28 116.9 79.42 C116.92 84.14 116.92 88.86 116.92 93.58 C116.93 95.84 116.93 98.1 116.95 100.36 C116.96 103.52 116.96 106.69 116.96 109.85 C116.97 110.78 116.97 111.71 116.98 112.67 C116.94 119.28 116.12 125.13 111.73 130.4 C111.07 130.93 110.41 131.47 109.73 132.03 C109.07 132.58 108.41 133.14 107.73 133.71 C102.13 137.5 97.06 137.45 90.5 137.43 C88.98 137.44 88.98 137.44 87.43 137.44 C84.09 137.46 80.74 137.46 77.39 137.45 C75.06 137.46 72.73 137.46 70.4 137.47 C65.51 137.48 60.63 137.47 55.75 137.47 C49.49 137.46 43.24 137.48 36.99 137.5 C32.17 137.52 27.36 137.52 22.55 137.52 C20.24 137.52 17.94 137.52 15.63 137.53 C12.41 137.54 9.18 137.54 5.95 137.53 C5.01 137.53 4.06 137.54 3.08 137.55 C-4.66 137.49 -10.75 135.81 -16.4 130.15 C-20.47 124.13 -20.98 118.67 -20.92 111.55 C-20.92 110.52 -20.93 109.49 -20.94 108.42 C-20.96 105.03 -20.94 101.64 -20.93 98.25 C-20.93 95.88 -20.94 93.51 -20.94 91.14 C-20.95 86.19 -20.94 81.23 -20.92 76.27 C-20.9 69.93 -20.91 63.59 -20.94 57.25 C-20.95 52.36 -20.95 47.47 -20.94 42.58 C-20.93 40.25 -20.94 37.91 -20.95 35.57 C-20.96 32.3 -20.94 29.03 -20.92 25.76 C-20.93 24.8 -20.93 23.84 -20.94 22.85 C-20.85 15.83 -19.39 10.23 -14.4 5.1 C-13.74 4.64 -13.08 4.19 -12.4 3.72 C-11.74 3.24 -11.08 2.77 -10.4 2.28 C-7.02 0.37 -3.84 0.03 0 0 Z " fill="#3492CF" transform="translate(173.39993286132813,91.84609985351563)"/>
<path d="M0 0 C1.02 -0.01 2.04 -0.01 3.1 -0.02 C6.47 -0.04 9.85 -0.04 13.22 -0.05 C15.57 -0.05 17.92 -0.06 20.27 -0.07 C25.2 -0.08 30.13 -0.08 35.05 -0.08 C41.36 -0.08 47.66 -0.11 53.97 -0.14 C58.82 -0.16 63.68 -0.17 68.53 -0.17 C70.86 -0.17 73.18 -0.18 75.51 -0.19 C78.76 -0.21 82.01 -0.21 85.27 -0.2 C86.22 -0.21 87.18 -0.22 88.16 -0.23 C95.19 -0.16 100.55 1.4 105.89 6.11 C106.34 6.68 106.8 7.26 107.27 7.85 C107.74 8.43 108.21 9.01 108.7 9.61 C110.71 12.6 110.96 15.24 110.98 18.74 C110.99 19.65 111 20.55 111.01 21.49 C111.02 22.99 111.02 22.99 111.02 24.51 C111.03 26.09 111.03 26.09 111.05 27.69 C111.07 31.18 111.09 34.66 111.1 38.15 C111.11 39.34 111.11 40.53 111.12 41.75 C111.15 48.05 111.16 54.35 111.18 60.65 C111.2 67.15 111.24 73.65 111.29 80.15 C111.33 85.16 111.34 90.16 111.34 95.16 C111.35 97.56 111.36 99.95 111.39 102.35 C111.42 105.71 111.42 109.07 111.41 112.42 C111.43 113.41 111.45 114.4 111.46 115.41 C111.4 121.96 110 126.2 105.83 131.29 C99.62 137.34 92.97 137.59 84.74 137.58 C83.74 137.59 82.74 137.59 81.71 137.6 C78.41 137.62 75.11 137.62 71.81 137.63 C69.51 137.63 67.21 137.64 64.9 137.65 C60.08 137.66 55.26 137.66 50.44 137.66 C44.27 137.66 38.1 137.69 31.94 137.72 C27.18 137.74 22.43 137.75 17.68 137.75 C15.4 137.75 13.13 137.76 10.86 137.77 C7.67 137.79 4.49 137.79 1.3 137.78 C0.37 137.79 -0.56 137.8 -1.52 137.81 C-8.23 137.75 -14.64 136.5 -19.76 131.84 C-23.33 127.73 -25.42 124.16 -25.43 118.71 C-25.44 117.8 -25.45 116.88 -25.45 115.94 C-25.45 114.95 -25.45 113.95 -25.45 112.93 C-25.45 111.87 -25.46 110.82 -25.46 109.73 C-25.48 106.24 -25.47 102.76 -25.47 99.27 C-25.48 96.84 -25.48 94.42 -25.48 92 C-25.49 86.91 -25.49 81.83 -25.49 76.75 C-25.48 70.24 -25.5 63.72 -25.52 57.21 C-25.54 52.2 -25.54 47.2 -25.53 42.19 C-25.53 39.79 -25.54 37.39 -25.55 34.99 C-25.56 31.63 -25.56 28.27 -25.54 24.91 C-25.55 23.92 -25.56 22.93 -25.57 21.91 C-25.52 15.73 -24.82 11.23 -20.52 6.46 C-19.95 5.99 -19.38 5.52 -18.8 5.04 C-17.95 4.32 -17.95 4.32 -17.09 3.59 C-11.59 -0.14 -6.43 -0.01 0 0 Z " fill="#3191CE" transform="translate(365.171142578125,234.70947265625)"/>
<path d="M0 0 C0.67 -0.01 1.35 -0.01 2.04 -0.02 C4.26 -0.04 6.49 -0.04 8.71 -0.05 C10.26 -0.05 11.81 -0.06 13.36 -0.07 C16.6 -0.08 19.85 -0.08 23.09 -0.08 C27.25 -0.08 31.4 -0.11 35.55 -0.14 C38.75 -0.16 41.95 -0.17 45.15 -0.17 C46.68 -0.17 48.21 -0.18 49.74 -0.19 C51.88 -0.21 54.03 -0.21 56.17 -0.2 C58 -0.2 58 -0.2 59.86 -0.2 C64.91 0.54 67.91 2.65 71.07 6.61 C72.5 9.96 72.6 12.54 72.6 16.19 C72.61 16.86 72.61 17.54 72.62 18.23 C72.63 20.45 72.62 22.66 72.61 24.88 C72.62 26.43 72.62 27.98 72.62 29.52 C72.63 32.76 72.62 36 72.61 39.25 C72.59 43.39 72.6 47.53 72.62 51.68 C72.63 54.87 72.62 58.07 72.62 61.26 C72.61 62.79 72.62 64.32 72.62 65.85 C72.63 67.98 72.62 70.12 72.6 72.26 C72.6 73.48 72.6 74.69 72.6 75.95 C72.05 80.78 70.77 84 66.98 87.14 C63.51 88.59 60.79 88.68 57.03 88.69 C56.32 88.7 55.62 88.71 54.89 88.72 C52.57 88.73 50.25 88.73 47.93 88.72 C46.32 88.73 44.7 88.73 43.08 88.74 C39.7 88.75 36.31 88.75 32.92 88.74 C28.59 88.73 24.26 88.75 19.92 88.77 C16.58 88.79 13.24 88.79 9.9 88.79 C8.31 88.79 6.71 88.79 5.11 88.81 C2.87 88.82 0.64 88.81 -1.6 88.79 C-2.87 88.79 -4.14 88.79 -5.45 88.79 C-9.43 88.19 -11.02 87.19 -13.78 84.29 C-15.99 80.34 -16.05 76.77 -16.09 72.3 C-16.1 71.62 -16.11 70.93 -16.12 70.23 C-16.14 67.98 -16.15 65.73 -16.16 63.48 C-16.16 61.91 -16.17 60.34 -16.18 58.77 C-16.2 55.48 -16.21 52.2 -16.21 48.91 C-16.22 44.7 -16.25 40.5 -16.3 36.3 C-16.33 33.05 -16.34 29.81 -16.34 26.57 C-16.34 25.02 -16.35 23.47 -16.37 21.92 C-16.4 19.75 -16.4 17.58 -16.38 15.41 C-16.39 13.56 -16.39 13.56 -16.4 11.67 C-15.49 6.65 -13.08 3.94 -8.9 0.93 C-5.89 0.02 -3.14 0.02 0 0 Z " fill="#C2E2F5" transform="translate(379.78466796875,242.70947265625)"/>
<path d="M0 0 C1 -0.01 1 -0.01 2.01 -0.02 C4.21 -0.03 6.4 -0.04 8.6 -0.04 C10.12 -0.05 11.65 -0.05 13.18 -0.06 C16.39 -0.07 19.59 -0.08 22.8 -0.08 C26.9 -0.08 30.99 -0.11 35.09 -0.14 C38.25 -0.16 41.41 -0.16 44.57 -0.16 C46.08 -0.17 47.59 -0.17 49.1 -0.19 C51.22 -0.2 53.33 -0.2 55.45 -0.2 C56.66 -0.2 57.86 -0.2 59.1 -0.21 C64.36 0.38 67.33 1.88 70.76 5.91 C72.66 9.64 72.93 12.01 72.94 16.17 C72.95 16.85 72.95 17.52 72.96 18.22 C72.98 20.43 72.97 22.64 72.95 24.85 C72.95 26.4 72.96 27.94 72.96 29.49 C72.97 32.72 72.96 35.96 72.94 39.19 C72.92 43.33 72.93 47.46 72.96 51.6 C72.97 54.79 72.97 57.98 72.96 61.17 C72.95 62.7 72.96 64.22 72.97 65.75 C72.98 67.88 72.96 70.01 72.94 72.15 C72.94 73.36 72.93 74.57 72.93 75.82 C72.19 80.66 69.99 83.56 66.61 87.01 C63.47 88.66 60.89 88.56 57.36 88.58 C56.31 88.59 56.31 88.59 55.23 88.61 C52.91 88.63 50.59 88.63 48.27 88.63 C46.66 88.64 45.04 88.64 43.42 88.65 C40.03 88.67 36.65 88.67 33.26 88.66 C28.93 88.66 24.59 88.69 20.26 88.73 C16.92 88.75 13.58 88.76 10.24 88.75 C8.65 88.75 7.05 88.76 5.45 88.78 C3.21 88.8 0.98 88.79 -1.26 88.78 C-2.53 88.78 -3.8 88.78 -5.11 88.78 C-9.71 87.96 -11.32 86.47 -14.58 83.16 C-15.73 79.71 -15.74 76.97 -15.79 73.32 C-15.8 72.63 -15.81 71.94 -15.82 71.23 C-15.85 68.94 -15.87 66.65 -15.89 64.36 C-15.9 63.19 -15.9 63.19 -15.91 61.99 C-15.94 57.85 -15.96 53.7 -15.98 49.56 C-16 46.13 -16.04 42.71 -16.09 39.29 C-16.15 35.15 -16.18 31.01 -16.19 26.87 C-16.2 25.29 -16.21 23.72 -16.24 22.14 C-16.49 8.3 -16.49 8.3 -12.73 3.7 C-8.88 0.04 -5.14 0.03 0 0 Z " fill="#C1E2F5" transform="translate(90.579345703125,242.8388671875)"/>
<path d="M0 0 C0.66 -0.01 1.33 -0.01 2.01 -0.02 C4.19 -0.04 6.37 -0.04 8.55 -0.03 C10.07 -0.03 11.6 -0.04 13.12 -0.05 C16.31 -0.05 19.5 -0.05 22.68 -0.04 C26.76 -0.03 30.83 -0.05 34.91 -0.08 C38.05 -0.1 41.2 -0.1 44.34 -0.09 C45.85 -0.09 47.35 -0.1 48.85 -0.11 C50.95 -0.13 53.06 -0.11 55.16 -0.1 C56.35 -0.1 57.55 -0.1 58.78 -0.1 C63.6 0.63 66.5 2.86 69.93 6.22 C71.57 9.34 71.46 11.87 71.47 15.39 C71.47 16.08 71.48 16.78 71.48 17.49 C71.5 19.79 71.49 22.08 71.48 24.37 C71.48 25.97 71.48 27.56 71.49 29.16 C71.49 32.5 71.49 35.85 71.47 39.19 C71.45 43.47 71.46 47.76 71.48 52.04 C71.49 55.33 71.49 58.63 71.48 61.93 C71.48 63.51 71.48 65.09 71.49 66.66 C71.5 68.87 71.48 71.08 71.47 73.29 C71.47 74.55 71.46 75.8 71.46 77.1 C70.94 81.58 69.45 84 66.34 87.19 C63.14 88.91 60.54 88.8 56.91 88.82 C56.2 88.83 55.48 88.84 54.75 88.85 C52.39 88.87 50.03 88.87 47.68 88.87 C46.04 88.88 44.39 88.89 42.75 88.9 C39.31 88.91 35.88 88.91 32.44 88.91 C28.03 88.9 23.63 88.93 19.23 88.97 C15.84 89 12.45 89 9.06 89 C7.44 89 5.81 89.01 4.19 89.02 C1.92 89.05 -0.35 89.04 -2.62 89.02 C-4.56 89.02 -4.56 89.02 -6.54 89.03 C-10.82 88.24 -12.23 86.77 -14.92 83.4 C-17.3 79.93 -17.18 76.77 -17.21 72.62 C-17.22 71.95 -17.22 71.27 -17.23 70.58 C-17.25 68.36 -17.25 66.13 -17.26 63.91 C-17.26 62.36 -17.27 60.81 -17.28 59.26 C-17.29 56.02 -17.29 52.77 -17.29 49.52 C-17.29 45.37 -17.32 41.22 -17.35 37.07 C-17.37 33.87 -17.38 30.67 -17.38 27.47 C-17.38 25.94 -17.39 24.41 -17.4 22.88 C-17.42 20.74 -17.42 18.59 -17.41 16.45 C-17.41 15.23 -17.41 14.01 -17.41 12.76 C-16.81 8.63 -15.62 6.57 -12.92 3.4 C-8.57 0.55 -5.14 0.02 0 0 Z " fill="#C1E1F5" transform="translate(193.919921875,99.595947265625)"/>
<path d="M0 0 C0.67 -0.01 1.35 -0.01 2.04 -0.02 C4.26 -0.04 6.47 -0.04 8.69 -0.03 C10.24 -0.03 11.79 -0.04 13.34 -0.05 C16.58 -0.05 19.82 -0.05 23.06 -0.04 C27.2 -0.03 31.34 -0.05 35.49 -0.08 C38.68 -0.1 41.88 -0.1 45.07 -0.09 C46.6 -0.09 48.13 -0.1 49.66 -0.11 C51.8 -0.13 53.93 -0.11 56.07 -0.1 C57.29 -0.1 58.5 -0.1 59.76 -0.1 C64.61 0.63 67.5 2.84 70.95 6.22 C72.59 9.34 72.48 11.87 72.49 15.39 C72.5 16.08 72.5 16.78 72.51 17.49 C72.52 19.79 72.51 22.08 72.5 24.37 C72.5 25.97 72.51 27.56 72.51 29.16 C72.51 32.5 72.51 35.85 72.49 39.19 C72.48 43.47 72.49 47.76 72.5 52.04 C72.51 55.33 72.51 58.63 72.5 61.93 C72.5 63.51 72.5 65.09 72.51 66.66 C72.52 68.87 72.51 71.08 72.49 73.29 C72.49 74.55 72.49 75.8 72.48 77.1 C71.94 81.81 70.56 84.25 66.86 87.19 C63.41 88.71 60.78 88.8 57.02 88.82 C56.33 88.83 55.63 88.84 54.92 88.85 C52.64 88.87 50.36 88.87 48.07 88.87 C46.48 88.88 44.89 88.89 43.3 88.9 C39.96 88.91 36.63 88.91 33.29 88.91 C29.03 88.9 24.76 88.93 20.5 88.97 C17.21 89 13.92 89 10.63 89 C9.06 89 7.49 89.01 5.92 89.02 C3.72 89.05 1.52 89.04 -0.69 89.02 C-2.56 89.02 -2.56 89.02 -4.48 89.03 C-9.53 88.11 -12.23 85.73 -15.26 81.52 C-16.17 78.51 -16.17 75.76 -16.19 72.62 C-16.2 71.95 -16.2 71.27 -16.21 70.58 C-16.23 68.36 -16.23 66.13 -16.23 63.91 C-16.24 62.36 -16.25 60.81 -16.25 59.26 C-16.27 56.02 -16.27 52.77 -16.27 49.52 C-16.27 45.37 -16.3 41.22 -16.33 37.07 C-16.35 33.87 -16.36 30.67 -16.36 27.47 C-16.36 25.94 -16.37 24.41 -16.38 22.88 C-16.4 20.74 -16.4 18.59 -16.38 16.45 C-16.39 15.23 -16.39 14.01 -16.39 12.76 C-15.65 7.71 -13.53 4.71 -9.58 1.55 C-6.23 0.12 -3.64 0.02 0 0 Z " fill="#C1E2F5" transform="translate(234.898193359375,242.595947265625)"/>
<path d="M0 0 C-0.31 0.76 -0.62 1.53 -0.94 2.31 C-2.68 6.72 -3.13 9.99 -3.16 14.73 C-3.17 15.41 -3.17 16.09 -3.18 16.79 C-3.19 19.04 -3.2 21.29 -3.2 23.54 C-3.21 25.11 -3.21 26.68 -3.22 28.25 C-3.23 31.54 -3.24 34.83 -3.24 38.12 C-3.25 42.32 -3.27 46.52 -3.3 50.73 C-3.32 53.97 -3.32 57.21 -3.32 60.45 C-3.33 62 -3.33 63.55 -3.35 65.1 C-3.64 78.36 -3.64 78.36 2.38 89.81 C7.45 94.04 10.64 95.38 17.33 95.4 C18.04 95.41 18.76 95.42 19.51 95.42 C21.87 95.44 24.24 95.44 26.61 95.43 C28.27 95.44 29.92 95.44 31.58 95.45 C35.05 95.46 38.51 95.46 41.98 95.45 C46.41 95.43 50.84 95.45 55.27 95.48 C58.68 95.5 62.1 95.5 65.52 95.5 C67.15 95.5 68.79 95.5 70.42 95.51 C82.31 95.72 82.31 95.72 93 91 C98.16 85.71 99.25 80.89 99.26 73.63 C99.26 72.9 99.27 72.18 99.27 71.43 C99.28 69.05 99.27 66.67 99.27 64.28 C99.27 62.62 99.27 60.96 99.27 59.29 C99.27 55.81 99.27 52.33 99.26 48.85 C99.25 44.4 99.26 39.94 99.27 35.49 C99.28 32.06 99.27 28.62 99.27 25.19 C99.27 23.55 99.27 21.91 99.27 20.27 C99.28 17.97 99.27 15.67 99.26 13.37 C99.26 12.07 99.26 10.76 99.25 9.41 C99.01 6.16 98.41 3.92 97 1 C100.98 1.19 102.68 1.71 105.67 4.42 C108.99 8.65 108.69 12.96 108.62 18.15 C108.62 19.16 108.63 20.16 108.63 21.2 C108.64 24.52 108.62 27.84 108.59 31.16 C108.59 33.47 108.59 35.78 108.59 38.09 C108.59 42.93 108.57 47.77 108.54 52.61 C108.5 58.81 108.5 65.02 108.51 71.22 C108.51 75.99 108.5 80.76 108.48 85.53 C108.47 87.82 108.47 90.11 108.47 92.39 C108.47 95.59 108.45 98.79 108.42 101.98 C108.42 102.93 108.43 103.87 108.43 104.84 C108.37 109.66 108.3 113.2 105 117 C100.51 120.89 95.62 120.44 89.98 120.42 C88.98 120.43 87.97 120.44 86.93 120.45 C83.61 120.47 80.29 120.47 76.97 120.47 C74.66 120.48 72.35 120.48 70.04 120.49 C65.2 120.51 60.36 120.51 55.52 120.5 C49.32 120.5 43.12 120.53 36.91 120.57 C32.14 120.59 27.37 120.59 22.6 120.59 C20.31 120.59 18.03 120.6 15.74 120.62 C12.54 120.64 9.35 120.63 6.15 120.62 C4.73 120.64 4.73 120.64 3.29 120.66 C-1.01 120.6 -4.05 120.43 -7.51 117.71 C-10.82 114.11 -12.25 111.58 -12.27 106.69 C-12.28 105.83 -12.28 104.98 -12.29 104.1 C-12.29 103.17 -12.29 102.24 -12.29 101.28 C-12.3 100.29 -12.3 99.31 -12.31 98.29 C-12.33 95.03 -12.33 91.77 -12.34 88.51 C-12.34 86.24 -12.35 83.97 -12.36 81.71 C-12.37 76.95 -12.37 72.2 -12.37 67.45 C-12.37 61.36 -12.4 55.27 -12.43 49.18 C-12.45 44.5 -12.46 39.82 -12.46 35.14 C-12.46 32.89 -12.47 30.65 -12.48 28.4 C-12.5 25.26 -12.5 22.12 -12.49 18.98 C-12.5 18.06 -12.51 17.13 -12.52 16.18 C-12.47 10.62 -11.74 7.38 -8 3 C-5.01 0.81 -3.72 0 0 0 Z " fill="#FAFCFD" transform="translate(215,243)"/>
<path d="M0 0 C4.09 0.86 6.46 1.43 9.38 4.5 C11.45 7.69 12.13 9.32 12.15 13.07 C12.15 13.92 12.16 14.78 12.17 15.66 C12.17 16.59 12.17 17.53 12.18 18.5 C12.18 19.48 12.19 20.47 12.2 21.48 C12.22 24.75 12.23 28.03 12.24 31.3 C12.24 32.41 12.25 33.53 12.25 34.68 C12.27 40.59 12.29 46.49 12.3 52.4 C12.31 58.5 12.34 64.61 12.38 70.71 C12.41 75.4 12.41 80.1 12.42 84.79 C12.42 87.04 12.43 89.29 12.45 91.54 C12.48 94.69 12.48 97.84 12.47 100.99 C12.48 101.92 12.5 102.85 12.51 103.8 C12.46 109.37 11.78 112.63 8 117 C5.14 119.52 3.38 120.38 -0.43 120.39 C-1.31 120.41 -2.19 120.42 -3.09 120.43 C-4.05 120.43 -5.01 120.42 -6 120.42 C-7.52 120.43 -7.52 120.43 -9.07 120.45 C-12.43 120.47 -15.79 120.47 -19.15 120.47 C-21.48 120.48 -23.82 120.48 -26.15 120.49 C-31.04 120.51 -35.94 120.51 -40.83 120.5 C-47.1 120.5 -53.37 120.53 -59.64 120.57 C-64.46 120.59 -69.29 120.59 -74.11 120.59 C-76.42 120.59 -78.73 120.6 -81.04 120.62 C-84.28 120.64 -87.51 120.63 -90.74 120.62 C-91.7 120.63 -92.65 120.64 -93.63 120.66 C-98.02 120.6 -101.07 120.42 -104.58 117.65 C-107.61 114.33 -108.12 112.07 -108.16 107.74 C-108.17 106.87 -108.18 106 -108.19 105.1 C-108.2 103.68 -108.2 103.68 -108.21 102.22 C-108.22 101.22 -108.23 100.22 -108.24 99.18 C-108.27 95.86 -108.29 92.53 -108.31 89.2 C-108.32 88.07 -108.32 86.93 -108.33 85.76 C-108.36 79.75 -108.39 73.74 -108.41 67.72 C-108.42 62.75 -108.46 57.77 -108.51 52.8 C-108.57 46.79 -108.6 40.78 -108.61 34.77 C-108.62 32.49 -108.64 30.2 -108.66 27.91 C-108.7 24.7 -108.7 21.5 -108.7 18.29 C-108.72 17.35 -108.74 16.41 -108.76 15.44 C-108.69 9.61 -107.58 6.49 -103.57 2.21 C-102 1 -102 1 -99.12 0.56 C-98.42 0.71 -97.72 0.85 -97 1 C-97.32 1.67 -97.65 2.35 -97.98 3.04 C-99.21 6.62 -99.26 9.56 -99.27 13.34 C-99.28 14.06 -99.28 14.78 -99.29 15.53 C-99.3 17.9 -99.3 20.27 -99.3 22.65 C-99.3 24.31 -99.31 25.96 -99.31 27.62 C-99.32 31.09 -99.32 34.56 -99.32 38.04 C-99.31 42.47 -99.33 46.91 -99.35 51.35 C-99.36 54.77 -99.37 58.19 -99.36 61.62 C-99.36 63.25 -99.37 64.89 -99.38 66.52 C-99.39 68.82 -99.38 71.11 -99.37 73.4 C-99.37 74.7 -99.37 76 -99.37 77.34 C-98.88 82.22 -97.57 86.18 -94.32 89.96 C-93.74 90.43 -93.16 90.89 -92.56 91.38 C-91.99 91.86 -91.41 92.34 -90.82 92.84 C-86.77 95.43 -82.48 95.15 -77.79 95.19 C-77.07 95.2 -76.35 95.21 -75.61 95.22 C-73.23 95.24 -70.86 95.26 -68.48 95.27 C-67.26 95.28 -67.26 95.28 -66.02 95.29 C-61.71 95.32 -57.4 95.34 -53.09 95.35 C-49.54 95.36 -45.98 95.39 -42.43 95.43 C-38.12 95.48 -33.82 95.51 -29.52 95.51 C-27.88 95.52 -26.25 95.54 -24.61 95.56 C-13.39 95.93 -13.39 95.93 -3.39 91.42 C2.09 85.81 3.12 79.68 3.16 72.12 C3.17 71.44 3.17 70.76 3.18 70.05 C3.19 67.8 3.2 65.54 3.2 63.29 C3.21 61.72 3.21 60.15 3.22 58.57 C3.23 55.28 3.24 51.99 3.24 48.69 C3.25 44.48 3.27 40.27 3.3 36.06 C3.32 32.81 3.32 29.56 3.32 26.32 C3.33 24.77 3.33 23.21 3.35 21.66 C3.36 19.49 3.36 17.31 3.36 15.14 C3.36 13.9 3.36 12.66 3.37 11.39 C2.96 7.66 1.8 5.26 0 2 C0 1.34 0 0.68 0 0 Z " fill="#FAFCFD" transform="translate(167,243)"/>
<path d="M0 0 C-0.32 0.84 -0.65 1.68 -0.98 2.54 C-2.09 6.31 -2.27 9.42 -2.29 13.35 C-2.3 14.06 -2.3 14.77 -2.31 15.5 C-2.33 17.83 -2.33 20.16 -2.34 22.49 C-2.34 24.12 -2.35 25.75 -2.36 27.39 C-2.37 30.8 -2.37 34.21 -2.37 37.63 C-2.37 41.99 -2.4 46.35 -2.43 50.71 C-2.45 54.08 -2.46 57.44 -2.46 60.81 C-2.46 62.42 -2.47 64.03 -2.48 65.63 C-2.7 77.41 -2.7 77.41 2 88 C7.21 92.95 11.06 94.25 18.21 94.29 C18.93 94.3 19.65 94.3 20.39 94.31 C22.77 94.33 25.14 94.33 27.52 94.34 C29.17 94.34 30.83 94.35 32.49 94.36 C35.96 94.37 39.43 94.37 42.91 94.37 C47.34 94.37 51.78 94.4 56.21 94.43 C59.64 94.45 63.06 94.46 66.48 94.46 C68.12 94.46 69.75 94.47 71.39 94.48 C83.29 94.72 83.29 94.72 94 90 C99.12 84.74 100.25 79.95 100.26 72.73 C100.26 72.02 100.27 71.31 100.27 70.57 C100.28 68.23 100.27 65.88 100.27 63.54 C100.27 61.9 100.27 60.26 100.27 58.62 C100.27 55.19 100.27 51.76 100.26 48.34 C100.25 43.95 100.26 39.56 100.27 35.18 C100.28 31.8 100.27 28.42 100.27 25.04 C100.27 23.42 100.27 21.8 100.27 20.19 C100.28 17.92 100.27 15.66 100.26 13.39 C100.26 12.11 100.26 10.82 100.25 9.5 C100 6.01 99.26 3.25 98 0 C101.93 0.27 103.55 0.52 106.31 3.44 C108.44 6.67 109.13 8.3 109.15 12.11 C109.15 12.97 109.16 13.83 109.17 14.72 C109.17 15.67 109.17 16.61 109.18 17.59 C109.18 18.58 109.19 19.58 109.2 20.6 C109.22 23.91 109.23 27.21 109.24 30.52 C109.24 31.64 109.25 32.77 109.25 33.93 C109.27 39.9 109.29 45.86 109.3 51.83 C109.31 57.99 109.34 64.16 109.38 70.32 C109.41 75.06 109.41 79.8 109.42 84.53 C109.42 86.81 109.43 89.08 109.45 91.35 C109.48 94.53 109.48 97.71 109.47 100.9 C109.48 101.83 109.5 102.77 109.51 103.74 C109.46 109.3 108.85 112.68 105 117 C102.1 118.77 99.94 119.25 96.57 119.27 C95.24 119.28 95.24 119.28 93.89 119.29 C92.93 119.29 91.98 119.29 90.99 119.29 C89.97 119.3 88.95 119.3 87.91 119.31 C84.54 119.33 81.18 119.33 77.82 119.34 C75.48 119.34 73.14 119.35 70.81 119.36 C65.91 119.37 61.01 119.37 56.11 119.37 C49.83 119.37 43.55 119.4 37.27 119.43 C32.45 119.45 27.62 119.46 22.8 119.46 C20.48 119.46 18.17 119.47 15.85 119.48 C12.62 119.5 9.38 119.5 6.14 119.49 C5.19 119.5 4.23 119.51 3.24 119.52 C-0.89 119.48 -3.37 119.36 -7.01 117.28 C-11.61 112 -11.3 106.77 -11.31 100.07 C-11.31 99.08 -11.32 98.08 -11.33 97.06 C-11.36 93.77 -11.36 90.48 -11.37 87.19 C-11.38 84.9 -11.39 82.62 -11.4 80.33 C-11.41 75.53 -11.42 70.74 -11.43 65.95 C-11.43 59.8 -11.47 53.66 -11.51 47.52 C-11.54 42.8 -11.55 38.07 -11.55 33.35 C-11.56 31.09 -11.57 28.82 -11.59 26.56 C-11.62 23.39 -11.61 20.22 -11.6 17.06 C-11.61 16.12 -11.63 15.19 -11.64 14.23 C-11.6 9.85 -11.4 6.91 -8.59 3.43 C-5.17 0.22 -4.79 0 0 0 Z " fill="#FDFEFE" transform="translate(359,244)"/>
<path d="M0 0 C-0.49 1 -0.97 2.01 -1.47 3.04 C-3.11 6.87 -3.39 10.17 -3.42 14.35 C-3.43 15.05 -3.44 15.75 -3.45 16.47 C-3.47 18.76 -3.47 21.05 -3.47 23.34 C-3.48 24.94 -3.48 26.55 -3.49 28.15 C-3.51 31.51 -3.51 34.87 -3.5 38.22 C-3.5 42.51 -3.53 46.79 -3.57 51.07 C-3.59 54.38 -3.59 57.7 -3.59 61.01 C-3.59 62.59 -3.6 64.17 -3.62 65.74 C-3.72 75.51 -3.43 83.14 3.51 90.63 C10.04 95.91 19.27 94.68 27.2 94.59 C28.87 94.59 30.55 94.59 32.23 94.59 C35.73 94.59 39.24 94.57 42.74 94.54 C47.23 94.5 51.71 94.5 56.19 94.51 C59.66 94.51 63.12 94.5 66.58 94.48 C68.23 94.47 69.88 94.47 71.54 94.47 C73.85 94.47 76.16 94.45 78.47 94.42 C80.44 94.41 80.44 94.41 82.45 94.39 C86.28 93.97 88.67 92.88 92 91 C92.99 90.67 93.98 90.34 95 90 C96.13 88.17 96.13 88.17 97 86 C97.34 85.44 97.69 84.89 98.04 84.32 C99.38 81.07 99.25 78.28 99.26 74.77 C99.26 74.05 99.27 73.33 99.27 72.59 C99.28 70.21 99.27 67.83 99.27 65.45 C99.27 63.79 99.27 62.13 99.27 60.47 C99.27 56.99 99.27 53.52 99.26 50.04 C99.25 45.59 99.26 41.15 99.27 36.7 C99.28 33.28 99.27 29.85 99.27 26.42 C99.27 24.78 99.27 23.15 99.27 21.51 C99.28 19.21 99.27 16.91 99.26 14.62 C99.26 13.31 99.26 12.01 99.25 10.66 C98.98 6.77 98.2 3.69 97 0 C100.98 0.19 102.68 0.71 105.67 3.42 C108.99 7.65 108.69 11.96 108.62 17.15 C108.62 18.16 108.63 19.16 108.63 20.2 C108.64 23.52 108.62 26.84 108.59 30.16 C108.59 32.47 108.59 34.78 108.59 37.09 C108.59 41.93 108.57 46.77 108.54 51.61 C108.5 57.81 108.5 64.02 108.51 70.22 C108.51 74.99 108.5 79.76 108.48 84.53 C108.47 86.82 108.47 89.11 108.47 91.39 C108.47 94.59 108.45 97.79 108.42 100.98 C108.42 101.93 108.43 102.87 108.43 103.84 C108.37 108.69 108.24 112.13 105 116 C102.12 118.52 100.35 119.38 96.53 119.39 C95.19 119.41 95.19 119.41 93.83 119.43 C92.86 119.43 91.89 119.42 90.89 119.42 C89.87 119.43 88.84 119.44 87.78 119.45 C84.39 119.47 80.99 119.47 77.6 119.47 C75.24 119.48 72.88 119.48 70.52 119.49 C65.58 119.51 60.63 119.51 55.68 119.5 C49.34 119.5 43.01 119.53 36.67 119.57 C31.79 119.59 26.92 119.59 22.05 119.59 C19.71 119.59 17.37 119.6 15.04 119.62 C11.77 119.64 8.5 119.63 5.23 119.62 C4.27 119.63 3.3 119.64 2.3 119.66 C-2.22 119.6 -4.32 119.51 -8.01 116.71 C-10.75 112.98 -12.25 110.35 -12.27 105.69 C-12.28 104.83 -12.28 103.98 -12.29 103.1 C-12.29 102.17 -12.29 101.24 -12.29 100.28 C-12.3 99.29 -12.3 98.31 -12.31 97.29 C-12.33 94.03 -12.33 90.77 -12.34 87.51 C-12.34 85.24 -12.35 82.97 -12.36 80.71 C-12.37 75.95 -12.37 71.2 -12.37 66.45 C-12.37 60.36 -12.4 54.27 -12.43 48.18 C-12.45 43.5 -12.46 38.82 -12.46 34.14 C-12.46 31.89 -12.47 29.65 -12.48 27.4 C-12.5 24.26 -12.5 21.12 -12.49 17.98 C-12.5 17.06 -12.51 16.13 -12.52 15.18 C-12.47 9.63 -11.76 6.36 -8 2 C-4.77 -0.15 -3.72 -0.2 0 0 Z " fill="#FAFCFD" transform="translate(173,101)"/>
<path d="M0 0 C1.1 -0.01 1.1 -0.01 2.22 -0.02 C7.98 0.04 12.85 1.06 17.39 4.87 C21.61 10.38 22.98 14.44 23 21.38 C23.02 22.56 23.03 23.74 23.05 24.96 C22.48 30.44 20.45 34.28 16.19 37.75 C15.31 38.49 15.31 38.49 14.41 39.24 C10.11 42.23 5.2 41.69 0.19 41.75 C-0.68 41.78 -1.55 41.81 -2.44 41.84 C-3.69 41.85 -3.69 41.85 -4.97 41.86 C-5.73 41.88 -6.49 41.89 -7.28 41.91 C-9.31 41.44 -9.31 41.44 -11.06 39.88 C-12.75 36.59 -12.76 33.58 -12.75 29.97 C-12.75 29.25 -12.76 28.53 -12.76 27.8 C-12.77 26.28 -12.77 24.77 -12.76 23.26 C-12.75 20.94 -12.78 18.64 -12.81 16.32 C-12.81 14.85 -12.81 13.38 -12.81 11.91 C-12.82 11.22 -12.83 10.53 -12.84 9.82 C-12.79 6.5 -12.51 4.7 -10.52 2 C-7.2 -0.35 -3.91 -0.1 0 0 Z " fill="#3694CF" transform="translate(406.3125,268.5625)"/>
<path d="M0 0 C2.62 0.38 2.62 0.38 5 1 C7.41 8.58 9.28 16.23 11 24 C12.78 21.33 13.43 19.88 14.18 16.88 C14.49 15.69 14.49 15.69 14.81 14.48 C15.23 12.83 15.64 11.17 16.06 9.52 C16.37 8.33 16.37 8.33 16.68 7.12 C16.86 6.41 17.05 5.69 17.23 4.95 C18.13 2.66 19.07 1.5 21 0 C24 -0.06 24 -0.06 27 1 C30.06 5.93 31.3 11.31 32.69 16.88 C32.91 17.75 33.14 18.63 33.37 19.54 C33.92 21.69 34.46 23.84 35 26 C35.17 25.28 35.34 24.57 35.52 23.83 C36.3 20.59 37.09 17.36 37.88 14.12 C38.14 13 38.41 11.87 38.69 10.71 C38.96 9.63 39.22 8.55 39.49 7.45 C39.73 6.45 39.97 5.46 40.22 4.43 C41 2 41 2 43 0 C47.56 0.56 47.56 0.56 49 2 C48.46 9.59 46.46 16.89 44.62 24.25 C44.32 25.52 44.02 26.78 43.7 28.09 C43.4 29.3 43.1 30.51 42.79 31.77 C42.52 32.87 42.25 33.97 41.97 35.1 C41.01 37.98 40.07 39.8 38 42 C35.5 42.5 35.5 42.5 33 42 C30.42 39.17 29.38 36.54 28.43 32.87 C28.17 31.9 27.92 30.93 27.65 29.93 C27.4 28.92 27.14 27.91 26.88 26.88 C26.35 24.87 25.83 22.87 25.3 20.87 C25.08 19.98 24.85 19.1 24.62 18.18 C24.07 15.98 24.07 15.98 23 14 C22.8 14.74 22.61 15.48 22.41 16.25 C21.51 19.61 20.6 22.96 19.69 26.31 C19.22 28.06 19.22 28.06 18.75 29.85 C18.29 31.53 18.29 31.53 17.82 33.24 C17.55 34.27 17.27 35.3 16.98 36.36 C15.99 39.02 15.31 40.37 13 42 C9.81 41.69 9.81 41.69 7 41 C4.37 33.08 2.21 25.1 0.25 17 C0.03 16.09 -0.2 15.18 -0.42 14.25 C-0.63 13.38 -0.84 12.52 -1.05 11.62 C-1.23 10.85 -1.41 10.08 -1.6 9.29 C-2.04 6.78 -2.2 4.54 -2 2 C-1.34 1.34 -0.68 0.68 0 0 Z " fill="#3392CF" transform="translate(198,127)"/>
<path d="M0 0 C3.56 1.19 3.56 1.19 5.46 4.47 C8.09 10.17 10.46 15.99 12.81 21.81 C13.27 22.92 13.73 24.02 14.2 25.16 C14.64 26.24 15.07 27.31 15.52 28.41 C15.91 29.38 16.3 30.34 16.71 31.34 C17.65 34.47 17.86 36.93 17.56 40.19 C16.9 40.85 16.24 41.51 15.56 42.19 C12.86 42.01 11.79 41.42 9.88 39.5 C8.56 37.19 8.56 37.19 7.56 31.19 C1.95 31.19 -3.66 31.19 -9.44 31.19 C-9.77 33.17 -10.1 35.15 -10.44 37.19 C-12 40.06 -12 40.06 -13.44 42.19 C-18.31 41.31 -18.31 41.31 -19.44 40.19 C-19.27 32.69 -16.28 26.17 -13.4 19.36 C-12.56 17.37 -11.74 15.37 -10.92 13.37 C-10.39 12.09 -9.85 10.82 -9.32 9.54 C-8.84 8.39 -8.36 7.25 -7.86 6.06 C-5.73 1.77 -4.9 0.27 0 0 Z " fill="#3392CF" transform="translate(119.4375,264.8125)"/>
<path d="M0 0 C2.64 1.71 4.08 3.59 5.82 6.21 C5.45 8.89 5.45 8.89 4.82 11.21 C3.17 11.54 1.52 11.87 -0.18 12.21 C-0.82 11.22 -1.46 10.23 -2.12 9.21 C-3.89 7.02 -4.7 6.29 -7.52 5.81 C-9.76 5.83 -11.95 5.94 -14.18 6.21 C-14.51 7.86 -14.84 9.51 -15.18 11.21 C-10.11 13.46 -5 15.32 0.27 17.05 C3.21 18.38 4.83 19.66 6.82 22.21 C7.78 26.22 7.73 30.39 5.87 34.12 C3.29 37.43 0.73 38.95 -3.18 40.21 C-10.53 41.07 -16.28 40.85 -22.18 36.21 C-24.18 33.77 -24.18 33.77 -25.18 31.21 C-24.87 28.39 -24.87 28.39 -24.18 26.21 C-22.53 25.88 -20.88 25.55 -19.18 25.21 C-18.84 25.7 -18.5 26.19 -18.16 26.7 C-17.71 27.34 -17.26 27.98 -16.8 28.64 C-16.36 29.28 -15.92 29.92 -15.47 30.58 C-14.26 32.34 -14.26 32.34 -12.18 33.21 C-8.65 33.36 -5.56 33.25 -2.18 32.21 C-2.18 30.23 -2.18 28.25 -2.18 26.21 C-5.81 24.2 -9.25 22.88 -13.24 21.83 C-17.72 20.56 -20.22 18.92 -23.18 15.21 C-24.73 12.11 -24.47 9.63 -24.18 6.21 C-19.06 -2.02 -8.85 -3.22 0 0 Z " fill="#3392CF" transform="translate(272.1796875,267.79296875)"/>
<path d="M0 0 C11 0 11 0 14.06 1.75 C17.92 6.23 18.38 9.74 18.25 15.53 C17.91 18.91 16.91 21.2 15 24 C11 27 11 27 0 27 C0 18.09 0 9.18 0 0 Z " fill="#C0E1F5" transform="translate(403,276)"/>
<path d="M0 0 C2.37 2.37 3 4.3 4.12 7.44 C4.48 8.41 4.83 9.37 5.2 10.37 C6 13 6 13 6 16 C2.37 16 -1.26 16 -5 16 C-3.85 10.27 -2.48 5.29 0 0 Z " fill="#B9DDF3" transform="translate(118,274)"/>
</svg>
