<svg xmlns="http://www.w3.org/2000/svg" width="512" height="512"><path fill="#3392CF" d="M69.37 234.853c.89-.01 1.79-.01 2.71-.02.97 0 1.95-.01 2.96-.01l3.12-.02c3.42-.02 6.84-.03 10.26-.04 1.75-.01 1.75-.01 3.54-.01 6.18-.02 12.36-.04 18.54-.05 6.38-.01 12.77-.04 19.15-.08 4.91-.03 9.82-.04 14.73-.04 2.35-.01 4.7-.02 7.05-.04 3.3-.02 6.59-.02 9.89-.01l2.93-.04c6.69.05 12.24 1.26 17.28 5.92 5.54 6.26 5.77 11.88 5.76 19.85.01 1.03.01 2.06.02 3.13.02 3.4.02 6.81.03 10.22 0 2.37.01 4.75.02 7.12.01 4.97.01 9.95.01 14.92 0 6.37.03 12.73.06 19.1.03 4.9.03 9.8.03 14.7 0 2.35.01 4.69.02 7.04.02 3.28.02 6.57.01 9.86l.03 2.92c-.06 6.07-1.06 10.66-4.52 15.73-2.22 2.06-2.22 2.06-4.5 3.43-.75.48-1.5.95-2.28 1.44-3.51 1.78-6.64 2.25-10.56 2.27-.86 0-1.72.01-2.6.01-.94.01-1.88.01-2.84.01-.99 0-1.99.01-3.01.01-3.28.02-6.57.02-9.85.03-2.28.01-4.57.01-6.85.02-4.79.01-9.59.01-14.38.02-6.13 0-12.26.03-18.39.06-4.72.01-9.44.02-14.16.02-2.26 0-4.52.01-6.78.02-3.17.02-6.33.02-9.5.01l-2.81.03c-6.62-.04-12.43-.89-17.73-5.21-.54-.66-1.08-1.31-1.63-1.99-.84-.96-.84-.96-1.68-1.95-3.77-5.81-3.75-11.62-3.76-18.3 0-1-.01-2-.02-3.03-.02-3.3-.03-6.59-.04-9.89l-.03-6.89c-.01-4.82-.02-9.64-.02-14.46-.01-6.16-.05-12.31-.09-18.47-.03-4.75-.04-9.5-.04-14.25-.01-2.27-.02-4.54-.04-6.81-.03-3.18-.02-6.36-.01-9.55-.01-.92-.03-1.85-.04-2.81.07-6.79 1.82-12.11 5.64-17.77 4.24-4.05 8.52-6.12 14.37-6.15m150.893-.143c1.03-.01 2.06-.01 3.13-.02 3.4-.02 6.81-.02 10.22-.03 2.37 0 4.75-.01 7.12-.02 4.97-.01 9.95-.01 14.92-.01 6.37 0 12.73-.03 19.1-.06q7.35-.03 14.7-.03c2.35 0 4.69-.01 7.04-.02 3.28-.02 6.57-.02 9.86-.01l2.92-.03c6.07.06 10.66 1.07 15.73 4.52 2.06 2.22 2.06 2.22 3.43 4.5.48.75.95 1.51 1.44 2.28 1.78 3.51 2.25 6.65 2.27 10.56 0 .86.01 1.72.01 2.61.01 1.4.01 1.4.01 2.83 0 1 .01 1.99.01 3.01.02 3.28.02 6.57.03 9.85.01 2.29.01 4.57.02 6.85.01 4.8.01 9.59.02 14.38 0 6.13.03 12.26.06 18.39.01 4.72.02 9.44.02 14.16 0 2.26.01 4.52.02 6.78.02 3.17.02 6.33.01 9.5l.03 2.81c-.04 6.62-.89 12.43-5.21 17.73-.66.54-1.31 1.08-1.99 1.64-.96.83-.96.83-1.95 1.68-5.8 3.75-11.57 3.73-18.24 3.72-1.49 0-1.49 0-3.01.01-3.27.01-6.55.01-9.82.01-2.28.01-4.56.01-6.84.01-4.78.01-9.56.01-14.34.01-6.12-.01-12.23.01-18.35.03-4.71.02-9.42.02-14.13.01-2.26 0-4.51.01-6.77.02-3.15.01-6.31 0-9.46-.01l-2.81.03c-6.95-.06-12.21-1.4-18.21-5.09-5.99-6.15-6.84-12.61-6.77-20.91-.01-1.03-.01-2.07-.02-3.13-.02-3.39-.01-6.78.01-10.18-.01-2.36-.01-4.73-.02-7.1 0-4.96.01-9.91.03-14.87.02-6.34.01-12.68-.02-19.02q-.015-7.335 0-14.67c0-2.34 0-4.67-.01-7.01-.01-3.27.01-6.54.03-9.82l-.03-2.9c.09-6.66 1.32-12.22 5.96-17.22 6.26-5.55 11.88-5.78 19.85-5.77"/><path fill="#3492CF" d="M173.4 91.846c1.31-.01 1.31-.01 2.65-.03.95 0 1.9 0 2.88-.01 1.01-.01 2.02-.02 3.06-.02q5.01-.045 10.02-.06l3.46-.02 18.14-.06c5-.01 10-.04 14.99-.08 6.05-.05 12.09-.07 18.13-.08 2.3-.01 4.59-.02 6.89-.05 3.22-.03 6.45-.03 9.67-.02.94-.02 1.88-.03 2.85-.05 6.79.06 12.24 1.72 17.86 5.63 4.19 4.99 6.11 9.83 6.14 16.34.01.86.01 1.72.02 2.61v2.84c.01.99.01 1.98.02 3 .01 3.29.02 6.57.02 9.85.01 2.29.01 4.57.02 6.86.01 4.79.02 9.58.02 14.37.01 6.13.03 12.26.06 18.4.02 4.72.02 9.44.02 14.16.01 2.26.01 4.52.03 6.78.01 3.16.01 6.33.01 9.49.01.93.01 1.86.02 2.82-.04 6.61-.86 12.46-5.25 17.73-.66.53-1.32 1.07-2 1.63-.66.55-1.32 1.11-2 1.68-5.6 3.79-10.67 3.74-17.23 3.72-1.52.01-1.52.01-3.07.01-3.34.02-6.69.02-10.04.01-2.33.01-4.66.01-6.99.02-4.89.01-9.77 0-14.65 0-6.26-.01-12.51.01-18.76.03-4.82.02-9.63.02-14.44.02-2.31 0-4.61 0-6.92.01-3.22.01-6.45.01-9.68 0-.94 0-1.89.01-2.87.02-7.74-.06-13.83-1.74-19.48-7.4-4.07-6.02-4.58-11.48-4.52-18.6 0-1.03-.01-2.06-.02-3.13-.02-3.39 0-6.78.01-10.17 0-2.37-.01-4.74-.01-7.11-.01-4.95 0-9.91.02-14.87.02-6.34.01-12.68-.02-19.02q-.015-7.335 0-14.67c.01-2.33 0-4.67-.01-7.01-.01-3.27.01-6.54.03-9.81-.01-.96-.01-1.92-.02-2.91.09-7.02 1.55-12.62 6.54-17.75.66-.46 1.32-.91 2-1.38.66-.48 1.32-.95 2-1.44 3.38-1.91 6.56-2.25 10.4-2.28"/><path fill="#3191CE" d="M365.171 234.71c1.02-.01 2.04-.01 3.1-.02 3.37-.02 6.75-.02 10.12-.03 2.35 0 4.7-.01 7.05-.02 4.93-.01 9.86-.01 14.78-.01 6.31 0 12.61-.03 18.92-.06 4.85-.02 9.71-.03 14.56-.03 2.33 0 4.65-.01 6.98-.02 3.25-.02 6.5-.02 9.76-.01l2.89-.03c7.03.07 12.39 1.63 17.73 6.34q.675.855 1.38 1.74c.47.58.94 1.16 1.43 1.76 2.01 2.99 2.26 5.63 2.28 9.13l.03 2.75c.01 1.5.01 1.5.01 3.02.01 1.58.01 1.58.03 3.18.02 3.49.04 6.97.05 10.46.01 1.19.01 2.38.02 3.6.03 6.3.04 12.6.06 18.9.02 6.5.06 13 .11 19.5.04 5.01.05 10.01.05 15.01.01 2.4.02 4.79.05 7.19.03 3.36.03 6.72.02 10.07.02.99.04 1.98.05 2.99-.06 6.55-1.46 10.79-5.63 15.88-6.21 6.05-12.86 6.3-21.09 6.29-1 .01-2 .01-3.03.02-3.3.02-6.6.02-9.9.03-2.3 0-4.6.01-6.91.02-4.82.01-9.64.01-14.46.01-6.17 0-12.34.03-18.5.06-4.76.02-9.51.03-14.26.03-2.28 0-4.55.01-6.82.02-3.19.02-6.37.02-9.56.01l-2.82.03c-6.71-.06-13.12-1.31-18.24-5.97-3.57-4.11-5.66-7.68-5.67-13.13-.01-.91-.02-1.83-.02-2.77v-3.01c0-1.06-.01-2.11-.01-3.2-.02-3.49-.01-6.97-.01-10.46-.01-2.43-.01-4.85-.01-7.27-.01-5.09-.01-10.17-.01-15.25.01-6.51-.01-13.03-.03-19.54-.02-5.01-.02-10.01-.01-15.02 0-2.4-.01-4.8-.02-7.2-.01-3.36-.01-6.72.01-10.08l-.03-3c.05-6.18.75-10.68 5.05-15.45l1.72-1.42 1.71-1.45c5.5-3.73 10.66-3.6 17.09-3.59"/><path fill="#C2E2F5" d="M379.785 242.71c.67-.01 1.35-.01 2.04-.02 2.22-.02 4.45-.02 6.67-.03 1.55 0 3.1-.01 4.65-.02 3.24-.01 6.49-.01 9.73-.01 4.16 0 8.31-.03 12.46-.06q4.8-.03 9.6-.03c1.53 0 3.06-.01 4.59-.02 2.14-.02 4.29-.02 6.43-.01h3.69c5.05.74 8.05 2.85 11.21 6.81 1.43 3.35 1.53 5.93 1.53 9.58.01.67.01 1.35.02 2.04.01 2.22 0 4.43-.01 6.65.01 1.55.01 3.1.01 4.64.01 3.24 0 6.48-.01 9.73-.02 4.14-.01 8.28.01 12.43.01 3.19 0 6.39 0 9.58-.01 1.53 0 3.06 0 4.59.01 2.13 0 4.27-.02 6.41v3.69c-.55 4.83-1.83 8.05-5.62 11.19-3.47 1.45-6.19 1.54-9.95 1.55l-2.14.03q-3.48.015-6.96 0c-1.61.01-3.23.01-4.85.02-3.38.01-6.77.01-10.16 0-4.33-.01-8.66.01-13 .03-3.34.02-6.68.02-10.02.02-1.59 0-3.19 0-4.79.02-2.24.01-4.47 0-6.71-.02h-3.85c-3.98-.6-5.57-1.6-8.33-4.5-2.21-3.95-2.27-7.52-2.31-11.99l-.03-2.07c-.02-2.25-.03-4.5-.04-6.75 0-1.57-.01-3.14-.02-4.71-.02-3.29-.03-6.57-.03-9.86-.01-4.21-.04-8.41-.09-12.61-.03-3.25-.04-6.49-.04-9.73q0-2.325-.03-4.65c-.03-2.17-.03-4.34-.01-6.51l-.02-3.74c.91-5.02 3.32-7.73 7.5-10.74 3.01-.91 5.76-.91 8.9-.93"/><path fill="#C1E2F5" d="m90.58 242.839 2.01-.02c2.2-.01 4.39-.02 6.59-.02 1.52-.01 3.05-.01 4.58-.02 3.21-.01 6.41-.02 9.62-.02 4.1 0 8.19-.03 12.29-.06 3.16-.02 6.32-.02 9.48-.02 1.51-.01 3.02-.01 4.53-.03 2.12-.01 4.23-.01 6.35-.01 1.21 0 2.41 0 3.65-.01 5.26.59 8.23 2.09 11.66 6.12 1.9 3.73 2.17 6.1 2.18 10.26.01.68.01 1.35.02 2.05.02 2.21.01 4.42-.01 6.63 0 1.55.01 3.09.01 4.64.01 3.23 0 6.47-.02 9.7-.02 4.14-.01 8.27.02 12.41q.015 4.785 0 9.57c-.01 1.53 0 3.05.01 4.58.01 2.13-.01 4.26-.03 6.4 0 1.21-.01 2.42-.01 3.67-.74 4.84-2.94 7.74-6.32 11.19-3.14 1.65-5.72 1.55-9.25 1.57-1.05.01-1.05.01-2.13.03-2.32.02-4.64.02-6.96.02-1.61.01-3.23.01-4.85.02-3.39.02-6.77.02-10.16.01-4.33 0-8.67.03-13 .07-3.34.02-6.68.03-10.02.02-1.59 0-3.19.01-4.79.03-2.24.02-4.47.01-6.71 0h-3.85c-4.6-.82-6.21-2.31-9.47-5.62-1.15-3.45-1.16-6.19-1.21-9.84l-.03-2.09c-.03-2.29-.05-4.58-.07-6.87l-.02-2.37c-.03-4.14-.05-8.29-.07-12.43-.02-3.43-.06-6.85-.11-10.27-.06-4.14-.09-8.28-.1-12.42-.01-1.58-.02-3.15-.05-4.73-.25-13.84-.25-13.84 3.51-18.44 3.85-3.66 7.59-3.67 12.73-3.7"/><path fill="#C1E1F5" d="M193.92 99.596c.66-.01 1.33-.01 2.01-.02 2.18-.02 4.36-.02 6.54-.01 1.52 0 3.05-.01 4.57-.02 3.19 0 6.38 0 9.56.01 4.08.01 8.15-.01 12.23-.04 3.14-.02 6.29-.02 9.43-.01 1.51 0 3.01-.01 4.51-.02 2.1-.02 4.21 0 6.31.01h3.62c4.82.73 7.72 2.96 11.15 6.32 1.64 3.12 1.53 5.65 1.54 9.17 0 .69.01 1.39.01 2.1.02 2.3.01 4.59 0 6.88 0 1.6 0 3.19.01 4.79 0 3.34 0 6.69-.02 10.03-.02 4.28-.01 8.57.01 12.85.01 3.29.01 6.59 0 9.89 0 1.58 0 3.16.01 4.73.01 2.21-.01 4.42-.02 6.63 0 1.26-.01 2.51-.01 3.81-.52 4.48-2.01 6.9-5.12 10.09-3.2 1.72-5.8 1.61-9.43 1.63l-2.16.03c-2.36.02-4.72.02-7.07.02l-4.93.03c-3.44.01-6.87.01-10.31.01-4.41-.01-8.81.02-13.21.06-3.39.03-6.78.03-10.17.03-1.62 0-3.25.01-4.87.02-2.27.03-4.54.02-6.81 0-1.94 0-1.94 0-3.92.01-4.28-.79-5.69-2.26-8.38-5.63-2.38-3.47-2.26-6.63-2.29-10.78-.01-.67-.01-1.35-.02-2.04-.02-2.22-.02-4.45-.03-6.67 0-1.55-.01-3.1-.02-4.65-.01-3.24-.01-6.49-.01-9.74 0-4.15-.03-8.3-.06-12.45q-.03-4.8-.03-9.6c0-1.53-.01-3.06-.02-4.59-.02-2.14-.02-4.29-.01-6.43v-3.69c.6-4.13 1.79-6.19 4.49-9.36 4.35-2.85 7.78-3.38 12.92-3.4"/><path fill="#C1E2F5" d="M234.898 242.596c.67-.01 1.35-.01 2.04-.02 2.22-.02 4.43-.02 6.65-.01 1.55 0 3.1-.01 4.65-.02 3.24 0 6.48 0 9.72.01 4.14.01 8.28-.01 12.43-.04 3.19-.02 6.39-.02 9.58-.01 1.53 0 3.06-.01 4.59-.02 2.14-.02 4.27 0 6.41.01h3.69c4.85.73 7.74 2.94 11.19 6.32 1.64 3.12 1.53 5.65 1.54 9.17.01.69.01 1.39.02 2.1.01 2.3 0 4.59-.01 6.88 0 1.6.01 3.19.01 4.79 0 3.34 0 6.69-.02 10.03-.01 4.28 0 8.57.01 12.85.01 3.29.01 6.59 0 9.89 0 1.58 0 3.16.01 4.73.01 2.21 0 4.42-.02 6.63 0 1.26 0 2.51-.01 3.81-.54 4.71-1.92 7.15-5.62 10.09-3.45 1.52-6.08 1.61-9.84 1.63l-2.1.03c-2.28.02-4.56.02-6.85.02l-4.77.03c-3.34.01-6.67.01-10.01.01-4.26-.01-8.53.02-12.79.06-3.29.03-6.58.03-9.87.03-1.57 0-3.14.01-4.71.02-2.2.03-4.4.02-6.61 0-1.87 0-1.87 0-3.79.01-5.05-.92-7.75-3.3-10.78-7.51-.91-3.01-.91-5.76-.93-8.9-.01-.67-.01-1.35-.02-2.04-.02-2.22-.02-4.45-.02-6.67-.01-1.55-.02-3.1-.02-4.65-.02-3.24-.02-6.49-.02-9.74 0-4.15-.03-8.3-.06-12.45q-.03-4.8-.03-9.6c0-1.53-.01-3.06-.02-4.59-.02-2.14-.02-4.29 0-6.43-.01-1.22-.01-2.44-.01-3.69.74-5.05 2.86-8.05 6.81-11.21 3.35-1.43 5.94-1.53 9.58-1.55"/><path fill="#FAFCFD" d="M215 243c-.31.76-.62 1.53-.94 2.31-1.74 4.41-2.19 7.68-2.22 12.42-.01.68-.01 1.36-.02 2.06-.01 2.25-.02 4.5-.02 6.75-.01 1.57-.01 3.14-.02 4.71-.01 3.29-.02 6.58-.02 9.87-.01 4.2-.03 8.4-.06 12.61-.02 3.24-.02 6.48-.02 9.72-.01 1.55-.01 3.1-.03 4.65-.29 13.26-.29 13.26 5.73 24.71 5.07 4.23 8.26 5.57 14.95 5.59.71.01 1.43.02 2.18.02 2.36.02 4.73.02 7.1.01 1.66.01 3.31.01 4.97.02 3.47.01 6.93.01 10.4 0 4.43-.02 8.86 0 13.29.03 3.41.02 6.83.02 10.25.02 1.63 0 3.27 0 4.9.01 11.89.21 11.89.21 22.58-4.51 5.16-5.29 6.25-10.11 6.26-17.37 0-.73.01-1.45.01-2.2.01-2.38 0-4.76 0-7.15v-4.99c0-3.48 0-6.96-.01-10.44-.01-4.45 0-8.91.01-13.36.01-3.43 0-6.87 0-10.3v-4.92c.01-2.3 0-4.6-.01-6.9 0-1.3 0-2.61-.01-3.96-.24-3.25-.84-5.49-2.25-8.41 3.98.19 5.68.71 8.67 3.42 3.32 4.23 3.02 8.54 2.95 13.73 0 1.01.01 2.01.01 3.05.01 3.32-.01 6.64-.04 9.96v6.93c0 4.84-.02 9.68-.05 14.52-.04 6.2-.04 12.41-.03 18.61q0 7.155-.03 14.31c-.01 2.29-.01 4.58-.01 6.86 0 3.2-.02 6.4-.05 9.59 0 .95.01 1.89.01 2.86-.06 4.82-.13 8.36-3.43 12.16-4.49 3.89-9.38 3.44-15.02 3.42l-3.05.03c-3.32.02-6.64.02-9.96.02-2.31.01-4.62.01-6.93.02-4.84.02-9.68.02-14.52.01-6.2 0-12.4.03-18.61.07-4.77.02-9.54.02-14.31.02-2.29 0-4.57.01-6.86.03-3.2.02-6.39.01-9.59 0l-2.86.04c-4.3-.06-7.34-.23-10.8-2.95-3.31-3.6-4.74-6.13-4.76-11.02-.01-.86-.01-1.71-.02-2.59v-2.82c-.01-.99-.01-1.97-.02-2.99-.02-3.26-.02-6.52-.03-9.78 0-2.27-.01-4.54-.02-6.8-.01-4.76-.01-9.51-.01-14.26 0-6.09-.03-12.18-.06-18.27q-.03-7.02-.03-14.04c0-2.25-.01-4.49-.02-6.74-.02-3.14-.02-6.28-.01-9.42l-.03-2.8c.05-5.56.78-8.8 4.52-13.18 2.99-2.19 4.28-3 8-3m-48 0c4.09.86 6.46 1.43 9.38 4.5 2.07 3.19 2.75 4.82 2.77 8.57 0 .85.01 1.71.02 2.59 0 .93 0 1.87.01 2.84 0 .98.01 1.97.02 2.98.02 3.27.03 6.55.04 9.82 0 1.11.01 2.23.01 3.38.02 5.91.04 11.81.05 17.72.01 6.1.04 12.21.08 18.31.03 4.69.03 9.39.04 14.08q0 3.375.03 6.75c.03 3.15.03 6.3.02 9.45.01.93.03 1.86.04 2.81-.05 5.57-.73 8.83-4.51 13.2-2.86 2.52-4.62 3.38-8.43 3.39-.88.02-1.76.03-2.66.04-.96 0-1.92-.01-2.91-.01-1.52.01-1.52.01-3.07.03-3.36.02-6.72.02-10.08.02-2.33.01-4.67.01-7 .02-4.89.02-9.79.02-14.68.01-6.27 0-12.54.03-18.81.07-4.82.02-9.65.02-14.47.02q-3.465 0-6.93.03c-3.24.02-6.47.01-9.7 0-.96.01-1.91.02-2.89.04-4.39-.06-7.44-.24-10.95-3.01-3.03-3.32-3.54-5.58-3.58-9.91l-.03-2.64-.02-2.88-.03-3.04c-.03-3.32-.05-6.65-.07-9.98-.01-1.13-.01-2.27-.02-3.44-.03-6.01-.06-12.02-.08-18.04-.01-4.97-.05-9.95-.1-14.92-.06-6.01-.09-12.02-.1-18.03-.01-2.28-.03-4.57-.05-6.86-.04-3.21-.04-6.41-.04-9.62l-.06-2.85c.07-5.83 1.18-8.95 5.19-13.23C65 244 65 244 67.88 243.56c.7.15 1.4.29 2.12.44-.32.67-.65 1.35-.98 2.04-1.23 3.58-1.28 6.52-1.29 10.3-.01.72-.01 1.44-.02 2.19-.01 2.37-.01 4.74-.01 7.12 0 1.66-.01 3.31-.01 4.97-.01 3.47-.01 6.94-.01 10.42.01 4.43-.01 8.87-.03 13.31-.01 3.42-.02 6.84-.01 10.27 0 1.63-.01 3.27-.02 4.9-.01 2.3 0 4.59.01 6.88v3.94c.49 4.88 1.8 8.84 5.05 12.62.58.47 1.16.93 1.76 1.42.57.48 1.15.96 1.74 1.46 4.05 2.59 8.34 2.31 13.03 2.35l2.18.03c2.38.02 4.75.04 7.13.05l2.46.02q6.465.045 12.93.06c3.55.01 7.11.04 10.66.08 4.31.05 8.61.08 12.91.08 1.64.01 3.27.03 4.91.05 11.22.37 11.22.37 21.22-4.14 5.48-5.61 6.51-11.74 6.55-19.3.01-.68.01-1.36.02-2.07.01-2.25.02-4.51.02-6.76.01-1.57.01-3.14.02-4.72.01-3.29.02-6.58.02-9.88q.015-6.315.06-12.63c.02-3.25.02-6.5.02-9.74.01-1.55.01-3.11.03-4.66.01-2.17.01-4.35.01-6.52 0-1.24 0-2.48.01-3.75-.41-3.73-1.57-6.13-3.37-9.39z"/><path fill="#FDFEFE" d="M359 244c-.32.84-.65 1.68-.98 2.54-1.11 3.77-1.29 6.88-1.31 10.81-.01.71-.01 1.42-.02 2.15-.02 2.33-.02 4.66-.03 6.99 0 1.63-.01 3.26-.02 4.9-.01 3.41-.01 6.82-.01 10.24 0 4.36-.03 8.72-.06 13.08-.02 3.37-.03 6.73-.03 10.1 0 1.61-.01 3.22-.02 4.82-.22 11.78-.22 11.78 4.48 22.37 5.21 4.95 9.06 6.25 16.21 6.29.72.01 1.44.01 2.18.02 2.38.02 4.75.02 7.13.03 1.65 0 3.31.01 4.97.02 3.47.01 6.94.01 10.42.01 4.43 0 8.87.03 13.3.06 3.43.02 6.85.03 10.27.03 1.64 0 3.27.01 4.91.02 11.9.24 11.9.24 22.61-4.48 5.12-5.26 6.25-10.05 6.26-17.27 0-.71.01-1.42.01-2.16.01-2.34 0-4.69 0-7.03v-4.92c0-3.43 0-6.86-.01-10.28-.01-4.39 0-8.78.01-13.16.01-3.38 0-6.76 0-10.14v-4.85c.01-2.27 0-4.53-.01-6.8 0-1.28 0-2.57-.01-3.89-.25-3.49-.99-6.25-2.25-9.5 3.93.27 5.55.52 8.31 3.44 2.13 3.23 2.82 4.86 2.84 8.67 0 .86.01 1.72.02 2.61 0 .95 0 1.89.01 2.87 0 .99.01 1.99.02 3.01.02 3.31.03 6.61.04 9.92 0 1.12.01 2.25.01 3.41.02 5.97.04 11.93.05 17.9.01 6.16.04 12.33.08 18.49.03 4.74.03 9.48.04 14.21 0 2.28.01 4.55.03 6.82.03 3.18.03 6.36.02 9.55.01.93.03 1.87.04 2.84-.05 5.56-.66 8.94-4.51 13.26-2.9 1.77-5.06 2.25-8.43 2.27l-2.68.02h-2.9c-1.02.01-2.04.01-3.08.02-3.37.02-6.73.02-10.09.03-2.34 0-4.68.01-7.01.02-4.9.01-9.8.01-14.7.01-6.28 0-12.56.03-18.84.06-4.82.02-9.65.03-14.47.03-2.32 0-4.63.01-6.95.02-3.23.02-6.47.02-9.71.01l-2.9.03c-4.13-.04-6.61-.16-10.25-2.24-4.6-5.28-4.29-10.51-4.3-17.21 0-.99-.01-1.99-.02-3.01-.03-3.29-.03-6.58-.04-9.87l-.03-6.86-.03-14.38c0-6.15-.04-12.29-.08-18.43-.03-4.72-.04-9.45-.04-14.17-.01-2.26-.02-4.53-.04-6.79-.03-3.17-.02-6.34-.01-9.5-.01-.94-.03-1.87-.04-2.83.04-4.38.24-7.32 3.05-10.8 3.42-3.21 3.8-3.43 8.59-3.43"/><path fill="#FAFCFD" d="M173 101c-.49 1-.97 2.01-1.47 3.04-1.64 3.83-1.92 7.13-1.95 11.31l-.03 2.12c-.02 2.29-.02 4.58-.02 6.87-.01 1.6-.01 3.21-.02 4.81-.02 3.36-.02 6.72-.01 10.07 0 4.29-.03 8.57-.07 12.85-.02 3.31-.02 6.63-.02 9.94 0 1.58-.01 3.16-.03 4.73-.1 9.77.19 17.4 7.13 24.89 6.53 5.28 15.76 4.05 23.69 3.96h5.03c3.5 0 7.01-.02 10.51-.05 4.49-.04 8.97-.04 13.45-.03 3.47 0 6.93-.01 10.39-.03 1.65-.01 3.3-.01 4.96-.01 2.31 0 4.62-.02 6.93-.05 1.97-.01 1.97-.01 3.98-.03 3.83-.42 6.22-1.51 9.55-3.39l3-1c1.13-1.83 1.13-1.83 2-4 .34-.56.69-1.11 1.04-1.68 1.34-3.25 1.21-6.04 1.22-9.55 0-.72.01-1.44.01-2.18.01-2.38 0-4.76 0-7.14v-4.98c0-3.48 0-6.95-.01-10.43-.01-4.45 0-8.89.01-13.34.01-3.42 0-6.85 0-10.28v-4.91c.01-2.3 0-4.6-.01-6.89 0-1.31 0-2.61-.01-3.96-.27-3.89-1.05-6.97-2.25-10.66 3.98.19 5.68.71 8.67 3.42 3.32 4.23 3.02 8.54 2.95 13.73 0 1.01.01 2.01.01 3.05.01 3.32-.01 6.64-.04 9.96v6.93c0 4.84-.02 9.68-.05 14.52-.04 6.2-.04 12.41-.03 18.61q0 7.155-.03 14.31c-.01 2.29-.01 4.58-.01 6.86 0 3.2-.02 6.4-.05 9.59 0 .95.01 1.89.01 2.86-.06 4.85-.19 8.29-3.43 12.16-2.88 2.52-4.65 3.38-8.47 3.39l-2.7.04c-.97 0-1.94-.01-2.94-.01l-3.11.03c-3.39.02-6.79.02-10.18.02-2.36.01-4.72.01-7.08.02-4.94.02-9.89.02-14.84.01-6.34 0-12.67.03-19.01.07-4.88.02-9.75.02-14.62.02-2.34 0-4.68.01-7.01.03-3.27.02-6.54.01-9.81 0-.96.01-1.93.02-2.93.04-4.52-.06-6.62-.15-10.31-2.95-2.74-3.73-4.24-6.36-4.26-11.02-.01-.86-.01-1.71-.02-2.59v-2.82c-.01-.99-.01-1.97-.02-2.99-.02-3.26-.02-6.52-.03-9.78 0-2.27-.01-4.54-.02-6.8-.01-4.76-.01-9.51-.01-14.26 0-6.09-.03-12.18-.06-18.27q-.03-7.02-.03-14.04c0-2.25-.01-4.49-.02-6.74-.02-3.14-.02-6.28-.01-9.42l-.03-2.8c.05-5.55.76-8.82 4.52-13.18 3.23-2.15 4.28-2.2 8-2"/><path fill="#3694CF" d="m406.313 268.563 2.22-.02c5.76.06 10.63 1.08 15.17 4.89 4.22 5.51 5.59 9.57 5.61 16.51.02 1.18.03 2.36.05 3.58-.57 5.48-2.6 9.32-6.86 12.79-.88.74-.88.74-1.78 1.49-4.3 2.99-9.21 2.45-14.22 2.51l-2.63.09-2.53.02c-.76.02-1.52.03-2.31.05-2.03-.47-2.03-.47-3.78-2.03-1.69-3.29-1.7-6.3-1.69-9.91 0-.72-.01-1.44-.01-2.17-.01-1.52-.01-3.03 0-4.54.01-2.32-.02-4.62-.05-6.94v-4.41l-.03-2.09c.05-3.32.33-5.12 2.32-7.82 3.32-2.35 6.61-2.1 10.52-2"/><path fill="#3392CF" d="M198 127c2.62.38 2.62.38 5 1 2.41 7.58 4.28 15.23 6 23 1.78-2.67 2.43-4.12 3.18-7.12.31-1.19.31-1.19.63-2.4.42-1.65.83-3.31 1.25-4.96.31-1.19.31-1.19.62-2.4.18-.71.37-1.43.55-2.17.9-2.29 1.84-3.45 3.77-4.95 3-.06 3-.06 6 1 3.06 4.93 4.3 10.31 5.69 15.88.22.87.45 1.75.68 2.66.55 2.15 1.09 4.3 1.63 6.46.17-.72.34-1.43.52-2.17.78-3.24 1.57-6.47 2.36-9.71.26-1.12.53-2.25.81-3.41.27-1.08.53-2.16.8-3.26.24-1 .48-1.99.73-3.02C239 129 239 129 241 127c4.56.56 4.56.56 6 2-.54 7.59-2.54 14.89-4.38 22.25-.3 1.27-.6 2.53-.92 3.84-.3 1.21-.6 2.42-.91 3.68-.27 1.1-.54 2.2-.82 3.33-.96 2.88-1.9 4.7-3.97 6.9-2.5.5-2.5.5-5 0-2.58-2.83-3.62-5.46-4.57-9.13-.26-.97-.51-1.94-.78-2.94-.25-1.01-.51-2.02-.77-3.05-.53-2.01-1.05-4.01-1.58-6.01-.22-.89-.45-1.77-.68-2.69-.55-2.2-.55-2.2-1.62-4.18-.2.74-.39 1.48-.59 2.25-.9 3.36-1.81 6.71-2.72 10.06-.47 1.75-.47 1.75-.94 3.54l-.93 3.39c-.27 1.03-.55 2.06-.84 3.12-.99 2.66-1.67 4.01-3.98 5.64-3.19-.31-3.19-.31-6-1-2.63-7.92-4.79-15.9-6.75-24-.22-.91-.45-1.82-.67-2.75-.21-.87-.42-1.73-.63-2.63-.18-.77-.36-1.54-.55-2.33-.44-2.51-.6-4.75-.4-7.29zm-78.562 137.813c3.56 1.19 3.56 1.19 5.46 4.47 2.63 5.7 5 11.52 7.35 17.34.46 1.11.92 2.21 1.39 3.35.44 1.08.87 2.15 1.32 3.25.39.97.78 1.93 1.19 2.93.94 3.13 1.15 5.59.85 8.85l-2 2c-2.7-.18-3.77-.77-5.68-2.69-1.32-2.31-1.32-2.31-2.32-8.31h-17l-1 6c-1.56 2.87-1.56 2.87-3 5-4.87-.88-4.87-.88-6-2 .17-7.5 3.16-14.02 6.04-20.83.84-1.99 1.66-3.99 2.48-5.99.53-1.28 1.07-2.55 1.6-3.83.48-1.15.96-2.29 1.46-3.48 2.13-4.29 2.96-5.79 7.86-6.06m152.742 2.98c2.64 1.71 4.08 3.59 5.82 6.21-.37 2.68-.37 2.68-1 5l-5 1-1.94-3c-1.77-2.19-2.58-2.92-5.4-3.4-2.24.02-4.43.13-6.66.4l-1 5c5.07 2.25 10.18 4.11 15.45 5.84 2.94 1.33 4.56 2.61 6.55 5.16.96 4.01.91 8.18-.95 11.91-2.58 3.31-5.14 4.83-9.05 6.09-7.35.86-13.1.64-19-4-2-2.44-2-2.44-3-5 .31-2.82.31-2.82 1-5l5-1c.34.49.68.98 1.02 1.49.45.64.9 1.28 1.36 1.94.44.64.88 1.28 1.33 1.94 1.21 1.76 1.21 1.76 3.29 2.63 3.53.15 6.62.04 10-1v-6c-3.63-2.01-7.07-3.33-11.06-4.38-4.48-1.27-6.98-2.91-9.94-6.62-1.55-3.1-1.29-5.58-1-9 5.12-8.23 15.33-9.43 24.18-6.21"/><path fill="#C0E1F5" d="M403 276c11 0 11 0 14.06 1.75 3.86 4.48 4.32 7.99 4.19 13.78-.34 3.38-1.34 5.67-3.25 8.47-4 3-4 3-15 3z"/><path fill="#B9DDF3" d="M118 274c2.37 2.37 3 4.3 4.12 7.44.36.97.71 1.93 1.08 2.93.8 2.63.8 2.63.8 5.63h-11c1.15-5.73 2.52-10.71 5-16"/></svg>
