<svg xmlns="http://www.w3.org/2000/svg" width="800" height="800" fill="none" viewBox="0 0 24 24"><path stroke="#000" stroke-linecap="round" stroke-linejoin="round" stroke-width="1.5" d="M14.1 12a2.1 2.1 0 1 1-4.2 0 2.1 2.1 0 0 1 4.2 0" clip-rule="evenodd"/><path fill="#000" d="M17.65 11.999a.75.75 0 0 0-1.5.002zm-2.715 2.935a.75.75 0 0 0 1.06 1.062zm1.215-2.935a.75.75 0 0 0 1.5.002zm-.155-3.995a.75.75 0 0 0-1.06 1.062zm.905 3.246a.75.75 0 0 0 0 1.5zm2.1 1.5a.75.75 0 0 0 0-1.5zm-6.999 4.9a.75.75 0 0 0-.002-1.5zm-2.935-2.715a.75.75 0 0 0-1.062 1.06zm2.935 1.215a.75.75 0 0 0-.002 1.5zm3.995-.155a.75.75 0 0 0-1.062-1.06zm-3.246.905a.75.75 0 0 0-1.5 0zm-1.5 2.1a.75.75 0 0 0 1.5 0zm-4.9-6.999a.75.75 0 1 0 1.5-.002zm2.715-2.935a.75.75 0 0 0-1.06-1.062zM7.85 12.001a.75.75 0 0 0-1.5-.002zm.155 3.995a.75.75 0 0 0 1.06-1.062zM7.1 12.75a.75.75 0 0 0 0-1.5zM5 11.25a.75.75 0 0 0 0 1.5zm6.999-3.4a.75.75 0 0 0 .002-1.5zm-3.995.155a.75.75 0 0 0 1.062 1.06zm3.995-1.655a.75.75 0 1 0 .002 1.5zm2.935 2.715a.75.75 0 0 0 1.062-1.06zM11.25 7.1a.75.75 0 0 0 1.5 0zm1.5-2.1a.75.75 0 0 0-1.5 0zM7.58 6.52a.75.75 0 0 0-1.06 1.06zm.425 2.545a.75.75 0 0 0 1.06-1.06zm8.415 8.415a.75.75 0 1 0 1.06-1.06zm-.425-2.545a.75.75 0 1 0-1.06 1.06zM6.52 16.42a.75.75 0 1 0 1.06 1.06zm2.545-.425a.75.75 0 1 0-1.06-1.06zM17.48 7.58a.75.75 0 0 0-1.06-1.06zm-2.545.425a.75.75 0 0 0 1.06 1.06zm-5.87 0a.75.75 0 0 0-1.06 1.06zm.92 3.04a.75.75 0 1 0 1.06-1.06zm-1.98 3.89a.75.75 0 1 0 1.06 1.06zm3.04-.92a.75.75 0 1 0-1.06-1.06zm3.89 1.98a.75.75 0 1 0 1.06-1.06zm-.92-3.04a.75.75 0 1 0-1.06 1.06zm1.98-3.89a.75.75 0 0 0-1.06-1.06zm-3.04.92a.75.75 0 1 0 1.06 1.06zM16.15 12a4.14 4.14 0 0 1-1.215 2.933l1.06 1.062a5.64 5.64 0 0 0 1.655-3.997zm1.5 0a5.64 5.64 0 0 0-1.655-3.997l-1.06 1.062a4.14 4.14 0 0 1 1.215 2.933zm-.75.749H19v-1.5h-2.1zm-4.901 3.4a4.14 4.14 0 0 1-2.933-1.215l-1.062 1.06a5.64 5.64 0 0 0 3.997 1.655zm0 1.5a5.64 5.64 0 0 0 3.997-1.655l-1.062-1.06a4.14 4.14 0 0 1-2.933 1.215zm-.749-.75V19h1.5v-2.1zm-3.4-4.901a4.14 4.14 0 0 1 1.215-2.933l-1.06-1.062a5.64 5.64 0 0 0-1.655 3.997zm-1.5 0a5.64 5.64 0 0 0 1.655 3.997l1.06-1.062a4.14 4.14 0 0 1-1.215-2.933zm.75-.749H5v1.5h2.1zm4.901-4.9a5.64 5.64 0 0 0-3.997 1.655l1.062 1.06a4.14 4.14 0 0 1 2.933-1.215zm0 1.5a4.14 4.14 0 0 1 2.933 1.215l1.062-1.06a5.64 5.64 0 0 0-3.997-1.655zm.749-.75V5h-1.5v2.1zm-6.23.48 1.485 1.485 1.06-1.06L7.58 6.52zm10.96 8.84-1.485-1.485-1.06 1.06 1.485 1.485zm-9.9 1.06 1.485-1.485-1.06-1.06L6.52 16.42zm8.84-10.96-1.485 1.485 1.06 1.06L17.48 7.58zM8.005 9.065l1.98 1.98 1.06-1.06-1.98-1.98zm1.06 6.93 1.98-1.98-1.06-1.06-1.98 1.98zm6.93-1.06-1.98-1.98-1.06 1.06 1.98 1.98zm-1.06-6.93-1.98 1.98 1.06 1.06 1.98-1.98z"/></svg>
